mononoki-Bold Italic.ufo
<glyph name="exclam" format="1">
  <advance width="575"/>
  <unicode hex="0021"/>
  <outline>
    <contour>
      <point x="333" y="720" type="line"/>
      <point x="313" y="720"/>
      <point x="295" y="705"/>
      <point x="292" y="685" type="curve"/>
      <point x="233" y="240" type="line"/>
      <point x="230" y="220"/>
      <point x="242" y="205"/>
      <point x="262" y="205" type="curve"/>
      <point x="295" y="205" type="line"/>
      <point x="315" y="205"/>
      <point x="334" y="220"/>
      <point x="337" y="240" type="curve"/>
      <point x="417" y="685" type="line"/>
      <point x="420" y="705"/>
      <point x="409" y="720"/>
      <point x="388" y="720" type="curve"/>
    </contour>
    <contour>
      <point x="310" y="72" type="line"/>
      <point x="313" y="92"/>
      <point x="302" y="107"/>
      <point x="281" y="107" type="curve"/>
      <point x="246" y="107" type="line"/>
      <point x="226" y="107"/>
      <point x="208" y="92"/>
      <point x="205" y="72" type="curve"/>
      <point x="198" y="25" type="line"/>
      <point x="194" y="4"/>
      <point x="207" y="-10"/>
      <point x="227" y="-10" type="curve"/>
      <point x="262" y="-10" type="line"/>
      <point x="283" y="-10"/>
      <point x="299" y="4"/>
      <point x="303" y="25" type="curve"/>
    </contour>
  </outline>
</glyph>
<glyph name="quotedbl" format="1">
  <advance width="575"/>
  <unicode hex="0022"/>
  <outline>
    <contour>
      <point x="225" y="770" type="line" smooth="yes"/>
      <point x="204" y="770"/>
      <point x="190" y="758"/>
      <point x="186" y="737" type="curve"/>
      <point x="186" y="736" type="line"/>
      <point x="154" y="448" type="line" smooth="yes"/>
      <point x="151" y="426"/>
      <point x="164" y="413"/>
      <point x="186" y="413" type="curve" smooth="yes"/>
      <point x="213" y="413" type="line" smooth="yes"/>
      <point x="233" y="413"/>
      <point x="248" y="424"/>
      <point x="253" y="445" type="curve"/>
      <point x="310" y="733" type="line" smooth="yes"/>
      <point x="315" y="755"/>
      <point x="303" y="770"/>
      <point x="280" y="770" type="curve" smooth="yes"/>
    </contour>
    <contour>
      <point x="454" y="770" type="line" smooth="yes"/>
      <point x="432" y="770"/>
      <point x="418" y="758"/>
      <point x="415" y="736" type="curve" smooth="yes"/>
      <point x="383" y="448" type="line" smooth="yes"/>
      <point x="380" y="426"/>
      <point x="392" y="413"/>
      <point x="414" y="413" type="curve" smooth="yes"/>
      <point x="442" y="413" type="line" smooth="yes"/>
      <point x="463" y="413"/>
      <point x="477" y="425"/>
      <point x="481" y="445" type="curve" smooth="yes"/>
      <point x="539" y="733" type="line" smooth="yes"/>
      <point x="544" y="755"/>
      <point x="532" y="770"/>
      <point x="509" y="770" type="curve" smooth="yes"/>
    </contour>
  </outline>
</glyph>
<glyph name="numbersign" format="2">
	<advance width="575"/>
	<unicode hex="0023"/>
	<outline>
		<contour>
			<point x="504" y="290" type="curve"/>
			<point x="448" y="290" type="line"/>
			<point x="469" y="424" type="line"/>
			<point x="525" y="424" type="line"/>
			<point x="545" y="424"/>
			<point x="562" y="439"/>
			<point x="566" y="459" type="curve"/>
			<point x="570" y="486" type="line"/>
			<point x="573" y="506"/>
			<point x="560" y="521"/>
			<point x="540" y="521" type="curve"/>
			<point x="484" y="521" type="line"/>
			<point x="510" y="685" type="line"/>
			<point x="514" y="706"/>
			<point x="501" y="720"/>
			<point x="481" y="720" type="curve"/>
			<point x="446" y="720" type="line"/>
			<point x="425" y="720"/>
			<point x="408" y="705"/>
			<point x="405" y="685" type="curve"/>
			<point x="379" y="521" type="line"/>
			<point x="279" y="521" type="line"/>
			<point x="305" y="685" type="line"/>
			<point x="309" y="706"/>
			<point x="296" y="720"/>
			<point x="276" y="720" type="curve"/>
			<point x="241" y="720" type="line"/>
			<point x="221" y="720"/>
			<point x="203" y="705"/>
			<point x="200" y="685" type="curve"/>
			<point x="174" y="521" type="line"/>
			<point x="117" y="521" type="line"/>
			<point x="97" y="521"/>
			<point x="80" y="506"/>
			<point x="77" y="485" type="curve"/>
			<point x="73" y="459" type="line"/>
			<point x="69" y="439"/>
			<point x="82" y="424"/>
			<point x="102" y="424" type="curve"/>
			<point x="159" y="424" type="line"/>
			<point x="138" y="290" type="line"/>
			<point x="81" y="290" type="line"/>
			<point x="61" y="290"/>
			<point x="43" y="275"/>
			<point x="40" y="254" type="curve"/>
			<point x="36" y="228" type="line"/>
			<point x="33" y="208"/>
			<point x="45" y="193"/>
			<point x="65" y="193" type="curve"/>
			<point x="122" y="193" type="line"/>
			<point x="97" y="35" type="line"/>
			<point x="94" y="15"/>
			<point x="107" y="0"/>
			<point x="127" y="0" type="curve"/>
			<point x="162" y="0" type="line"/>
			<point x="182" y="0"/>
			<point x="199" y="15"/>
			<point x="202" y="35" type="curve"/>
			<point x="227" y="193" type="line"/>
			<point x="327" y="193" type="line"/>
			<point x="302" y="35" type="line"/>
			<point x="299" y="15"/>
			<point x="311" y="0"/>
			<point x="332" y="0" type="curve"/>
			<point x="367" y="0" type="line"/>
			<point x="387" y="0"/>
			<point x="404" y="15"/>
			<point x="407" y="35" type="curve"/>
			<point x="432" y="193" type="line"/>
			<point x="488" y="193" type="line"/>
			<point x="508" y="193"/>
			<point x="526" y="208"/>
			<point x="529" y="228" type="curve"/>
			<point x="533" y="255" type="line"/>
			<point x="536" y="275"/>
			<point x="524" y="290"/>
		</contour>
		<contour>
			<point x="243" y="290" type="line"/>
			<point x="264" y="424" type="line"/>
			<point x="364" y="424" type="line"/>
			<point x="343" y="290" type="line"/>
		</contour>
	</outline>
</glyph>
<glyph name="ampersand" format="1">
  <advance width="575"/>
  <unicode hex="0026"/>
  <outline>
    <contour>
      <point x="463" y="0" type="line" smooth="yes"/>
      <point x="486" y="0"/>
      <point x="501" y="15"/>
      <point x="500" y="38" type="curve"/>
      <point x="500" y="38" type="line"/>
      <point x="494" y="79"/>
      <point x="481" y="121"/>
      <point x="459" y="168" type="curve"/>
      <point x="479" y="202"/>
      <point x="497" y="236"/>
      <point x="512" y="273" type="curve" smooth="yes"/>
      <point x="521" y="296"/>
      <point x="512" y="313"/>
      <point x="490" y="317" type="curve" smooth="yes"/>
      <point x="458" y="323" type="line" smooth="yes"/>
      <point x="439" y="327"/>
      <point x="423" y="318"/>
      <point x="414" y="298" type="curve"/>
      <point x="414" y="297" type="line"/>
      <point x="410" y="287"/>
      <point x="406" y="277"/>
      <point x="402" y="268" type="curve"/>
      <point x="367" y="320"/>
      <point x="322" y="379"/>
      <point x="267" y="444" type="curve" smooth="yes"/>
      <point x="237" y="479"/>
      <point x="223" y="510"/>
      <point x="223" y="539" type="curve" smooth="yes"/>
      <point x="223" y="582"/>
      <point x="260" y="618"/>
      <point x="305" y="618" type="curve" smooth="yes"/>
      <point x="344" y="618"/>
      <point x="371" y="592"/>
      <point x="371" y="557" type="curve" smooth="yes"/>
      <point x="371" y="532"/>
      <point x="358" y="506"/>
      <point x="338" y="489" type="curve" smooth="yes"/>
      <point x="321" y="475"/>
      <point x="320" y="457"/>
      <point x="333" y="441" type="curve" smooth="yes"/>
      <point x="349" y="421" type="line"/>
      <point x="350" y="420" type="line" smooth="yes"/>
      <point x="364" y="405"/>
      <point x="382" y="404"/>
      <point x="398" y="418" type="curve"/>
      <point x="446" y="458"/>
      <point x="473" y="515"/>
      <point x="473" y="574" type="curve" smooth="yes"/>
      <point x="473" y="657"/>
      <point x="409" y="717"/>
      <point x="319" y="717" type="curve" smooth="yes"/>
      <point x="210" y="717"/>
      <point x="117" y="630"/>
      <point x="117" y="529" type="curve" smooth="yes"/>
      <point x="117" y="485"/>
      <point x="135" y="438"/>
      <point x="170" y="392" type="curve"/>
      <point x="80" y="331"/>
      <point x="28" y="244"/>
      <point x="28" y="153" type="curve" smooth="yes"/>
      <point x="28" y="54"/>
      <point x="90" y="-7"/>
      <point x="192" y="-7" type="curve" smooth="yes"/>
      <point x="259" y="-7"/>
      <point x="326" y="23"/>
      <point x="385" y="77" type="curve"/>
      <point x="391" y="60"/>
      <point x="395" y="44"/>
      <point x="397" y="30" type="curve" smooth="yes"/>
      <point x="397" y="29" type="line" smooth="yes"/>
      <point x="401" y="9"/>
      <point x="412" y="0"/>
      <point x="431" y="0" type="curve" smooth="yes"/>
    </contour>
    <contour>
      <point x="157" y="89"/>
      <point x="132" y="115"/>
      <point x="132" y="163" type="curve" smooth="yes"/>
      <point x="132" y="220"/>
      <point x="169" y="280"/>
      <point x="230" y="321" type="curve"/>
      <point x="278" y="260"/>
      <point x="314" y="210"/>
      <point x="340" y="168" type="curve"/>
      <point x="298" y="118"/>
      <point x="249" y="89"/>
      <point x="204" y="89" type="curve" smooth="yes"/>
    </contour>
  </outline>
</glyph>
<glyph name="quotesingle" format="2">
	<advance width="575"/>
	<unicode hex="0027"/>
	<outline>
		<contour>
			<point x="396" y="770" type="curve" smooth="yes"/>
			<point x="341" y="770" type="line" smooth="yes"/>
			<point x="319" y="770"/>
			<point x="304" y="756"/>
			<point x="301" y="734" type="curve" smooth="yes"/>
			<point x="268" y="447" type="line" smooth="yes"/>
			<point x="265" y="425"/>
			<point x="277" y="413"/>
			<point x="298" y="413" type="curve" smooth="yes"/>
			<point x="326" y="413" type="line" smooth="yes"/>
			<point x="347" y="413"/>
			<point x="362" y="425"/>
			<point x="366" y="446" type="curve" smooth="yes"/>
			<point x="425" y="735" type="line"/>
			<point x="429" y="757"/>
			<point x="418" y="770"/>
		</contour>
	</outline>
</glyph>
<glyph name="parenright" format="1">
  <advance width="575"/>
  <unicode hex="0029"/>
  <outline>
    <contour>
      <point x="39" y="-151" type="line" smooth="yes"/>
      <point x="35" y="-174"/>
      <point x="47" y="-188"/>
      <point x="70" y="-188" type="curve" smooth="yes"/>
      <point x="306" y="-188"/>
      <point x="483" y="127"/>
      <point x="483" y="394" type="curve" smooth="yes"/>
      <point x="483" y="609"/>
      <point x="374" y="760"/>
      <point x="217" y="760" type="curve" smooth="yes"/>
      <point x="196" y="760"/>
      <point x="182" y="748"/>
      <point x="178" y="727" type="curve" smooth="yes"/>
      <point x="174" y="701" type="line" smooth="yes"/>
      <point x="170" y="678"/>
      <point x="182" y="664"/>
      <point x="205" y="664" type="curve" smooth="yes"/>
      <point x="307" y="664"/>
      <point x="377" y="552"/>
      <point x="377" y="388" type="curve" smooth="yes"/>
      <point x="377" y="178"/>
      <point x="255" y="-92"/>
      <point x="82" y="-92" type="curve" smooth="yes"/>
      <point x="60" y="-92"/>
      <point x="47" y="-104"/>
      <point x="43" y="-125" type="curve" smooth="yes"/>
    </contour>
  </outline>
</glyph>
<glyph name="plus" format="1">
  <advance width="575"/>
  <unicode hex="002B"/>
  <outline>
    <contour>
      <point x="348" y="309" type="line"/>
      <point x="376" y="485" type="line" smooth="yes"/>
      <point x="379" y="507"/>
      <point x="368" y="520"/>
      <point x="346" y="520" type="curve" smooth="yes"/>
      <point x="311" y="520" type="line" smooth="yes"/>
      <point x="290" y="520"/>
      <point x="274" y="506"/>
      <point x="271" y="485" type="curve" smooth="yes"/>
      <point x="243" y="309" type="line"/>
      <point x="84" y="309" type="line" smooth="yes"/>
      <point x="62" y="309"/>
      <point x="47" y="295"/>
      <point x="43" y="273" type="curve" smooth="yes"/>
      <point x="39" y="247" type="line" smooth="yes"/>
      <point x="36" y="226"/>
      <point x="47" y="212"/>
      <point x="68" y="212" type="curve" smooth="yes"/>
      <point x="227" y="212" type="line"/>
      <point x="199" y="35" type="line" smooth="yes"/>
      <point x="196" y="14"/>
      <point x="208" y="0"/>
      <point x="229" y="0" type="curve" smooth="yes"/>
      <point x="264" y="0" type="line" smooth="yes"/>
      <point x="286" y="0"/>
      <point x="301" y="13"/>
      <point x="304" y="35" type="curve" smooth="yes"/>
      <point x="332" y="212" type="line"/>
      <point x="491" y="212" type="line" smooth="yes"/>
      <point x="513" y="212"/>
      <point x="528" y="225"/>
      <point x="532" y="247" type="curve" smooth="yes"/>
      <point x="536" y="274" type="line" smooth="yes"/>
      <point x="540" y="296"/>
      <point x="529" y="309"/>
      <point x="507" y="309" type="curve" smooth="yes"/>
    </contour>
  </outline>
</glyph>
<glyph name="comma" format="1">
  <advance width="575"/>
  <unicode hex="002C"/>
  <outline>
    <contour>
      <point x="222" y="160" type="line" smooth="yes"/>
      <point x="200" y="160"/>
      <point x="185" y="147"/>
      <point x="182" y="125" type="curve" smooth="yes"/>
      <point x="167" y="35" type="line" smooth="yes"/>
      <point x="164" y="14"/>
      <point x="176" y="0"/>
      <point x="197" y="0" type="curve" smooth="yes"/>
      <point x="227" y="0" type="line"/>
      <point x="208" y="-112"/>
      <point x="162" y="-151"/>
      <point x="52" y="-151" type="curve" smooth="yes"/>
      <point x="31" y="-151"/>
      <point x="16" y="-164"/>
      <point x="12" y="-186" type="curve" smooth="yes"/>
      <point x="8" y="-213" type="line" smooth="yes"/>
      <point x="5" y="-234"/>
      <point x="16" y="-247"/>
      <point x="38" y="-247" type="curve" smooth="yes"/>
      <point x="222" y="-247"/>
      <point x="304" y="-176"/>
      <point x="333" y="8" type="curve" smooth="yes"/>
      <point x="352" y="125" type="line" smooth="yes"/>
      <point x="355" y="147"/>
      <point x="344" y="160"/>
      <point x="322" y="160" type="curve" smooth="yes"/>
    </contour>
  </outline>
</glyph>
<glyph name="hyphen" format="1">
  <advance width="575"/>
  <unicode hex="002D"/>
  <outline>
    <contour>
      <point x="38" y="237" type="line"/>
      <point x="35" y="217"/>
      <point x="48" y="202"/>
      <point x="68" y="202" type="curve"/>
      <point x="491" y="202" type="line"/>
      <point x="511" y="202"/>
      <point x="528" y="217"/>
      <point x="531" y="237" type="curve"/>
      <point x="536" y="264" type="line"/>
      <point x="539" y="284"/>
      <point x="526" y="299"/>
      <point x="506" y="299" type="curve"/>
      <point x="83" y="299" type="line"/>
      <point x="63" y="299"/>
      <point x="46" y="284"/>
      <point x="42" y="263" type="curve"/>
    </contour>
  </outline>
</glyph>
<glyph name="period" format="1">
  <advance width="575"/>
  <unicode hex="002E"/>
  <outline>
    <contour>
      <point x="221" y="160" type="line"/>
      <point x="201" y="160"/>
      <point x="184" y="146"/>
      <point x="181" y="125" type="curve"/>
      <point x="166" y="35" type="line"/>
      <point x="163" y="15"/>
      <point x="176" y="0"/>
      <point x="196" y="0" type="curve"/>
      <point x="296" y="0" type="line"/>
      <point x="317" y="0"/>
      <point x="333" y="15"/>
      <point x="336" y="35" type="curve"/>
      <point x="351" y="125" type="line"/>
      <point x="354" y="146"/>
      <point x="341" y="160"/>
      <point x="321" y="160" type="curve"/>
    </contour>
  </outline>
</glyph>
<glyph name="zero" format="1">
  <advance width="575"/>
  <unicode hex="0030"/>
  <outline>
    <contour>
      <point x="159" y="730"/>
      <point x="52" y="474"/>
      <point x="52" y="261" type="curve" smooth="yes"/>
      <point x="52" y="88"/>
      <point x="122" y="-10"/>
      <point x="247" y="-10" type="curve" smooth="yes"/>
      <point x="448" y="-10"/>
      <point x="555" y="247"/>
      <point x="555" y="459" type="curve" smooth="yes"/>
      <point x="555" y="631"/>
      <point x="485" y="730"/>
      <point x="361" y="730" type="curve" smooth="yes"/>
    </contour>
    <contour>
      <point x="398" y="634"/>
      <point x="431" y="599"/>
      <point x="444" y="530" type="curve"/>
      <point x="157" y="283" type="line"/>
      <point x="161" y="429"/>
      <point x="227" y="634"/>
      <point x="349" y="634" type="curve" smooth="yes"/>
    </contour>
    <contour>
      <point x="210" y="87"/>
      <point x="177" y="123"/>
      <point x="163" y="192" type="curve"/>
      <point x="450" y="439" type="line"/>
      <point x="446" y="292"/>
      <point x="381" y="87"/>
      <point x="259" y="87" type="curve" smooth="yes"/>
    </contour>
  </outline>
</glyph>
<glyph name="two" format="1">
  <advance width="575"/>
  <unicode hex="0032"/>
  <outline>
    <contour>
      <point x="156" y="97" type="line"/>
      <point x="177" y="154"/>
      <point x="242" y="199"/>
      <point x="316" y="250" type="curve"/>
      <point x="431" y="330"/>
      <point x="551" y="415"/>
      <point x="551" y="556" type="curve" smooth="yes"/>
      <point x="551" y="680"/>
      <point x="452" y="730"/>
      <point x="339" y="730" type="curve"/>
      <point x="287" y="730"/>
      <point x="230" y="719"/>
      <point x="178" y="700" type="curve"/>
      <point x="159" y="693"/>
      <point x="147" y="674"/>
      <point x="152" y="655" type="curve"/>
      <point x="157" y="630" type="line"/>
      <point x="161" y="611"/>
      <point x="177" y="602"/>
      <point x="198" y="608" type="curve"/>
      <point x="246" y="624"/>
      <point x="284" y="632"/>
      <point x="324" y="632" type="curve"/>
      <point x="399" y="632"/>
      <point x="444" y="606"/>
      <point x="444" y="541" type="curve" smooth="yes"/>
      <point x="444" y="452"/>
      <point x="355" y="391"/>
      <point x="264" y="327" type="curve"/>
      <point x="185" y="274"/>
      <point x="64" y="198"/>
      <point x="42" y="58" type="curve"/>
      <point x="38" y="34" type="line"/>
      <point x="35" y="14"/>
      <point x="48" y="-1"/>
      <point x="68" y="-1" type="curve"/>
      <point x="448" y="-1" type="line"/>
      <point x="468" y="-1"/>
      <point x="485" y="14"/>
      <point x="488" y="34" type="curve"/>
      <point x="493" y="62" type="line"/>
      <point x="496" y="82"/>
      <point x="483" y="97"/>
      <point x="463" y="97" type="curve"/>
    </contour>
  </outline>
</glyph>
<glyph name="three" format="1">
  <advance width="575"/>
  <unicode hex="0033"/>
  <outline>
    <contour>
      <point x="174" y="646" type="line" smooth="yes"/>
      <point x="177" y="625"/>
      <point x="193" y="616"/>
      <point x="215" y="621" type="curve" smooth="yes"/>
      <point x="247" y="628"/>
      <point x="278" y="632"/>
      <point x="309" y="632" type="curve" smooth="yes"/>
      <point x="394" y="632"/>
      <point x="430" y="607"/>
      <point x="430" y="549" type="curve" smooth="yes"/>
      <point x="430" y="473"/>
      <point x="367" y="421"/>
      <point x="274" y="421" type="curve" smooth="yes"/>
      <point x="223" y="421" type="line" smooth="yes"/>
      <point x="202" y="421"/>
      <point x="187" y="408"/>
      <point x="184" y="387" type="curve" smooth="yes"/>
      <point x="180" y="360" type="line"/>
      <point x="176" y="339"/>
      <point x="188" y="324"/>
      <point x="211" y="324" type="curve" smooth="yes"/>
      <point x="262" y="324" type="line" smooth="yes"/>
      <point x="339" y="324"/>
      <point x="386" y="282"/>
      <point x="386" y="214" type="curve" smooth="yes"/>
      <point x="386" y="134"/>
      <point x="324" y="88"/>
      <point x="214" y="88" type="curve" smooth="yes"/>
      <point x="181" y="88"/>
      <point x="149" y="92"/>
      <point x="119" y="99" type="curve" smooth="yes"/>
      <point x="100" y="104"/>
      <point x="83" y="96"/>
      <point x="74" y="77" type="curve" smooth="yes"/>
      <point x="62" y="49" type="line" smooth="yes"/>
      <point x="53" y="28"/>
      <point x="60" y="10"/>
      <point x="80" y="4" type="curve" smooth="yes"/>
      <point x="118" y="-5"/>
      <point x="159" y="-10"/>
      <point x="202" y="-10" type="curve" smooth="yes"/>
      <point x="373" y="-10"/>
      <point x="491" y="80"/>
      <point x="491" y="212" type="curve" smooth="yes"/>
      <point x="491" y="282"/>
      <point x="460" y="339"/>
      <point x="405" y="374" type="curve"/>
      <point x="493" y="423"/>
      <point x="537" y="485"/>
      <point x="537" y="563" type="curve" smooth="yes"/>
      <point x="537" y="669"/>
      <point x="457" y="730"/>
      <point x="321" y="730" type="curve" smooth="yes"/>
      <point x="280" y="730"/>
      <point x="239" y="725"/>
      <point x="201" y="716" type="curve" smooth="yes"/>
      <point x="180" y="711"/>
      <point x="168" y="695"/>
      <point x="171" y="674" type="curve" smooth="yes"/>
    </contour>
  </outline>
</glyph>
<glyph name="four" format="1">
  <advance width="575"/>
  <unicode hex="0034"/>
  <outline>
    <contour>
      <point x="438" y="241" type="line"/>
      <point x="463" y="402" type="line"/>
      <point x="467" y="422"/>
      <point x="454" y="437"/>
      <point x="434" y="437" type="curve"/>
      <point x="399" y="437" type="line"/>
      <point x="379" y="437"/>
      <point x="362" y="422"/>
      <point x="358" y="402" type="curve"/>
      <point x="333" y="241" type="line"/>
      <point x="178" y="241" type="line"/>
      <point x="465" y="676" type="line"/>
      <point x="481" y="699"/>
      <point x="469" y="720"/>
      <point x="444" y="720" type="curve"/>
      <point x="408" y="720" type="line"/>
      <point x="385" y="720"/>
      <point x="369" y="711"/>
      <point x="357" y="691" type="curve"/>
      <point x="70" y="254" type="line"/>
      <point x="63" y="243"/>
      <point x="59" y="232"/>
      <point x="57" y="219" type="curve"/>
      <point x="50" y="179" type="line"/>
      <point x="47" y="159"/>
      <point x="59" y="145"/>
      <point x="79" y="145" type="curve"/>
      <point x="318" y="145" type="line"/>
      <point x="300" y="35" type="line"/>
      <point x="297" y="15"/>
      <point x="309" y="0"/>
      <point x="329" y="0" type="curve"/>
      <point x="364" y="0" type="line"/>
      <point x="385" y="0"/>
      <point x="401" y="15"/>
      <point x="404" y="35" type="curve"/>
      <point x="422" y="145" type="line"/>
      <point x="467" y="145" type="line"/>
      <point x="488" y="145"/>
      <point x="504" y="160"/>
      <point x="507" y="180" type="curve"/>
      <point x="511" y="206" type="line"/>
      <point x="515" y="226"/>
      <point x="503" y="241"/>
      <point x="482" y="241" type="curve"/>
    </contour>
  </outline>
</glyph>
<glyph name="six" format="1">
  <advance width="575"/>
  <unicode hex="0036"/>
  <outline>
    <contour>
      <point x="511" y="678" type="line"/>
      <point x="512" y="679" type="line"/>
      <point x="518" y="700"/>
      <point x="510" y="718"/>
      <point x="489" y="722" type="curve"/>
      <point x="456" y="727"/>
      <point x="427" y="730"/>
      <point x="403" y="730" type="curve" smooth="yes"/>
      <point x="172" y="730"/>
      <point x="45" y="473"/>
      <point x="45" y="233" type="curve" smooth="yes"/>
      <point x="45" y="74"/>
      <point x="112" y="-10"/>
      <point x="242" y="-10" type="curve" smooth="yes"/>
      <point x="389" y="-10"/>
      <point x="504" y="110"/>
      <point x="504" y="261" type="curve" smooth="yes"/>
      <point x="504" y="375"/>
      <point x="429" y="449"/>
      <point x="313" y="449" type="curve" smooth="yes"/>
      <point x="277" y="449"/>
      <point x="237" y="442"/>
      <point x="182" y="427" type="curve"/>
      <point x="221" y="560"/>
      <point x="294" y="632"/>
      <point x="393" y="632" type="curve" smooth="yes"/>
      <point x="411" y="632"/>
      <point x="432" y="630"/>
      <point x="456" y="625" type="curve" smooth="yes"/>
      <point x="476" y="621"/>
      <point x="492" y="631"/>
      <point x="500" y="650" type="curve" smooth="yes"/>
    </contour>
    <contour>
      <point x="188" y="88"/>
      <point x="152" y="142"/>
      <point x="152" y="247" type="curve" smooth="yes"/>
      <point x="152" y="270"/>
      <point x="155" y="290"/>
      <point x="159" y="320" type="curve"/>
      <point x="222" y="349"/>
      <point x="270" y="351"/>
      <point x="297" y="351" type="curve" smooth="yes"/>
      <point x="362" y="351"/>
      <point x="397" y="315"/>
      <point x="397" y="250" type="curve" smooth="yes"/>
      <point x="397" y="161"/>
      <point x="335" y="88"/>
      <point x="257" y="88" type="curve" smooth="yes"/>
    </contour>
  </outline>
</glyph>
<glyph name="seven" format="1">
  <advance width="575"/>
  <unicode hex="0037"/>
  <outline>
    <contour>
      <point x="183" y="720" type="line"/>
      <point x="163" y="720"/>
      <point x="146" y="706"/>
      <point x="142" y="685" type="curve"/>
      <point x="117" y="528" type="line"/>
      <point x="114" y="508"/>
      <point x="127" y="493"/>
      <point x="147" y="493" type="curve"/>
      <point x="182" y="493" type="line"/>
      <point x="203" y="493"/>
      <point x="219" y="507"/>
      <point x="222" y="528" type="curve"/>
      <point x="238" y="624" type="line"/>
      <point x="478" y="624" type="line"/>
      <point x="471" y="592"/>
      <point x="455" y="560"/>
      <point x="419" y="506" type="curve"/>
      <point x="300" y="326" type="line"/>
      <point x="229" y="216"/>
      <point x="184" y="116"/>
      <point x="171" y="34" type="curve"/>
      <point x="168" y="14"/>
      <point x="180" y="0"/>
      <point x="201" y="0" type="curve"/>
      <point x="235" y="0" type="line"/>
      <point x="256" y="0"/>
      <point x="273" y="14"/>
      <point x="276" y="34" type="curve"/>
      <point x="289" y="113"/>
      <point x="325" y="197"/>
      <point x="385" y="285" type="curve"/>
      <point x="512" y="470" type="line"/>
      <point x="555" y="534"/>
      <point x="576" y="581"/>
      <point x="585" y="636" type="curve"/>
      <point x="592" y="686" type="line"/>
      <point x="596" y="706"/>
      <point x="584" y="720"/>
      <point x="564" y="720" type="curve"/>
    </contour>
  </outline>
</glyph>
<glyph name="semicolon" format="1">
  <advance width="575"/>
  <unicode hex="003B"/>
  <outline>
    <contour>
      <point x="279" y="520" type="line"/>
      <point x="258" y="520"/>
      <point x="242" y="506"/>
      <point x="239" y="485" type="curve"/>
      <point x="224" y="395" type="line"/>
      <point x="221" y="375"/>
      <point x="234" y="360"/>
      <point x="254" y="360" type="curve"/>
      <point x="354" y="360" type="line"/>
      <point x="374" y="360"/>
      <point x="391" y="375"/>
      <point x="394" y="395" type="curve"/>
      <point x="409" y="485" type="line"/>
      <point x="412" y="506"/>
      <point x="399" y="520"/>
      <point x="379" y="520" type="curve"/>
    </contour>
    <contour>
      <point x="222" y="160" type="line"/>
      <point x="201" y="160"/>
      <point x="185" y="146"/>
      <point x="182" y="125" type="curve"/>
      <point x="167" y="35" type="line"/>
      <point x="164" y="15"/>
      <point x="177" y="0"/>
      <point x="197" y="0" type="curve"/>
      <point x="227" y="0" type="line"/>
      <point x="208" y="-111"/>
      <point x="161" y="-151"/>
      <point x="52" y="-151" type="curve"/>
      <point x="32" y="-151"/>
      <point x="16" y="-166"/>
      <point x="12" y="-186" type="curve"/>
      <point x="8" y="-213" type="line"/>
      <point x="5" y="-233"/>
      <point x="18" y="-247"/>
      <point x="38" y="-247" type="curve"/>
      <point x="221" y="-247"/>
      <point x="304" y="-175"/>
      <point x="333" y="8" type="curve"/>
      <point x="352" y="125" type="line"/>
      <point x="355" y="146"/>
      <point x="342" y="160"/>
      <point x="322" y="160" type="curve"/>
    </contour>
  </outline>
</glyph>
<glyph name="equal" format="1">
  <advance width="575"/>
  <unicode hex="003D"/>
  <outline>
    <contour>
      <point x="57" y="362" type="line"/>
      <point x="54" y="342"/>
      <point x="67" y="327"/>
      <point x="87" y="327" type="curve"/>
      <point x="510" y="327" type="line"/>
      <point x="531" y="327"/>
      <point x="547" y="342"/>
      <point x="550" y="362" type="curve"/>
      <point x="554" y="389" type="line"/>
      <point x="558" y="409"/>
      <point x="546" y="424"/>
      <point x="525" y="424" type="curve"/>
      <point x="102" y="424" type="line"/>
      <point x="82" y="424"/>
      <point x="65" y="409"/>
      <point x="61" y="388" type="curve"/>
    </contour>
    <contour>
      <point x="21" y="132" type="line"/>
      <point x="18" y="112"/>
      <point x="30" y="97"/>
      <point x="50" y="97" type="curve"/>
      <point x="473" y="97" type="line"/>
      <point x="494" y="97"/>
      <point x="511" y="112"/>
      <point x="514" y="132" type="curve"/>
      <point x="518" y="159" type="line"/>
      <point x="521" y="179"/>
      <point x="510" y="194"/>
      <point x="489" y="194" type="curve"/>
      <point x="66" y="194" type="line"/>
      <point x="46" y="194"/>
      <point x="28" y="179"/>
      <point x="25" y="158" type="curve"/>
    </contour>
  </outline>
</glyph>
<glyph name="greater" format="1">
  <advance width="575"/>
  <unicode hex="003E"/>
  <outline>
    <contour>
      <point x="157" y="514" type="line" smooth="yes"/>
      <point x="139" y="524"/>
      <point x="120" y="518"/>
      <point x="109" y="501" type="curve"/>
      <point x="91" y="476" type="line" smooth="yes"/>
      <point x="78" y="457"/>
      <point x="81" y="439"/>
      <point x="99" y="427" type="curve"/>
      <point x="406" y="261" type="line"/>
      <point x="44" y="93" type="line" smooth="yes"/>
      <point x="24" y="84"/>
      <point x="16" y="66"/>
      <point x="24" y="46" type="curve" smooth="yes"/>
      <point x="34" y="22" type="line"/>
      <point x="41" y="3"/>
      <point x="59" y="-3"/>
      <point x="78" y="6" type="curve" smooth="yes"/>
      <point x="451" y="179" type="line" smooth="yes"/>
      <point x="497" y="199"/>
      <point x="525" y="228"/>
      <point x="530" y="259" type="curve" smooth="yes"/>
      <point x="535" y="289"/>
      <point x="515" y="319"/>
      <point x="475" y="342" type="curve" smooth="yes"/>
    </contour>
  </outline>
</glyph>
<glyph name="question" format="1">
  <advance width="575"/>
  <unicode hex="003F"/>
  <outline>
    <contour>
      <point x="550" y="631"/>
      <point x="399" y="708"/>
      <point x="161" y="710" type="curve" smooth="yes"/>
      <point x="141" y="710"/>
      <point x="126" y="698"/>
      <point x="122" y="677" type="curve"/>
      <point x="122" y="676" type="line"/>
      <point x="119" y="653" type="line"/>
      <point x="115" y="631"/>
      <point x="128" y="616"/>
      <point x="150" y="616" type="curve" smooth="yes"/>
      <point x="333" y="615"/>
      <point x="444" y="571"/>
      <point x="444" y="503" type="curve" smooth="yes"/>
      <point x="444" y="449"/>
      <point x="373" y="411"/>
      <point x="268" y="411" type="curve" smooth="yes"/>
      <point x="207" y="411" type="line" smooth="yes"/>
      <point x="186" y="411"/>
      <point x="171" y="398"/>
      <point x="168" y="377" type="curve" smooth="yes"/>
      <point x="145" y="232" type="line" smooth="yes"/>
      <point x="141" y="210"/>
      <point x="153" y="195"/>
      <point x="176" y="195" type="curve" smooth="yes"/>
      <point x="211" y="195" type="line" smooth="yes"/>
      <point x="231" y="195"/>
      <point x="246" y="207"/>
      <point x="250" y="228" type="curve" smooth="yes"/>
      <point x="264" y="317" type="line"/>
      <point x="256" y="317" type="line"/>
      <point x="427" y="317"/>
      <point x="550" y="396"/>
      <point x="550" y="510" type="curve" smooth="yes"/>
    </contour>
    <contour>
      <point x="157" y="107" type="line" smooth="yes"/>
      <point x="137" y="107"/>
      <point x="122" y="95"/>
      <point x="118" y="74" type="curve"/>
      <point x="111" y="26" type="line"/>
      <point x="107" y="4"/>
      <point x="119" y="-10"/>
      <point x="142" y="-10" type="curve" smooth="yes"/>
      <point x="177" y="-10" type="line" smooth="yes"/>
      <point x="198" y="-10"/>
      <point x="212" y="2"/>
      <point x="216" y="23" type="curve"/>
      <point x="223" y="71" type="line"/>
      <point x="227" y="92"/>
      <point x="215" y="107"/>
      <point x="192" y="107" type="curve" smooth="yes"/>
    </contour>
  </outline>
</glyph>
<glyph name="at" format="2">
	<advance width="575"/>
	<unicode hex="0040"/>
	<outline>
		<contour>
			<point x="75" y="466" type="curve" smooth="yes"/>
			<point x="15" y="90" type="line"/>
			<point x="12" y="65"/>
			<point x="10" y="44"/>
			<point x="10" y="25" type="curve" smooth="yes"/>
			<point x="10" y="-102"/>
			<point x="83" y="-168"/>
			<point x="223" y="-168" type="curve" smooth="yes"/>
			<point x="268" y="-168"/>
			<point x="308" y="-161"/>
			<point x="353" y="-146" type="curve" smooth="yes"/>
			<point x="373" y="-140"/>
			<point x="383" y="-122"/>
			<point x="378" y="-102" type="curve" smooth="yes"/>
			<point x="371" y="-75" type="line" smooth="yes"/>
			<point x="365" y="-54"/>
			<point x="348" y="-47"/>
			<point x="327" y="-55" type="curve" smooth="yes"/>
			<point x="292" y="-67"/>
			<point x="265" y="-72"/>
			<point x="235" y="-72" type="curve" smooth="yes"/>
			<point x="154" y="-72"/>
			<point x="116" y="-35"/>
			<point x="116" y="41" type="curve" smooth="yes"/>
			<point x="116" y="57"/>
			<point x="117" y="72"/>
			<point x="120" y="86" type="curve"/>
			<point x="180" y="462" type="line" smooth="yes"/>
			<point x="197" y="571"/>
			<point x="253" y="624"/>
			<point x="349" y="624" type="curve" smooth="yes"/>
			<point x="429" y="624"/>
			<point x="467" y="587"/>
			<point x="467" y="512" type="curve" smooth="yes"/>
			<point x="467" y="498"/>
			<point x="466" y="487"/>
			<point x="464" y="475" type="curve"/>
			<point x="351" y="472"/>
			<point x="293" y="413"/>
			<point x="272" y="278" type="curve" smooth="yes"/>
			<point x="250" y="138"/>
			<point x="292" y="77"/>
			<point x="413" y="77" type="curve" smooth="yes"/>
			<point x="473" y="77" type="line" smooth="yes"/>
			<point x="494" y="77"/>
			<point x="509" y="90"/>
			<point x="512" y="111" type="curve" smooth="yes"/>
			<point x="568" y="462" type="line" smooth="yes"/>
			<point x="571" y="482"/>
			<point x="573" y="503"/>
			<point x="573" y="528" type="curve" smooth="yes"/>
			<point x="573" y="654"/>
			<point x="501" y="720"/>
			<point x="361" y="720" type="curve" smooth="yes"/>
			<point x="199" y="720"/>
			<point x="102" y="634"/>
		</contour>
	</outline>
</glyph>
<glyph name="A" format="1">
  <advance width="575"/>
  <unicode hex="0041"/>
  <outline>
    <contour>
      <point x="479" y="633" type="line" smooth="yes"/>
      <point x="474" y="693"/>
      <point x="422" y="730"/>
      <point x="355" y="730" type="curve" smooth="yes"/>
      <point x="289" y="730"/>
      <point x="240" y="693"/>
      <point x="214" y="634" type="curve" smooth="yes"/>
      <point x="-28" y="40" type="line"/>
      <point x="-36" y="17"/>
      <point x="-26" y="0"/>
      <point x="-2" y="0" type="curve" smooth="yes"/>
      <point x="33" y="0" type="line" smooth="yes"/>
      <point x="53" y="0"/>
      <point x="69" y="11"/>
      <point x="76" y="30" type="curve"/>
      <point x="154" y="220" type="line"/>
      <point x="409" y="220" type="line"/>
      <point x="427" y="30" type="line"/>
      <point x="428" y="10"/>
      <point x="441" y="0"/>
      <point x="460" y="0" type="curve" smooth="yes"/>
      <point x="496" y="0" type="line" smooth="yes"/>
      <point x="520" y="0"/>
      <point x="536" y="18"/>
      <point x="533" y="41" type="curve"/>
    </contour>
    <contour>
      <point x="315" y="615" type="line"/>
      <point x="319" y="626"/>
      <point x="332" y="634"/>
      <point x="347" y="634" type="curve" smooth="yes"/>
      <point x="362" y="634"/>
      <point x="373" y="626"/>
      <point x="373" y="615" type="curve"/>
      <point x="401" y="316" type="line"/>
      <point x="193" y="316" type="line"/>
    </contour>
    <contour>
      <point x="499" y="10" type="move" name="ogonek"/>
    </contour>
    <contour>
      <point x="259" y="0" type="move" name="bottom"/>
    </contour>
    <contour>
      <point x="323" y="700" type="move" name="top"/>
    </contour>
  </outline>
</glyph>
<glyph name="B" format="2">
	<advance width="575"/>
	<unicode hex="0042"/>
	<outline>
		<contour>
			<point x="123" y="624" type="curve"/>
			<point x="151" y="624" type="line"/>
			<point x="58" y="35" type="line"/>
			<point x="55" y="15"/>
			<point x="67" y="0"/>
			<point x="87" y="0" type="curve"/>
			<point x="224" y="0" type="line"/>
			<point x="386" y="0"/>
			<point x="518" y="81"/>
			<point x="518" y="223" type="curve" smooth="yes"/>
			<point x="518" y="297"/>
			<point x="482" y="354"/>
			<point x="405" y="382" type="curve"/>
			<point x="484" y="416"/>
			<point x="531" y="482"/>
			<point x="531" y="563" type="curve" smooth="yes"/>
			<point x="531" y="675"/>
			<point x="440" y="720"/>
			<point x="318" y="720" type="curve"/>
			<point x="138" y="720" type="line"/>
			<point x="117" y="720"/>
			<point x="101" y="705"/>
			<point x="98" y="685" type="curve"/>
			<point x="94" y="659" type="line"/>
			<point x="91" y="639"/>
			<point x="102" y="624"/>
		</contour>
		<contour>
			<point x="271" y="423" type="curve"/>
			<point x="224" y="423" type="line"/>
			<point x="256" y="624" type="line"/>
			<point x="313" y="624" type="line"/>
			<point x="399" y="624"/>
			<point x="432" y="594"/>
			<point x="432" y="539" type="curve" smooth="yes"/>
			<point x="432" y="461"/>
			<point x="365" y="423"/>
		</contour>
		<contour>
			<point x="240" y="97" type="curve"/>
			<point x="173" y="97" type="line"/>
			<point x="209" y="326" type="line"/>
			<point x="276" y="326" type="line"/>
			<point x="358" y="326"/>
			<point x="422" y="300"/>
			<point x="422" y="223" type="curve" smooth="yes"/>
			<point x="422" y="137"/>
			<point x="344" y="97"/>
		</contour>
	</outline>
</glyph>
<glyph name="C" format="1">
  <advance width="575"/>
  <unicode hex="0043"/>
  <outline>
    <contour>
      <point x="457" y="101"/>
      <point x="441" y="108"/>
      <point x="420" y="100" type="curve" smooth="yes"/>
      <point x="376" y="85"/>
      <point x="340" y="78"/>
      <point x="309" y="78" type="curve" smooth="yes"/>
      <point x="225" y="78"/>
      <point x="182" y="131"/>
      <point x="182" y="228" type="curve" smooth="yes"/>
      <point x="182" y="258"/>
      <point x="185" y="282"/>
      <point x="203" y="400" type="curve" smooth="yes"/>
      <point x="227" y="552"/>
      <point x="294" y="632"/>
      <point x="397" y="632" type="curve" smooth="yes"/>
      <point x="428" y="632"/>
      <point x="462" y="625"/>
      <point x="501" y="610" type="curve" smooth="yes"/>
      <point x="519" y="602"/>
      <point x="537" y="609"/>
      <point x="548" y="629" type="curve" smooth="yes"/>
      <point x="562" y="653" type="line" smooth="yes"/>
      <point x="574" y="674"/>
      <point x="569" y="691"/>
      <point x="552" y="699" type="curve" smooth="yes"/>
      <point x="507" y="720"/>
      <point x="461" y="730"/>
      <point x="414" y="730" type="curve" smooth="yes"/>
      <point x="248" y="730"/>
      <point x="130" y="608"/>
      <point x="97" y="400" type="curve" smooth="yes"/>
      <point x="81" y="296"/>
      <point x="76" y="258"/>
      <point x="76" y="219" type="curve" smooth="yes"/>
      <point x="76" y="68"/>
      <point x="155" y="-20"/>
      <point x="296" y="-20" type="curve" smooth="yes"/>
      <point x="343" y="-20"/>
      <point x="391" y="-10"/>
      <point x="443" y="11" type="curve" smooth="yes"/>
      <point x="463" y="19"/>
      <point x="473" y="36"/>
      <point x="468" y="57" type="curve" smooth="yes"/>
      <point x="462" y="81" type="line" smooth="yes"/>
    </contour>
    <contour>
      <point x="361" y="720" type="move" name="top"/>
    </contour>
    <contour>
      <point x="247" y="0" type="move" name="bottom"/>
    </contour>
  </outline>
</glyph>
<glyph name="D" format="1">
  <advance width="575"/>
  <unicode hex="0044"/>
  <outline>
    <contour>
      <point x="133" y="720" type="line" smooth="yes"/>
      <point x="113" y="720"/>
      <point x="99" y="708"/>
      <point x="96" y="688" type="curve" smooth="yes"/>
      <point x="92" y="663" type="line" smooth="yes"/>
      <point x="88" y="640"/>
      <point x="101" y="624"/>
      <point x="125" y="624" type="curve" smooth="yes"/>
      <point x="149" y="624" type="line"/>
      <point x="56" y="39" type="line" smooth="yes"/>
      <point x="52" y="16"/>
      <point x="65" y="0"/>
      <point x="89" y="0" type="curve" smooth="yes"/>
      <point x="143" y="0" type="line" smooth="yes"/>
      <point x="388" y="0"/>
      <point x="501" y="95"/>
      <point x="538" y="328" type="curve" smooth="yes"/>
      <point x="552" y="413"/>
      <point x="556" y="442"/>
      <point x="556" y="483" type="curve" smooth="yes"/>
      <point x="556" y="646"/>
      <point x="438" y="720"/>
      <point x="185" y="720" type="curve" smooth="yes"/>
    </contour>
    <contour>
      <point x="406" y="164"/>
      <point x="342" y="103"/>
      <point x="172" y="96" type="curve"/>
      <point x="255" y="622" type="line"/>
      <point x="398" y="613"/>
      <point x="451" y="575"/>
      <point x="451" y="483" type="curve" smooth="yes"/>
      <point x="451" y="451"/>
      <point x="449" y="431"/>
      <point x="434" y="344" type="curve" smooth="yes"/>
    </contour>
  </outline>
</glyph>
<glyph name="E" format="1">
  <advance width="575"/>
  <unicode hex="0045"/>
  <outline>
    <contour>
      <point x="156" y="97" type="line"/>
      <point x="192" y="326" type="line"/>
      <point x="460" y="326" type="line"/>
      <point x="480" y="326"/>
      <point x="497" y="341"/>
      <point x="501" y="361" type="curve"/>
      <point x="505" y="388" type="line"/>
      <point x="508" y="408"/>
      <point x="496" y="423"/>
      <point x="475" y="423" type="curve"/>
      <point x="207" y="423" type="line"/>
      <point x="239" y="624" type="line"/>
      <point x="528" y="624" type="line"/>
      <point x="548" y="624"/>
      <point x="565" y="638"/>
      <point x="569" y="659" type="curve"/>
      <point x="573" y="685" type="line"/>
      <point x="576" y="706"/>
      <point x="563" y="720"/>
      <point x="543" y="720" type="curve"/>
      <point x="184" y="720" type="line"/>
      <point x="164" y="720"/>
      <point x="147" y="705"/>
      <point x="144" y="685" type="curve"/>
      <point x="41" y="35" type="line"/>
      <point x="38" y="15"/>
      <point x="50" y="0"/>
      <point x="70" y="0" type="curve"/>
      <point x="451" y="0" type="line"/>
      <point x="472" y="0"/>
      <point x="489" y="15"/>
      <point x="492" y="35" type="curve"/>
      <point x="496" y="62" type="line"/>
      <point x="499" y="82"/>
      <point x="487" y="97"/>
      <point x="467" y="97" type="curve"/>
    </contour>
  </outline>
</glyph>
<glyph name="G" format="1">
  <advance width="575"/>
  <unicode hex="0047"/>
  <outline>
    <contour>
      <point x="367" y="409" type="line" smooth="yes"/>
      <point x="345" y="409"/>
      <point x="329" y="395"/>
      <point x="326" y="373" type="curve" smooth="yes"/>
      <point x="322" y="347" type="line" smooth="yes"/>
      <point x="318" y="325"/>
      <point x="329" y="312"/>
      <point x="351" y="312" type="curve" smooth="yes"/>
      <point x="413" y="312" type="line"/>
      <point x="378" y="88" type="line"/>
      <point x="352" y="81"/>
      <point x="329" y="78"/>
      <point x="309" y="78" type="curve" smooth="yes"/>
      <point x="225" y="78"/>
      <point x="182" y="131"/>
      <point x="182" y="228" type="curve" smooth="yes"/>
      <point x="182" y="263"/>
      <point x="185" y="282"/>
      <point x="203" y="400" type="curve" smooth="yes"/>
      <point x="227" y="552"/>
      <point x="294" y="632"/>
      <point x="397" y="632" type="curve" smooth="yes"/>
      <point x="428" y="632"/>
      <point x="462" y="625"/>
      <point x="501" y="610" type="curve" smooth="yes"/>
      <point x="519" y="602"/>
      <point x="537" y="609"/>
      <point x="548" y="629" type="curve" smooth="yes"/>
      <point x="562" y="653" type="line" smooth="yes"/>
      <point x="574" y="674"/>
      <point x="569" y="691"/>
      <point x="552" y="699" type="curve" smooth="yes"/>
      <point x="507" y="720"/>
      <point x="461" y="730"/>
      <point x="414" y="730" type="curve" smooth="yes"/>
      <point x="248" y="730"/>
      <point x="130" y="608"/>
      <point x="97" y="400" type="curve" smooth="yes"/>
      <point x="81" y="296"/>
      <point x="76" y="264"/>
      <point x="76" y="218" type="curve" smooth="yes"/>
      <point x="76" y="68"/>
      <point x="155" y="-20"/>
      <point x="296" y="-20" type="curve" smooth="yes"/>
      <point x="343" y="-20"/>
      <point x="393" y="-9"/>
      <point x="446" y="12" type="curve" smooth="yes"/>
      <point x="463" y="19"/>
      <point x="474" y="33"/>
      <point x="477" y="51" type="curve" smooth="yes"/>
      <point x="528" y="374" type="line" smooth="yes"/>
      <point x="531" y="395"/>
      <point x="520" y="409"/>
      <point x="499" y="409" type="curve" smooth="yes"/>
    </contour>
    <contour>
      <point x="358" y="700" type="move" name="top"/>
    </contour>
    <contour>
      <point x="247" y="0" type="move" name="bottom"/>
    </contour>
  </outline>
</glyph>
<glyph name="I" format="1">
  <advance width="575"/>
  <unicode hex="0049"/>
  <outline>
    <contour>
      <point x="194" y="720" type="line"/>
      <point x="175" y="720"/>
      <point x="157" y="706"/>
      <point x="154" y="685" type="curve"/>
      <point x="150" y="659" type="line"/>
      <point x="147" y="639"/>
      <point x="159" y="624"/>
      <point x="179" y="624" type="curve"/>
      <point x="294" y="624" type="line"/>
      <point x="211" y="97" type="line"/>
      <point x="86" y="97" type="line"/>
      <point x="66" y="97"/>
      <point x="48" y="82"/>
      <point x="45" y="62" type="curve"/>
      <point x="41" y="35" type="line"/>
      <point x="38" y="15"/>
      <point x="50" y="0"/>
      <point x="70" y="0" type="curve"/>
      <point x="425" y="0" type="line"/>
      <point x="447" y="0"/>
      <point x="463" y="15"/>
      <point x="466" y="35" type="curve"/>
      <point x="470" y="62" type="line"/>
      <point x="473" y="82"/>
      <point x="462" y="97"/>
      <point x="441" y="97" type="curve"/>
      <point x="316" y="97" type="line"/>
      <point x="399" y="624" type="line"/>
      <point x="514" y="624" type="line"/>
      <point x="534" y="624"/>
      <point x="551" y="638"/>
      <point x="555" y="659" type="curve"/>
      <point x="559" y="685" type="line"/>
      <point x="562" y="706"/>
      <point x="549" y="720"/>
      <point x="529" y="720" type="curve"/>
    </contour>
    <contour>
      <point x="476" y="10" type="move" name="ogonek"/>
    </contour>
    <contour>
      <point x="361" y="720" type="move" name="top"/>
    </contour>
    <contour>
      <point x="93" y="720" type="move" name="topleft"/>
    </contour>
    <contour>
      <point x="247" y="0" type="move" name="bottom"/>
    </contour>
  </outline>
</glyph>
<glyph name="J" format="2">
	<advance width="575"/>
	<unicode hex="004A"/>
	<anchor x="247" y="0" name="bottom"/>
	<anchor x="361" y="720" name="top"/>
	<outline>
		<contour>
			<point x="538" y="720" type="curve" smooth="yes"/>
			<point x="270" y="720" type="line" smooth="yes"/>
			<point x="249" y="720"/>
			<point x="235" y="707"/>
			<point x="231" y="687" type="curve" smooth="yes"/>
			<point x="227" y="660" type="line" smooth="yes"/>
			<point x="224" y="637"/>
			<point x="236" y="624"/>
			<point x="258" y="624" type="curve" smooth="yes"/>
			<point x="454" y="624" type="line"/>
			<point x="401" y="287" type="line" smooth="yes"/>
			<point x="382" y="167"/>
			<point x="329" y="87"/>
			<point x="178" y="87" type="curve" smooth="yes"/>
			<point x="157" y="87"/>
			<point x="115" y="89"/>
			<point x="71" y="98" type="curve" smooth="yes"/>
			<point x="51" y="102"/>
			<point x="33" y="93"/>
			<point x="26" y="73" type="curve" smooth="yes"/>
			<point x="15" y="47" type="line" smooth="yes"/>
			<point x="5" y="25"/>
			<point x="13" y="7"/>
			<point x="36" y="3" type="curve" smooth="yes"/>
			<point x="89" y="-8"/>
			<point x="136" y="-10"/>
			<point x="166" y="-10" type="curve" smooth="yes"/>
			<point x="333" y="-10"/>
			<point x="470" y="54"/>
			<point x="506" y="283" type="curve" smooth="yes"/>
			<point x="569" y="683" type="line" smooth="yes"/>
			<point x="573" y="707"/>
			<point x="561" y="720"/>
		</contour>
	</outline>
</glyph>
<glyph name="K" format="2">
	<advance width="575"/>
	<unicode hex="004B"/>
	<outline>
		<contour>
			<point x="402" y="0" type="curve" smooth="yes"/>
			<point x="454" y="0" type="line" smooth="yes"/>
			<point x="483" y="0"/>
			<point x="499" y="24"/>
			<point x="484" y="47" type="curve" smooth="yes"/>
			<point x="314" y="334" type="line" smooth="yes"/>
			<point x="305" y="348"/>
			<point x="296" y="360"/>
			<point x="285" y="370" type="curve"/>
			<point x="300" y="379"/>
			<point x="314" y="392"/>
			<point x="327" y="407" type="curve" smooth="yes"/>
			<point x="569" y="674" type="line" smooth="yes"/>
			<point x="590" y="698"/>
			<point x="582" y="720"/>
			<point x="553" y="720" type="curve" smooth="yes"/>
			<point x="500" y="720" type="line" smooth="yes"/>
			<point x="484" y="720"/>
			<point x="471" y="715"/>
			<point x="459" y="701" type="curve" smooth="yes"/>
			<point x="204" y="410" type="line"/>
			<point x="247" y="685" type="line" smooth="yes"/>
			<point x="251" y="707"/>
			<point x="240" y="720"/>
			<point x="218" y="720" type="curve" smooth="yes"/>
			<point x="183" y="720" type="line" smooth="yes"/>
			<point x="162" y="720"/>
			<point x="146" y="706"/>
			<point x="142" y="685" type="curve" smooth="yes"/>
			<point x="39" y="35" type="line" smooth="yes"/>
			<point x="36" y="14"/>
			<point x="48" y="0"/>
			<point x="69" y="0" type="curve" smooth="yes"/>
			<point x="104" y="0" type="line" smooth="yes"/>
			<point x="127" y="0"/>
			<point x="141" y="14"/>
			<point x="144" y="35" type="curve" smooth="yes"/>
			<point x="191" y="331" type="line"/>
			<point x="367" y="20" type="line"/>
			<point x="373" y="7"/>
			<point x="385" y="0"/>
		</contour>
	</outline>
</glyph>
<glyph name="L" format="2">
	<advance width="575"/>
	<unicode hex="004C"/>
	<outline>
		<contour>
			<point x="505" y="97" type="curve"/>
			<point x="156" y="97" type="line"/>
			<point x="249" y="685" type="line"/>
			<point x="252" y="706"/>
			<point x="241" y="720"/>
			<point x="219" y="720" type="curve"/>
			<point x="184" y="720" type="line"/>
			<point x="164" y="720"/>
			<point x="147" y="705"/>
			<point x="144" y="685" type="curve"/>
			<point x="41" y="35" type="line"/>
			<point x="38" y="15"/>
			<point x="50" y="0"/>
			<point x="70" y="0" type="curve"/>
			<point x="489" y="0" type="line"/>
			<point x="510" y="0"/>
			<point x="527" y="15"/>
			<point x="530" y="35" type="curve"/>
			<point x="534" y="62" type="line"/>
			<point x="537" y="82"/>
			<point x="525" y="97"/>
		</contour>
	</outline>
</glyph>
<glyph name="N" format="1">
  <advance width="575"/>
  <unicode hex="004E"/>
  <outline>
    <contour>
      <point x="520" y="725" type="line" smooth="yes"/>
      <point x="500" y="725"/>
      <point x="482" y="710"/>
      <point x="479" y="689" type="curve" smooth="yes"/>
      <point x="402" y="201" type="line"/>
      <point x="247" y="683" type="line" smooth="yes"/>
      <point x="237" y="711"/>
      <point x="218" y="725"/>
      <point x="186" y="725" type="curve" smooth="yes"/>
      <point x="170" y="725" type="line" smooth="yes"/>
      <point x="147" y="725"/>
      <point x="131" y="712"/>
      <point x="127" y="690" type="curve" smooth="yes"/>
      <point x="24" y="36" type="line" smooth="yes"/>
      <point x="20" y="16"/>
      <point x="34" y="0"/>
      <point x="54" y="0" type="curve" smooth="yes"/>
      <point x="88" y="0" type="line" smooth="yes"/>
      <point x="108" y="0"/>
      <point x="125" y="15"/>
      <point x="129" y="36" type="curve" smooth="yes"/>
      <point x="204" y="515" type="line"/>
      <point x="360" y="41" type="line" smooth="yes"/>
      <point x="370" y="13"/>
      <point x="391" y="0"/>
      <point x="422" y="0" type="curve" smooth="yes"/>
      <point x="438" y="0" type="line" smooth="yes"/>
      <point x="461" y="0"/>
      <point x="477" y="13"/>
      <point x="480" y="35" type="curve" smooth="yes"/>
      <point x="584" y="689" type="line" smooth="yes"/>
      <point x="587" y="709"/>
      <point x="574" y="725"/>
      <point x="554" y="725" type="curve" smooth="yes"/>
    </contour>
  </outline>
</glyph>
<glyph name="O" format="1">
  <advance width="575"/>
  <unicode hex="004F"/>
  <outline>
    <contour>
      <point x="230" y="730"/>
      <point x="134" y="630"/>
      <point x="108" y="467" type="curve" smooth="yes"/>
      <point x="74" y="253" type="line" smooth="yes"/>
      <point x="48" y="90"/>
      <point x="113" y="-10"/>
      <point x="245" y="-10" type="curve" smooth="yes"/>
      <point x="376" y="-10"/>
      <point x="473" y="91"/>
      <point x="499" y="253" type="curve" smooth="yes"/>
      <point x="533" y="467" type="line" smooth="yes"/>
      <point x="558" y="629"/>
      <point x="493" y="730"/>
      <point x="362" y="730" type="curve" smooth="yes"/>
    </contour>
    <contour>
      <point x="196" y="86"/>
      <point x="163" y="153"/>
      <point x="179" y="253" type="curve" smooth="yes"/>
      <point x="213" y="467" type="line" smooth="yes"/>
      <point x="229" y="567"/>
      <point x="283" y="634"/>
      <point x="347" y="634" type="curve" smooth="yes"/>
      <point x="410" y="634"/>
      <point x="444" y="567"/>
      <point x="428" y="467" type="curve" smooth="yes"/>
      <point x="394" y="253" type="line" smooth="yes"/>
      <point x="378" y="153"/>
      <point x="323" y="86"/>
      <point x="260" y="86" type="curve" smooth="yes"/>
    </contour>
  </outline>
</glyph>
<glyph name="Q" format="1">
  <advance width="575"/>
  <unicode hex="0051"/>
  <outline>
    <contour>
      <point x="484" y="-128" type="line" smooth="yes"/>
      <point x="479" y="-109"/>
      <point x="461" y="-101"/>
      <point x="441" y="-109" type="curve"/>
      <point x="414" y="-118"/>
      <point x="392" y="-122"/>
      <point x="368" y="-122" type="curve" smooth="yes"/>
      <point x="315" y="-122"/>
      <point x="286" y="-97"/>
      <point x="302" y="4" type="curve" smooth="yes"/>
      <point x="311" y="63" type="line"/>
      <point x="205" y="63" type="line"/>
      <point x="196" y="4" type="line" smooth="yes"/>
      <point x="170" y="-163"/>
      <point x="255" y="-220"/>
      <point x="353" y="-220" type="curve" smooth="yes"/>
      <point x="389" y="-220"/>
      <point x="429" y="-212"/>
      <point x="464" y="-199" type="curve"/>
      <point x="486" y="-193"/>
      <point x="496" y="-173"/>
      <point x="491" y="-154" type="curve" smooth="yes"/>
    </contour>
    <component base="O"/>
  </outline>
</glyph>
<glyph name="S" format="2">
	<advance width="575"/>
	<unicode hex="0053"/>
	<outline>
		<contour>
			<point x="526" y="632" type="curve" smooth="yes"/>
			<point x="539" y="659" type="line" smooth="yes"/>
			<point x="550" y="681"/>
			<point x="548" y="693"/>
			<point x="530" y="702" type="curve" smooth="yes"/>
			<point x="494" y="719"/>
			<point x="439" y="730"/>
			<point x="390" y="730" type="curve" smooth="yes"/>
			<point x="240" y="730"/>
			<point x="112" y="636"/>
			<point x="112" y="499" type="curve" smooth="yes"/>
			<point x="112" y="408"/>
			<point x="176" y="343"/>
			<point x="291" y="318" type="curve" smooth="yes"/>
			<point x="367" y="302"/>
			<point x="409" y="265"/>
			<point x="409" y="212" type="curve" smooth="yes"/>
			<point x="409" y="137"/>
			<point x="323" y="89"/>
			<point x="228" y="89" type="curve" smooth="yes"/>
			<point x="187" y="89"/>
			<point x="140" y="97"/>
			<point x="110" y="110" type="curve" smooth="yes"/>
			<point x="92" y="118"/>
			<point x="73" y="111"/>
			<point x="62" y="91" type="curve" smooth="yes"/>
			<point x="48" y="67" type="line" smooth="yes"/>
			<point x="37" y="46"/>
			<point x="41" y="29"/>
			<point x="59" y="21" type="curve" smooth="yes"/>
			<point x="101" y="1"/>
			<point x="155" y="-10"/>
			<point x="207" y="-10" type="curve" smooth="yes"/>
			<point x="365" y="-10"/>
			<point x="517" y="89"/>
			<point x="517" y="231" type="curve" smooth="yes"/>
			<point x="517" y="327"/>
			<point x="446" y="396"/>
			<point x="320" y="423" type="curve" smooth="yes"/>
			<point x="257" y="437"/>
			<point x="220" y="474"/>
			<point x="220" y="521" type="curve" smooth="yes"/>
			<point x="220" y="587"/>
			<point x="294" y="634"/>
			<point x="375" y="634" type="curve" smooth="yes"/>
			<point x="406" y="634"/>
			<point x="440" y="627"/>
			<point x="480" y="612" type="curve" smooth="yes"/>
			<point x="497" y="604"/>
			<point x="517" y="611"/>
		</contour>
	</outline>
</glyph>
<glyph name="U" format="1">
  <advance width="575"/>
  <unicode hex="0055"/>
  <outline>
    <contour>
      <point x="389" y="223" type="line" smooth="yes"/>
      <point x="373" y="120"/>
      <point x="350" y="86"/>
      <point x="270" y="86" type="curve" smooth="yes"/>
      <point x="206" y="86"/>
      <point x="169" y="108"/>
      <point x="169" y="169" type="curve" smooth="yes"/>
      <point x="169" y="185"/>
      <point x="171" y="202"/>
      <point x="174" y="223" type="curve" smooth="yes"/>
      <point x="247" y="685" type="line" smooth="yes"/>
      <point x="251" y="706"/>
      <point x="239" y="720"/>
      <point x="218" y="720" type="curve" smooth="yes"/>
      <point x="183" y="720" type="line" smooth="yes"/>
      <point x="161" y="720"/>
      <point x="146" y="706"/>
      <point x="142" y="685" type="curve" smooth="yes"/>
      <point x="69" y="223" type="line" smooth="yes"/>
      <point x="66" y="201"/>
      <point x="64" y="180"/>
      <point x="64" y="161" type="curve" smooth="yes"/>
      <point x="64" y="48"/>
      <point x="134" y="-10"/>
      <point x="255" y="-10" type="curve" smooth="yes"/>
      <point x="396" y="-10"/>
      <point x="470" y="68"/>
      <point x="494" y="223" type="curve" smooth="yes"/>
      <point x="567" y="685" type="line" smooth="yes"/>
      <point x="571" y="706"/>
      <point x="559" y="720"/>
      <point x="538" y="720" type="curve" smooth="yes"/>
      <point x="503" y="720" type="line" smooth="yes"/>
      <point x="481" y="720"/>
      <point x="466" y="706"/>
      <point x="462" y="685" type="curve" smooth="yes"/>
    </contour>
    <contour>
      <point x="476" y="10" type="move" name="ogonek"/>
    </contour>
    <contour>
      <point x="361" y="720" type="move" name="top"/>
    </contour>
    <contour>
      <point x="628" y="720" type="move" name="topright"/>
    </contour>
    <contour>
      <point x="247" y="0" type="move" name="bottom"/>
    </contour>
  </outline>
</glyph>
<glyph name="V" format="1">
  <advance width="575"/>
  <unicode hex="0056"/>
  <outline>
    <contour>
      <point x="634" y="680" type="line"/>
      <point x="644" y="702"/>
      <point x="634" y="720"/>
      <point x="610" y="720" type="curve" smooth="yes"/>
      <point x="574" y="720" type="line" smooth="yes"/>
      <point x="554" y="720"/>
      <point x="540" y="710"/>
      <point x="532" y="691" type="curve" smooth="yes"/>
      <point x="293" y="105" type="line" smooth="yes"/>
      <point x="288" y="94"/>
      <point x="275" y="86"/>
      <point x="260" y="86" type="curve" smooth="yes"/>
      <point x="245" y="86"/>
      <point x="235" y="94"/>
      <point x="234" y="105" type="curve" smooth="yes"/>
      <point x="180" y="690" type="line"/>
      <point x="179" y="709"/>
      <point x="167" y="720"/>
      <point x="147" y="720" type="curve" smooth="yes"/>
      <point x="112" y="720" type="line" smooth="yes"/>
      <point x="88" y="720"/>
      <point x="72" y="703"/>
      <point x="74" y="680" type="curve" smooth="yes"/>
      <point x="128" y="87" type="line" smooth="yes"/>
      <point x="134" y="27"/>
      <point x="186" y="-10"/>
      <point x="252" y="-10" type="curve" smooth="yes"/>
      <point x="319" y="-10"/>
      <point x="368" y="27"/>
      <point x="392" y="87" type="curve" smooth="yes"/>
    </contour>
  </outline>
</glyph>
<glyph name="X" format="2">
	<advance width="575"/>
	<unicode hex="0058"/>
	<outline>
		<contour>
			<point x="425" y="396" type="curve" smooth="yes"/>
			<point x="605" y="677" type="line"/>
			<point x="620" y="699"/>
			<point x="608" y="720"/>
			<point x="584" y="720" type="curve" smooth="yes"/>
			<point x="553" y="720" type="line" smooth="yes"/>
			<point x="537" y="720"/>
			<point x="520" y="712"/>
			<point x="511" y="696" type="curve"/>
			<point x="338" y="433" type="line" smooth="yes"/>
			<point x="326" y="415"/>
			<point x="319" y="410"/>
			<point x="313" y="410" type="curve" smooth="yes"/>
			<point x="306" y="410"/>
			<point x="301" y="416"/>
			<point x="296" y="433" type="curve" smooth="yes"/>
			<point x="206" y="696" type="line"/>
			<point x="201" y="712"/>
			<point x="188" y="720"/>
			<point x="171" y="720" type="curve" smooth="yes"/>
			<point x="140" y="720" type="line" smooth="yes"/>
			<point x="114" y="720"/>
			<point x="99" y="698"/>
			<point x="106" y="677" type="curve" smooth="yes"/>
			<point x="197" y="396" type="line" smooth="yes"/>
			<point x="200" y="385"/>
			<point x="208" y="375"/>
			<point x="218" y="367" type="curve"/>
			<point x="205" y="360"/>
			<point x="195" y="349"/>
			<point x="188" y="339" type="curve" smooth="yes"/>
			<point x="-2" y="44" type="line"/>
			<point x="-15" y="21"/>
			<point x="-5" y="0"/>
			<point x="19" y="0" type="curve" smooth="yes"/>
			<point x="50" y="0" type="line" smooth="yes"/>
			<point x="67" y="0"/>
			<point x="83" y="9"/>
			<point x="92" y="24" type="curve" smooth="yes"/>
			<point x="275" y="301" type="line"/>
			<point x="286" y="319"/>
			<point x="293" y="325"/>
			<point x="300" y="325" type="curve" smooth="yes"/>
			<point x="306" y="325"/>
			<point x="311" y="319"/>
			<point x="317" y="301" type="curve" smooth="yes"/>
			<point x="411" y="24" type="line" smooth="yes"/>
			<point x="416" y="9"/>
			<point x="429" y="0"/>
			<point x="446" y="0" type="curve" smooth="yes"/>
			<point x="477" y="0" type="line" smooth="yes"/>
			<point x="502" y="0"/>
			<point x="518" y="21"/>
			<point x="511" y="44" type="curve"/>
			<point x="416" y="339" type="line" smooth="yes"/>
			<point x="413" y="349"/>
			<point x="404" y="360"/>
			<point x="395" y="367" type="curve"/>
			<point x="407" y="375"/>
			<point x="418" y="385"/>
		</contour>
	</outline>
</glyph>
<glyph name="Y" format="1">
  <advance width="575"/>
  <unicode hex="0059"/>
  <outline>
    <contour>
      <point x="570" y="720" type="line"/>
      <point x="554" y="720"/>
      <point x="538" y="712"/>
      <point x="528" y="696" type="curve"/>
      <point x="349" y="424" type="line"/>
      <point x="338" y="408"/>
      <point x="326" y="400"/>
      <point x="312" y="400" type="curve"/>
      <point x="297" y="400"/>
      <point x="288" y="408"/>
      <point x="282" y="425" type="curve"/>
      <point x="189" y="696" type="line"/>
      <point x="184" y="712"/>
      <point x="171" y="720"/>
      <point x="154" y="720" type="curve"/>
      <point x="117" y="720" type="line"/>
      <point x="93" y="720"/>
      <point x="75" y="699"/>
      <point x="84" y="676" type="curve"/>
      <point x="183" y="386" type="line"/>
      <point x="193" y="353"/>
      <point x="216" y="329"/>
      <point x="246" y="318" type="curve"/>
      <point x="201" y="35" type="line"/>
      <point x="198" y="15"/>
      <point x="210" y="0"/>
      <point x="230" y="0" type="curve"/>
      <point x="265" y="0" type="line"/>
      <point x="286" y="0"/>
      <point x="303" y="15"/>
      <point x="306" y="35" type="curve"/>
      <point x="351" y="318" type="line"/>
      <point x="384" y="329"/>
      <point x="415" y="353"/>
      <point x="435" y="386" type="curve"/>
      <point x="627" y="677" type="line"/>
      <point x="641" y="698"/>
      <point x="632" y="720"/>
      <point x="606" y="720" type="curve"/>
    </contour>
  </outline>
</glyph>
<glyph name="Z" format="2">
	<advance width="575"/>
	<unicode hex="005A"/>
	<outline>
		<contour>
			<point x="198" y="220" type="curve"/>
			<point x="474" y="458" type="line"/>
			<point x="533" y="508"/>
			<point x="572" y="580"/>
			<point x="584" y="655" type="curve"/>
			<point x="589" y="685" type="line"/>
			<point x="592" y="706"/>
			<point x="580" y="720"/>
			<point x="559" y="720" type="curve"/>
			<point x="195" y="720" type="line"/>
			<point x="175" y="720"/>
			<point x="158" y="706"/>
			<point x="155" y="685" type="curve"/>
			<point x="151" y="659" type="line"/>
			<point x="148" y="639"/>
			<point x="160" y="624"/>
			<point x="180" y="624" type="curve"/>
			<point x="472" y="624" type="line"/>
			<point x="461" y="578"/>
			<point x="441" y="543"/>
			<point x="416" y="521" type="curve"/>
			<point x="139" y="282" type="line"/>
			<point x="80" y="232"/>
			<point x="40" y="154"/>
			<point x="26" y="65" type="curve"/>
			<point x="21" y="35" type="line"/>
			<point x="18" y="15"/>
			<point x="30" y="0"/>
			<point x="50" y="0" type="curve"/>
			<point x="445" y="0" type="line"/>
			<point x="465" y="0"/>
			<point x="483" y="15"/>
			<point x="486" y="35" type="curve"/>
			<point x="490" y="62" type="line"/>
			<point x="493" y="82"/>
			<point x="481" y="97"/>
			<point x="461" y="97" type="curve"/>
			<point x="137" y="97" type="line"/>
			<point x="150" y="154"/>
			<point x="170" y="196"/>
		</contour>
	</outline>
</glyph>
<glyph name="bracketleft" format="1">
  <advance width="575"/>
  <unicode hex="005B"/>
  <outline>
    <contour>
      <point x="191" y="-82" type="line"/>
      <point x="311" y="674" type="line"/>
      <point x="536" y="674" type="line"/>
      <point x="557" y="674"/>
      <point x="573" y="688"/>
      <point x="576" y="709" type="curve"/>
      <point x="580" y="735" type="line"/>
      <point x="584" y="756"/>
      <point x="571" y="770"/>
      <point x="551" y="770" type="curve"/>
      <point x="256" y="770" type="line"/>
      <point x="236" y="770"/>
      <point x="218" y="755"/>
      <point x="215" y="735" type="curve"/>
      <point x="76" y="-143" type="line"/>
      <point x="73" y="-164"/>
      <point x="86" y="-178"/>
      <point x="106" y="-178" type="curve"/>
      <point x="401" y="-178" type="line"/>
      <point x="422" y="-178"/>
      <point x="438" y="-164"/>
      <point x="441" y="-143" type="curve"/>
      <point x="445" y="-117" type="line"/>
      <point x="448" y="-97"/>
      <point x="436" y="-82"/>
      <point x="416" y="-82" type="curve"/>
    </contour>
  </outline>
</glyph>
<glyph name="backslash" format="1">
  <advance width="575"/>
  <unicode hex="005C"/>
  <outline>
    <contour>
      <point x="198" y="686" type="line"/>
      <point x="192" y="704"/>
      <point x="173" y="711"/>
      <point x="154" y="702" type="curve"/>
      <point x="120" y="686" type="line"/>
      <point x="100" y="677"/>
      <point x="91" y="657"/>
      <point x="97" y="640" type="curve"/>
      <point x="379" y="-186" type="line"/>
      <point x="385" y="-204"/>
      <point x="404" y="-211"/>
      <point x="423" y="-202" type="curve"/>
      <point x="457" y="-186" type="line"/>
      <point x="477" y="-177"/>
      <point x="486" y="-157"/>
      <point x="480" y="-140" type="curve"/>
    </contour>
  </outline>
</glyph>
<glyph name="bracketright" format="2">
	<advance width="575"/>
	<unicode hex="005D"/>
	<outline>
		<contour>
			<point x="481" y="770" type="curve"/>
			<point x="186" y="770" type="line"/>
			<point x="166" y="770"/>
			<point x="149" y="756"/>
			<point x="145" y="735" type="curve"/>
			<point x="141" y="709" type="line"/>
			<point x="138" y="689"/>
			<point x="150" y="674"/>
			<point x="171" y="674" type="curve"/>
			<point x="396" y="674" type="line"/>
			<point x="276" y="-82" type="line"/>
			<point x="51" y="-82" type="line"/>
			<point x="31" y="-82"/>
			<point x="14" y="-96"/>
			<point x="10" y="-117" type="curve"/>
			<point x="6" y="-143" type="line"/>
			<point x="3" y="-164"/>
			<point x="16" y="-178"/>
			<point x="36" y="-178" type="curve"/>
			<point x="331" y="-178" type="line"/>
			<point x="352" y="-178"/>
			<point x="368" y="-163"/>
			<point x="371" y="-143" type="curve"/>
			<point x="510" y="735" type="line"/>
			<point x="514" y="756"/>
			<point x="501" y="770"/>
		</contour>
	</outline>
</glyph>
<glyph name="asciicircum" format="1">
  <advance width="575"/>
  <unicode hex="005E"/>
  <outline>
    <contour>
      <point x="62" y="507" type="line"/>
      <point x="44" y="490"/>
      <point x="42" y="471"/>
      <point x="57" y="456" type="curve" smooth="yes"/>
      <point x="77" y="436" type="line" smooth="yes"/>
      <point x="91" y="421"/>
      <point x="109" y="421"/>
      <point x="126" y="437" type="curve" smooth="yes"/>
      <point x="340" y="626" type="line"/>
      <point x="344" y="630"/>
      <point x="348" y="632"/>
      <point x="350" y="632" type="curve" smooth="yes"/>
      <point x="352" y="632"/>
      <point x="353" y="632"/>
      <point x="356" y="627" type="curve"/>
      <point x="510" y="438" type="line" smooth="yes"/>
      <point x="524" y="421"/>
      <point x="542" y="421"/>
      <point x="560" y="435" type="curve" smooth="yes"/>
      <point x="585" y="455" type="line" smooth="yes"/>
      <point x="604" y="470"/>
      <point x="607" y="490"/>
      <point x="592" y="506" type="curve"/>
      <point x="433" y="689" type="line"/>
      <point x="415" y="708"/>
      <point x="396" y="729"/>
      <point x="362" y="729" type="curve" smooth="yes"/>
      <point x="328" y="729"/>
      <point x="305" y="710"/>
      <point x="280" y="690" type="curve" smooth="yes"/>
    </contour>
  </outline>
</glyph>
<glyph name="underscore" format="1">
  <advance width="575"/>
  <unicode hex="005F"/>
  <outline>
    <contour>
      <point x="-10" y="-62" type="line"/>
      <point x="-13" y="-82"/>
      <point x="-1" y="-97"/>
      <point x="19" y="-97" type="curve"/>
      <point x="442" y="-97" type="line"/>
      <point x="463" y="-97"/>
      <point x="480" y="-82"/>
      <point x="483" y="-62" type="curve"/>
      <point x="487" y="-35" type="line"/>
      <point x="490" y="-15"/>
      <point x="478" y="0"/>
      <point x="458" y="0" type="curve"/>
      <point x="35" y="0" type="line"/>
      <point x="15" y="0"/>
      <point x="-3" y="-15"/>
      <point x="-6" y="-35" type="curve"/>
    </contour>
  </outline>
</glyph>
<glyph name="grave" format="1">
  <advance width="575"/>
  <unicode hex="0060"/>
  <outline>
    <contour>
      <point x="486" y="577"/>
      <point x="484" y="588"/>
      <point x="470" y="595" type="curve" smooth="yes"/>
      <point x="277" y="696" type="line" smooth="yes"/>
      <point x="263" y="703"/>
      <point x="250" y="699"/>
      <point x="242" y="684" type="curve" smooth="yes"/>
      <point x="212" y="638" type="line" smooth="yes"/>
      <point x="203" y="623"/>
      <point x="206" y="611"/>
      <point x="221" y="606" type="curve" smooth="yes"/>
      <point x="432" y="531" type="line" smooth="yes"/>
      <point x="445" y="526"/>
      <point x="456" y="530"/>
      <point x="467" y="544" type="curve"/>
      <point x="478" y="562" type="line"/>
    </contour>
    <contour>
      <point x="328" y="500" type="move" name="_top"/>
    </contour>
  </outline>
</glyph>
<glyph name="a" format="1">
  <advance width="575"/>
  <unicode hex="0061"/>
  <outline>
    <contour>
      <point x="532" y="479" type="line" smooth="yes"/>
      <point x="536" y="500"/>
      <point x="525" y="516"/>
      <point x="503" y="520" type="curve" smooth="yes"/>
      <point x="502" y="520" type="line" smooth="yes"/>
      <point x="441" y="528"/>
      <point x="386" y="530"/>
      <point x="357" y="530" type="curve" smooth="yes"/>
      <point x="172" y="530"/>
      <point x="67" y="410"/>
      <point x="67" y="199" type="curve" smooth="yes"/>
      <point x="67" y="60"/>
      <point x="115" y="-10"/>
      <point x="212" y="-10" type="curve" smooth="yes"/>
      <point x="260" y="-10"/>
      <point x="313" y="11"/>
      <point x="367" y="78" type="curve"/>
      <point x="359" y="37" type="line" smooth="yes"/>
      <point x="355" y="15"/>
      <point x="367" y="0"/>
      <point x="390" y="0" type="curve" smooth="yes"/>
      <point x="427" y="0" type="line" smooth="yes"/>
      <point x="447" y="0"/>
      <point x="461" y="15"/>
      <point x="464" y="39" type="curve" smooth="yes"/>
    </contour>
    <contour>
      <point x="379" y="166" type="line"/>
      <point x="331" y="115"/>
      <point x="281" y="86"/>
      <point x="242" y="86" type="curve" smooth="yes"/>
      <point x="194" y="86"/>
      <point x="173" y="122"/>
      <point x="173" y="214" type="curve" smooth="yes"/>
      <point x="173" y="356"/>
      <point x="233" y="434"/>
      <point x="345" y="434" type="curve" smooth="yes"/>
      <point x="361" y="434"/>
      <point x="388" y="433"/>
      <point x="421" y="431" type="curve"/>
    </contour>
    <contour>
      <point x="338" y="570" type="move" name="top"/>
    </contour>
  </outline>
</glyph>
<glyph name="b" format="1">
  <advance width="575"/>
  <unicode hex="0062"/>
  <outline>
    <contour>
      <point x="38" y="41" type="line" smooth="yes"/>
      <point x="35" y="19"/>
      <point x="46" y="4"/>
      <point x="67" y="0" type="curve" smooth="yes"/>
      <point x="68" y="0" type="line" smooth="yes"/>
      <point x="129" y="-8"/>
      <point x="184" y="-10"/>
      <point x="213" y="-10" type="curve" smooth="yes"/>
      <point x="402" y="-10"/>
      <point x="503" y="105"/>
      <point x="503" y="320" type="curve" smooth="yes"/>
      <point x="503" y="454"/>
      <point x="451" y="530"/>
      <point x="358" y="530" type="curve" smooth="yes"/>
      <point x="310" y="530"/>
      <point x="257" y="509"/>
      <point x="203" y="452" type="curve"/>
      <point x="250" y="733" type="line" smooth="yes"/>
      <point x="253" y="755"/>
      <point x="242" y="770"/>
      <point x="219" y="770" type="curve" smooth="yes"/>
      <point x="182" y="770" type="line" smooth="yes"/>
      <point x="162" y="770"/>
      <point x="148" y="755"/>
      <point x="145" y="731" type="curve" smooth="yes"/>
    </contour>
    <contour>
      <point x="191" y="354" type="line"/>
      <point x="239" y="405"/>
      <point x="289" y="434"/>
      <point x="328" y="434" type="curve" smooth="yes"/>
      <point x="374" y="434"/>
      <point x="397" y="392"/>
      <point x="397" y="305" type="curve" smooth="yes"/>
      <point x="397" y="159"/>
      <point x="340" y="86"/>
      <point x="225" y="86" type="curve" smooth="yes"/>
      <point x="209" y="86"/>
      <point x="182" y="87"/>
      <point x="149" y="89" type="curve"/>
    </contour>
  </outline>
</glyph>
<glyph name="c" format="1">
  <advance width="575"/>
  <unicode hex="0063"/>
  <outline>
    <contour>
      <point x="531" y="452" type="line" smooth="yes"/>
      <point x="543" y="472"/>
      <point x="538" y="491"/>
      <point x="518" y="499" type="curve" smooth="yes"/>
      <point x="475" y="519"/>
      <point x="422" y="530"/>
      <point x="369" y="530" type="curve" smooth="yes"/>
      <point x="193" y="530"/>
      <point x="70" y="398"/>
      <point x="70" y="212" type="curve" smooth="yes"/>
      <point x="70" y="70"/>
      <point x="149" y="-10"/>
      <point x="287" y="-10" type="curve" smooth="yes"/>
      <point x="340" y="-10"/>
      <point x="394" y="0"/>
      <point x="446" y="21" type="curve" smooth="yes"/>
      <point x="465" y="28"/>
      <point x="474" y="44"/>
      <point x="470" y="65" type="curve"/>
      <point x="464" y="89" type="line" smooth="yes"/>
      <point x="458" y="111"/>
      <point x="441" y="118"/>
      <point x="420" y="110" type="curve"/>
      <point x="373" y="95"/>
      <point x="338" y="88"/>
      <point x="299" y="88" type="curve" smooth="yes"/>
      <point x="215" y="88"/>
      <point x="176" y="130"/>
      <point x="176" y="221" type="curve" smooth="yes"/>
      <point x="176" y="349"/>
      <point x="247" y="432"/>
      <point x="357" y="432" type="curve" smooth="yes"/>
      <point x="397" y="432"/>
      <point x="431" y="425"/>
      <point x="470" y="410" type="curve" smooth="yes"/>
      <point x="489" y="402"/>
      <point x="506" y="409"/>
      <point x="517" y="428" type="curve"/>
    </contour>
    <contour>
      <point x="371" y="570" type="move" name="top"/>
    </contour>
    <contour>
      <point x="259" y="0" type="move" name="bottom"/>
    </contour>
  </outline>
</glyph>
<glyph name="d" format="1">
  <advance width="575"/>
  <unicode hex="0064"/>
  <outline>
    <contour>
      <point x="508" y="770" type="line" smooth="yes"/>
      <point x="488" y="770"/>
      <point x="473" y="758"/>
      <point x="469" y="737" type="curve" smooth="yes"/>
      <point x="437" y="527" type="line"/>
      <point x="404" y="529"/>
      <point x="375" y="530"/>
      <point x="357" y="530" type="curve" smooth="yes"/>
      <point x="168" y="530"/>
      <point x="67" y="415"/>
      <point x="67" y="200" type="curve" smooth="yes"/>
      <point x="67" y="66"/>
      <point x="119" y="-10"/>
      <point x="212" y="-10" type="curve" smooth="yes"/>
      <point x="260" y="-10"/>
      <point x="313" y="11"/>
      <point x="365" y="68" type="curve"/>
      <point x="359" y="37" type="line" smooth="yes"/>
      <point x="355" y="15"/>
      <point x="367" y="0"/>
      <point x="390" y="0" type="curve" smooth="yes"/>
      <point x="427" y="0" type="line" smooth="yes"/>
      <point x="447" y="0"/>
      <point x="461" y="15"/>
      <point x="464" y="39" type="curve" smooth="yes"/>
      <point x="574" y="733" type="line" smooth="yes"/>
      <point x="578" y="755"/>
      <point x="566" y="770"/>
      <point x="543" y="770" type="curve" smooth="yes"/>
    </contour>
    <contour>
      <point x="331" y="115"/>
      <point x="281" y="86"/>
      <point x="242" y="86" type="curve" smooth="yes"/>
      <point x="196" y="86"/>
      <point x="173" y="128"/>
      <point x="173" y="215" type="curve" smooth="yes"/>
      <point x="173" y="361"/>
      <point x="230" y="434"/>
      <point x="345" y="434" type="curve" smooth="yes"/>
      <point x="361" y="434"/>
      <point x="388" y="433"/>
      <point x="421" y="431" type="curve"/>
      <point x="379" y="166" type="line"/>
    </contour>
    <contour>
      <point x="247" y="0" type="move" name="bottom"/>
    </contour>
    <contour>
      <point x="439" y="520" type="move" name="top"/>
    </contour>
    <contour>
      <point x="596" y="520" type="move" name="topright"/>
    </contour>
    <contour>
      <point x="288" y="260" type="move" name="center"/>
    </contour>
  </outline>
</glyph>
<glyph name="f" format="1">
  <advance width="575"/>
  <unicode hex="0066"/>
  <outline>
    <contour>
      <point x="227" y="520" type="line"/>
      <point x="140" y="520" type="line" smooth="yes"/>
      <point x="120" y="520"/>
      <point x="104" y="506"/>
      <point x="101" y="486" type="curve" smooth="yes"/>
      <point x="97" y="461" type="line" smooth="yes"/>
      <point x="93" y="439"/>
      <point x="108" y="424"/>
      <point x="128" y="424" type="curve" smooth="yes"/>
      <point x="212" y="424" type="line"/>
      <point x="146" y="12" type="line" smooth="yes"/>
      <point x="134" y="-65"/>
      <point x="116" y="-90"/>
      <point x="51" y="-125" type="curve" smooth="yes"/>
      <point x="33" y="-134"/>
      <point x="23" y="-154"/>
      <point x="32" y="-173" type="curve"/>
      <point x="44" y="-203" type="line" smooth="yes"/>
      <point x="52" y="-222"/>
      <point x="73" y="-227"/>
      <point x="92" y="-217" type="curve" smooth="yes"/>
      <point x="199" y="-160"/>
      <point x="233" y="-113"/>
      <point x="251" y="9" type="curve" smooth="yes"/>
      <point x="318" y="424" type="line"/>
      <point x="473" y="424" type="line" smooth="yes"/>
      <point x="493" y="424"/>
      <point x="508" y="438"/>
      <point x="512" y="457" type="curve" smooth="yes"/>
      <point x="516" y="483" type="line" smooth="yes"/>
      <point x="518" y="504"/>
      <point x="506" y="520"/>
      <point x="485" y="520" type="curve" smooth="yes"/>
      <point x="334" y="520" type="line"/>
      <point x="339" y="558" type="line" smooth="yes"/>
      <point x="355" y="659"/>
      <point x="394" y="685"/>
      <point x="447" y="685" type="curve" smooth="yes"/>
      <point x="471" y="685"/>
      <point x="491" y="681"/>
      <point x="516" y="672" type="curve"/>
      <point x="534" y="664"/>
      <point x="553" y="672"/>
      <point x="564" y="690" type="curve" smooth="yes"/>
      <point x="579" y="716" type="line" smooth="yes"/>
      <point x="588" y="734"/>
      <point x="585" y="756"/>
      <point x="564" y="762" type="curve"/>
      <point x="533" y="775"/>
      <point x="495" y="783"/>
      <point x="459" y="783" type="curve" smooth="yes"/>
      <point x="361" y="783"/>
      <point x="260" y="726"/>
      <point x="233" y="561" type="curve" smooth="yes"/>
    </contour>
  </outline>
</glyph>
<glyph name="g" format="2">
	<advance width="575"/>
	<unicode hex="0067"/>
	<anchor x="259" y="0" name="bottom"/>
	<anchor x="351" y="570" name="top"/>
	<outline>
		<contour>
			<point x="366" y="68" type="curve"/>
			<point x="349" y="-27" type="line" smooth="yes"/>
			<point x="334" y="-121"/>
			<point x="300" y="-155"/>
			<point x="222" y="-155" type="curve" smooth="yes"/>
			<point x="186" y="-155"/>
			<point x="142" y="-148"/>
			<point x="90" y="-140" type="curve" smooth="yes"/>
			<point x="68" y="-137"/>
			<point x="51" y="-149"/>
			<point x="47" y="-169" type="curve" smooth="yes"/>
			<point x="42" y="-195" type="line" smooth="yes"/>
			<point x="37" y="-220"/>
			<point x="45" y="-233"/>
			<point x="67" y="-236" type="curve" smooth="yes"/>
			<point x="121" y="-242"/>
			<point x="172" y="-250"/>
			<point x="221" y="-250" type="curve" smooth="yes"/>
			<point x="358" y="-250"/>
			<point x="428" y="-184"/>
			<point x="453" y="-30" type="curve" smooth="yes"/>
			<point x="532" y="479" type="line" smooth="yes"/>
			<point x="535" y="501"/>
			<point x="524" y="516"/>
			<point x="503" y="520" type="curve"/>
			<point x="502" y="520" type="line"/>
			<point x="441" y="528"/>
			<point x="386" y="530"/>
			<point x="357" y="530" type="curve" smooth="yes"/>
			<point x="168" y="530"/>
			<point x="67" y="415"/>
			<point x="67" y="200" type="curve" smooth="yes"/>
			<point x="67" y="66"/>
			<point x="119" y="-10"/>
			<point x="212" y="-10" type="curve" smooth="yes"/>
			<point x="260" y="-10"/>
			<point x="313" y="11"/>
		</contour>
		<contour>
			<point x="421" y="431" type="curve"/>
			<point x="379" y="166" type="line"/>
			<point x="331" y="115"/>
			<point x="281" y="86"/>
			<point x="242" y="86" type="curve" smooth="yes"/>
			<point x="196" y="86"/>
			<point x="173" y="128"/>
			<point x="173" y="215" type="curve" smooth="yes"/>
			<point x="173" y="361"/>
			<point x="230" y="434"/>
			<point x="345" y="434" type="curve" smooth="yes"/>
			<point x="361" y="434"/>
			<point x="388" y="433"/>
		</contour>
	</outline>
</glyph>
<glyph name="i" format="1">
  <advance width="575"/>
  <unicode hex="0069"/>
  <outline>
    <contour>
      <point x="377" y="644" type="line" smooth="yes"/>
      <point x="399" y="644"/>
      <point x="413" y="656"/>
      <point x="416" y="678" type="curve" smooth="yes"/>
      <point x="427" y="743" type="line" smooth="yes"/>
      <point x="431" y="766"/>
      <point x="419" y="780"/>
      <point x="396" y="780" type="curve" smooth="yes"/>
      <point x="331" y="780" type="line" smooth="yes"/>
      <point x="310" y="780"/>
      <point x="295" y="767"/>
      <point x="292" y="746" type="curve" smooth="yes"/>
      <point x="281" y="681" type="line"/>
      <point x="278" y="658"/>
      <point x="290" y="644"/>
      <point x="312" y="644" type="curve" smooth="yes"/>
    </contour>
    <component base="dotlessi"/>
  </outline>
</glyph>
<glyph name="k" format="2">
	<advance width="575"/>
	<unicode hex="006B"/>
	<anchor x="259" y="0" name="bottom"/>
	<anchor x="341" y="570" name="top"/>
	<outline>
		<contour>
			<point x="489" y="415" type="curve" smooth="yes"/>
			<point x="500" y="487"/>
			<point x="450" y="530"/>
			<point x="367" y="530" type="curve" smooth="yes"/>
			<point x="313" y="530"/>
			<point x="260" y="511"/>
			<point x="215" y="477" type="curve"/>
			<point x="256" y="733" type="line" smooth="yes"/>
			<point x="260" y="755"/>
			<point x="248" y="770"/>
			<point x="225" y="770" type="curve" smooth="yes"/>
			<point x="190" y="770" type="line" smooth="yes"/>
			<point x="170" y="770"/>
			<point x="155" y="758"/>
			<point x="151" y="737" type="curve" smooth="yes"/>
			<point x="40" y="37" type="line" smooth="yes"/>
			<point x="37" y="14"/>
			<point x="49" y="0"/>
			<point x="71" y="0" type="curve" smooth="yes"/>
			<point x="106" y="0" type="line" smooth="yes"/>
			<point x="127" y="0"/>
			<point x="142" y="13"/>
			<point x="145" y="34" type="curve" smooth="yes"/>
			<point x="203" y="399" type="line"/>
			<point x="244" y="419"/>
			<point x="296" y="433"/>
			<point x="332" y="433" type="curve" smooth="yes"/>
			<point x="365" y="433"/>
			<point x="379" y="423"/>
			<point x="375" y="404" type="curve"/>
			<point x="370" y="368"/>
			<point x="309" y="309"/>
			<point x="221" y="257" type="curve" smooth="yes"/>
			<point x="199" y="243"/>
			<point x="194" y="223"/>
			<point x="209" y="206" type="curve"/>
			<point x="208" y="207" type="line"/>
			<point x="355" y="17" type="line"/>
			<point x="356" y="16" type="line"/>
			<point x="366" y="5"/>
			<point x="377" y="0"/>
			<point x="392" y="0" type="curve" smooth="yes"/>
			<point x="450" y="0" type="line" smooth="yes"/>
			<point x="482" y="0"/>
			<point x="495" y="25"/>
			<point x="476" y="48" type="curve"/>
			<point x="476" y="47" type="line"/>
			<point x="334" y="227" type="line"/>
			<point x="417" y="276"/>
			<point x="478" y="349"/>
		</contour>
	</outline>
</glyph>
<glyph name="m" format="1">
  <advance width="575"/>
  <unicode hex="006D"/>
  <outline>
    <contour>
      <point x="182" y="483" type="line" smooth="yes"/>
      <point x="185" y="506"/>
      <point x="173" y="520"/>
      <point x="151" y="520" type="curve" smooth="yes"/>
      <point x="114" y="520" type="line" smooth="yes"/>
      <point x="94" y="520"/>
      <point x="79" y="504"/>
      <point x="76" y="481" type="curve" smooth="yes"/>
      <point x="5" y="37" type="line" smooth="yes"/>
      <point x="2" y="14"/>
      <point x="14" y="0"/>
      <point x="36" y="0" type="curve" smooth="yes"/>
      <point x="71" y="0" type="line" smooth="yes"/>
      <point x="92" y="0"/>
      <point x="107" y="13"/>
      <point x="110" y="34" type="curve" smooth="yes"/>
      <point x="162" y="363" type="line"/>
      <point x="217" y="404"/>
      <point x="241" y="418"/>
      <point x="252" y="418" type="curve" smooth="yes"/>
      <point x="255" y="418"/>
      <point x="257" y="406"/>
      <point x="251" y="369" type="curve" smooth="yes"/>
      <point x="198" y="37" type="line" smooth="yes"/>
      <point x="195" y="14"/>
      <point x="207" y="0"/>
      <point x="229" y="0" type="curve" smooth="yes"/>
      <point x="264" y="0" type="line" smooth="yes"/>
      <point x="286" y="0"/>
      <point x="300" y="12"/>
      <point x="303" y="34" type="curve" smooth="yes"/>
      <point x="355" y="361" type="line"/>
      <point x="409" y="402"/>
      <point x="435" y="418"/>
      <point x="447" y="418" type="curve" smooth="yes"/>
      <point x="450" y="418"/>
      <point x="452" y="406"/>
      <point x="446" y="369" type="curve" smooth="yes"/>
      <point x="393" y="37" type="line" smooth="yes"/>
      <point x="390" y="14"/>
      <point x="402" y="0"/>
      <point x="424" y="0" type="curve" smooth="yes"/>
      <point x="459" y="0" type="line" smooth="yes"/>
      <point x="481" y="0"/>
      <point x="495" y="12"/>
      <point x="498" y="34" type="curve"/>
      <point x="550" y="356" type="line" smooth="yes"/>
      <point x="567" y="470"/>
      <point x="550" y="527"/>
      <point x="496" y="527" type="curve" smooth="yes"/>
      <point x="464" y="527"/>
      <point x="420" y="505"/>
      <point x="355" y="439" type="curve"/>
      <point x="355" y="503"/>
      <point x="335" y="527"/>
      <point x="301" y="527" type="curve" smooth="yes"/>
      <point x="272" y="527"/>
      <point x="231" y="508"/>
      <point x="175" y="450" type="curve"/>
    </contour>
    <contour>
      <point x="341" y="570" type="move" name="top"/>
    </contour>
    <contour>
      <point x="259" y="0" type="move" name="bottom"/>
    </contour>
  </outline>
</glyph>
<glyph name="o" format="1">
  <advance width="575"/>
  <unicode hex="006F"/>
  <outline>
    <contour>
      <point x="182" y="532"/>
      <point x="69" y="386"/>
      <point x="69" y="199" type="curve" smooth="yes"/>
      <point x="69" y="67"/>
      <point x="137" y="-12"/>
      <point x="250" y="-12" type="curve" smooth="yes"/>
      <point x="416" y="-12"/>
      <point x="506" y="163"/>
      <point x="506" y="325" type="curve" smooth="yes"/>
      <point x="506" y="456"/>
      <point x="442" y="532"/>
      <point x="332" y="532" type="curve" smooth="yes"/>
    </contour>
    <contour>
      <point x="205" y="85"/>
      <point x="175" y="129"/>
      <point x="175" y="210" type="curve" smooth="yes"/>
      <point x="175" y="308"/>
      <point x="223" y="435"/>
      <point x="317" y="435" type="curve" smooth="yes"/>
      <point x="371" y="435"/>
      <point x="400" y="392"/>
      <point x="400" y="310" type="curve" smooth="yes"/>
      <point x="400" y="212"/>
      <point x="352" y="85"/>
      <point x="259" y="85" type="curve" smooth="yes"/>
    </contour>
    <contour>
      <point x="247" y="0" type="move" name="bottom"/>
    </contour>
    <contour>
      <point x="476" y="10" type="move" name="ogonek"/>
    </contour>
    <contour>
      <point x="329" y="570" type="move" name="top"/>
    </contour>
    <contour>
      <point x="596" y="520" type="move" name="topright"/>
    </contour>
    <contour>
      <point x="288" y="260" type="move" name="center"/>
    </contour>
  </outline>
</glyph>
<glyph name="p" format="1">
  <advance width="575"/>
  <unicode hex="0070"/>
  <outline>
    <contour>
      <point x="67" y="-250" type="line" smooth="yes"/>
      <point x="88" y="-250"/>
      <point x="103" y="-237"/>
      <point x="106" y="-216" type="curve" smooth="yes"/>
      <point x="137" y="-7" type="line"/>
      <point x="170" y="-9"/>
      <point x="199" y="-10"/>
      <point x="217" y="-10" type="curve" smooth="yes"/>
      <point x="406" y="-10"/>
      <point x="507" y="105"/>
      <point x="507" y="321" type="curve" smooth="yes"/>
      <point x="507" y="454"/>
      <point x="455" y="530"/>
      <point x="362" y="530" type="curve" smooth="yes"/>
      <point x="314" y="530"/>
      <point x="261" y="509"/>
      <point x="213" y="472" type="curve"/>
      <point x="215" y="483" type="line" smooth="yes"/>
      <point x="219" y="505"/>
      <point x="207" y="520"/>
      <point x="184" y="520" type="curve" smooth="yes"/>
      <point x="147" y="520" type="line" smooth="yes"/>
      <point x="128" y="520"/>
      <point x="115" y="506"/>
      <point x="110" y="482" type="curve" smooth="yes"/>
      <point x="1" y="-213" type="line" smooth="yes"/>
      <point x="-3" y="-235"/>
      <point x="9" y="-250"/>
      <point x="32" y="-250" type="curve" smooth="yes"/>
    </contour>
    <contour>
      <point x="195" y="354" type="line"/>
      <point x="243" y="405"/>
      <point x="293" y="434"/>
      <point x="332" y="434" type="curve" smooth="yes"/>
      <point x="377" y="434"/>
      <point x="401" y="392"/>
      <point x="401" y="306" type="curve" smooth="yes"/>
      <point x="401" y="159"/>
      <point x="344" y="86"/>
      <point x="229" y="86" type="curve" smooth="yes"/>
      <point x="213" y="86"/>
      <point x="186" y="87"/>
      <point x="153" y="89" type="curve"/>
    </contour>
    <contour>
      <point x="329" y="570" type="move" name="top"/>
    </contour>
    <contour>
      <point x="247" y="0" type="move" name="bottom"/>
    </contour>
  </outline>
</glyph>
<glyph name="r" format="1">
  <advance width="575"/>
  <unicode hex="0072"/>
  <outline>
    <contour>
      <point x="241" y="475" type="line" smooth="yes"/>
      <point x="243" y="491"/>
      <point x="236" y="500"/>
      <point x="220" y="500" type="curve" smooth="yes"/>
      <point x="148" y="500" type="line" smooth="yes"/>
      <point x="132" y="500"/>
      <point x="122" y="486"/>
      <point x="120" y="470" type="curve" smooth="yes"/>
      <point x="49" y="25" type="line" smooth="yes"/>
      <point x="47" y="9"/>
      <point x="54" y="0"/>
      <point x="70" y="0" type="curve" smooth="yes"/>
      <point x="140" y="0" type="line" smooth="yes"/>
      <point x="156" y="0"/>
      <point x="167" y="9"/>
      <point x="169" y="25" type="curve" smooth="yes"/>
      <point x="221" y="349" type="line"/>
      <point x="270" y="401"/>
      <point x="312" y="435"/>
      <point x="340" y="435" type="curve" smooth="yes"/>
      <point x="365" y="435"/>
      <point x="379" y="409"/>
      <point x="379" y="349" type="curve" smooth="yes"/>
      <point x="379" y="332"/>
      <point x="387" y="323"/>
      <point x="404" y="323" type="curve" smooth="yes"/>
      <point x="475" y="323" type="line" smooth="yes"/>
      <point x="491" y="323"/>
      <point x="501" y="332"/>
      <point x="501" y="348" type="curve" smooth="yes"/>
      <point x="504" y="464"/>
      <point x="456" y="512"/>
      <point x="393" y="512" type="curve" smooth="yes"/>
      <point x="344" y="512"/>
      <point x="286" y="484"/>
      <point x="235" y="437" type="curve"/>
    </contour>
    <contour>
      <point x="341" y="570" type="move" name="top"/>
    </contour>
    <contour>
      <point x="259" y="0" type="move" name="bottom"/>
    </contour>
  </outline>
</glyph>
<glyph name="s" format="1">
  <advance width="575"/>
  <unicode hex="0073"/>
  <outline>
    <contour>
      <point x="480" y="475" type="line"/>
      <point x="489" y="498"/>
      <point x="480" y="515"/>
      <point x="458" y="519" type="curve" smooth="yes"/>
      <point x="411" y="528"/>
      <point x="366" y="530"/>
      <point x="340" y="530" type="curve" smooth="yes"/>
      <point x="210" y="530"/>
      <point x="113" y="459"/>
      <point x="113" y="362" type="curve" smooth="yes"/>
      <point x="113" y="285"/>
      <point x="176" y="232"/>
      <point x="278" y="222" type="curve" smooth="yes"/>
      <point x="331" y="217"/>
      <point x="358" y="197"/>
      <point x="358" y="163" type="curve" smooth="yes"/>
      <point x="358" y="119"/>
      <point x="305" y="87"/>
      <point x="230" y="87" type="curve" smooth="yes"/>
      <point x="207" y="87"/>
      <point x="163" y="88"/>
      <point x="114" y="97" type="curve" smooth="yes"/>
      <point x="113" y="97" type="line" smooth="yes"/>
      <point x="92" y="100"/>
      <point x="77" y="90"/>
      <point x="70" y="71" type="curve" smooth="yes"/>
      <point x="60" y="45" type="line" smooth="yes"/>
      <point x="51" y="22"/>
      <point x="60" y="5"/>
      <point x="83" y="1" type="curve" smooth="yes"/>
      <point x="138" y="-8"/>
      <point x="186" y="-10"/>
      <point x="218" y="-10" type="curve" smooth="yes"/>
      <point x="361" y="-10"/>
      <point x="465" y="67"/>
      <point x="465" y="175" type="curve" smooth="yes"/>
      <point x="465" y="256"/>
      <point x="407" y="306"/>
      <point x="302" y="319" type="curve" smooth="yes"/>
      <point x="250" y="325"/>
      <point x="219" y="347"/>
      <point x="219" y="376" type="curve" smooth="yes"/>
      <point x="219" y="407"/>
      <point x="264" y="432"/>
      <point x="328" y="434" type="curve" smooth="yes"/>
      <point x="353" y="435"/>
      <point x="381" y="432"/>
      <point x="425" y="425" type="curve" smooth="yes"/>
      <point x="444" y="421"/>
      <point x="460" y="430"/>
      <point x="469" y="449" type="curve"/>
    </contour>
    <contour>
      <point x="341" y="570" type="move" name="top"/>
    </contour>
    <contour>
      <point x="259" y="0" type="move" name="bottom"/>
    </contour>
  </outline>
</glyph>
<glyph name="t" format="2">
	<advance width="575"/>
	<unicode hex="0074"/>
	<anchor x="259" y="0" name="bottom"/>
	<anchor x="300" y="260" name="center"/>
	<anchor x="341" y="520" name="top"/>
	<anchor x="621" y="520" name="topright"/>
	<outline>
		<contour>
			<point x="468" y="42" type="curve"/>
			<point x="466" y="68" type="line" smooth="yes"/>
			<point x="465" y="90"/>
			<point x="450" y="100"/>
			<point x="427" y="96" type="curve" smooth="yes"/>
			<point x="384" y="89"/>
			<point x="345" y="87"/>
			<point x="322" y="87" type="curve" smooth="yes"/>
			<point x="279" y="87"/>
			<point x="263" y="97"/>
			<point x="263" y="132" type="curve" smooth="yes"/>
			<point x="263" y="140"/>
			<point x="263" y="150"/>
			<point x="265" y="161" type="curve" smooth="yes"/>
			<point x="308" y="424" type="line"/>
			<point x="463" y="424" type="line" smooth="yes"/>
			<point x="483" y="424"/>
			<point x="498" y="436"/>
			<point x="502" y="457" type="curve" smooth="yes"/>
			<point x="506" y="483" type="line"/>
			<point x="509" y="507"/>
			<point x="497" y="520"/>
			<point x="475" y="520" type="curve" smooth="yes"/>
			<point x="323" y="520" type="line"/>
			<point x="342" y="643" type="line" smooth="yes"/>
			<point x="346" y="665"/>
			<point x="334" y="680"/>
			<point x="311" y="680" type="curve" smooth="yes"/>
			<point x="275" y="680" type="line" smooth="yes"/>
			<point x="255" y="680"/>
			<point x="240" y="668"/>
			<point x="236" y="647" type="curve" smooth="yes"/>
			<point x="216" y="520" type="line"/>
			<point x="150" y="520" type="line" smooth="yes"/>
			<point x="128" y="520"/>
			<point x="114" y="507"/>
			<point x="111" y="486" type="curve"/>
			<point x="107" y="461" type="line" smooth="yes"/>
			<point x="103" y="439"/>
			<point x="115" y="424"/>
			<point x="138" y="424" type="curve" smooth="yes"/>
			<point x="202" y="424" type="line"/>
			<point x="160" y="164" type="line" smooth="yes"/>
			<point x="157" y="146"/>
			<point x="156" y="130"/>
			<point x="156" y="115" type="curve" smooth="yes"/>
			<point x="156" y="28"/>
			<point x="204" y="-10"/>
			<point x="310" y="-10" type="curve" smooth="yes"/>
			<point x="337" y="-10"/>
			<point x="381" y="-9"/>
			<point x="437" y="1" type="curve" smooth="yes"/>
			<point x="458" y="5"/>
			<point x="471" y="21"/>
		</contour>
	</outline>
</glyph>
<glyph name="v" format="2">
	<advance width="575"/>
	<unicode hex="0076"/>
	<outline>
		<contour>
			<point x="515" y="520" type="curve" smooth="yes"/>
			<point x="480" y="520" type="line" smooth="yes"/>
			<point x="459" y="520"/>
			<point x="444" y="507"/>
			<point x="441" y="486" type="curve"/>
			<point x="403" y="265"/>
			<point x="321" y="87"/>
			<point x="254" y="87" type="curve" smooth="yes"/>
			<point x="241" y="87"/>
			<point x="235" y="93"/>
			<point x="234" y="104" type="curve" smooth="yes"/>
			<point x="198" y="490" type="line" smooth="yes"/>
			<point x="197" y="509"/>
			<point x="185" y="520"/>
			<point x="165" y="520" type="curve" smooth="yes"/>
			<point x="129" y="520" type="line" smooth="yes"/>
			<point x="105" y="520"/>
			<point x="91" y="505"/>
			<point x="92" y="481" type="curve"/>
			<point x="128" y="89" type="line" smooth="yes"/>
			<point x="134" y="28"/>
			<point x="174" y="-10"/>
			<point x="232" y="-10" type="curve" smooth="yes"/>
			<point x="377" y="-10"/>
			<point x="488" y="172"/>
			<point x="546" y="483" type="curve" smooth="yes"/>
			<point x="546" y="484" type="line" smooth="yes"/>
			<point x="549" y="506"/>
			<point x="537" y="520"/>
		</contour>
	</outline>
</glyph>
<glyph name="w" format="1">
  <advance width="575"/>
  <unicode hex="0077"/>
  <outline>
    <contour>
      <point x="509" y="520" type="line" smooth="yes"/>
      <point x="487" y="520"/>
      <point x="471" y="506"/>
      <point x="470" y="486" type="curve" smooth="yes"/>
      <point x="461" y="395"/>
      <point x="443" y="287"/>
      <point x="426" y="192" type="curve"/>
      <point x="358" y="394" type="line"/>
      <point x="352" y="411"/>
      <point x="340" y="419"/>
      <point x="322" y="419" type="curve" smooth="yes"/>
      <point x="291" y="419" type="line" smooth="yes"/>
      <point x="270" y="419"/>
      <point x="255" y="411"/>
      <point x="250" y="394" type="curve"/>
      <point x="222" y="326"/>
      <point x="183" y="244"/>
      <point x="136" y="172" type="curve"/>
      <point x="177" y="484" type="line" smooth="yes"/>
      <point x="180" y="506"/>
      <point x="169" y="520"/>
      <point x="147" y="520" type="curve" smooth="yes"/>
      <point x="111" y="520" type="line" smooth="yes"/>
      <point x="88" y="520"/>
      <point x="73" y="507"/>
      <point x="72" y="486" type="curve"/>
      <point x="25" y="31" type="line" smooth="yes"/>
      <point x="22" y="9"/>
      <point x="32" y="-5"/>
      <point x="51" y="-5" type="curve" smooth="yes"/>
      <point x="118" y="-5"/>
      <point x="190" y="83"/>
      <point x="294" y="287" type="curve"/>
      <point x="386" y="20" type="line" smooth="yes"/>
      <point x="391" y="3"/>
      <point x="403" y="-5"/>
      <point x="422" y="-5" type="curve" smooth="yes"/>
      <point x="444" y="-5" type="line" smooth="yes"/>
      <point x="460" y="-5"/>
      <point x="469" y="4"/>
      <point x="477" y="26" type="curve" smooth="yes"/>
      <point x="530" y="180"/>
      <point x="553" y="332"/>
      <point x="575" y="484" type="curve" smooth="yes"/>
      <point x="578" y="507"/>
      <point x="566" y="520"/>
      <point x="544" y="520" type="curve" smooth="yes"/>
    </contour>
    <contour>
      <point x="341" y="570" type="move" name="top"/>
    </contour>
    <contour>
      <point x="259" y="0" type="move" name="bottom"/>
    </contour>
  </outline>
</glyph>
<glyph name="z" format="1">
  <advance width="575"/>
  <unicode hex="007A"/>
  <outline>
    <contour>
      <point x="169" y="97" type="line"/>
      <point x="488" y="372" type="line" smooth="yes"/>
      <point x="511" y="392"/>
      <point x="523" y="413"/>
      <point x="528" y="441" type="curve" smooth="yes"/>
      <point x="535" y="485" type="line" smooth="yes"/>
      <point x="538" y="507"/>
      <point x="527" y="520"/>
      <point x="506" y="520" type="curve" smooth="yes"/>
      <point x="172" y="520" type="line" smooth="yes"/>
      <point x="150" y="520"/>
      <point x="135" y="507"/>
      <point x="132" y="485" type="curve" smooth="yes"/>
      <point x="128" y="459" type="line" smooth="yes"/>
      <point x="124" y="438"/>
      <point x="136" y="424"/>
      <point x="157" y="424" type="curve" smooth="yes"/>
      <point x="406" y="424" type="line"/>
      <point x="87" y="149" type="line" smooth="yes"/>
      <point x="64" y="129"/>
      <point x="52" y="108"/>
      <point x="47" y="80" type="curve" smooth="yes"/>
      <point x="40" y="35" type="line" smooth="yes"/>
      <point x="37" y="13"/>
      <point x="48" y="0"/>
      <point x="69" y="0" type="curve" smooth="yes"/>
      <point x="424" y="0" type="line" smooth="yes"/>
      <point x="446" y="0"/>
      <point x="461" y="13"/>
      <point x="464" y="35" type="curve" smooth="yes"/>
      <point x="469" y="62" type="line" smooth="yes"/>
      <point x="472" y="84"/>
      <point x="461" y="97"/>
      <point x="439" y="97" type="curve" smooth="yes"/>
    </contour>
    <contour>
      <point x="341" y="570" type="move" name="top"/>
    </contour>
    <contour>
      <point x="259" y="0" type="move" name="bottom"/>
    </contour>
  </outline>
</glyph>
<glyph name="bar" format="1">
  <advance width="575"/>
  <unicode hex="007C"/>
  <outline>
    <contour>
      <point x="351" y="770" type="line"/>
      <point x="331" y="770"/>
      <point x="313" y="755"/>
      <point x="310" y="735" type="curve"/>
      <point x="171" y="-143" type="line"/>
      <point x="168" y="-164"/>
      <point x="181" y="-178"/>
      <point x="201" y="-178" type="curve"/>
      <point x="236" y="-178" type="line"/>
      <point x="257" y="-178"/>
      <point x="273" y="-163"/>
      <point x="276" y="-143" type="curve"/>
      <point x="415" y="735" type="line"/>
      <point x="419" y="756"/>
      <point x="406" y="770"/>
      <point x="386" y="770" type="curve"/>
    </contour>
  </outline>
</glyph>
<glyph name="braceright" format="1">
  <advance width="575"/>
  <unicode hex="007D"/>
  <outline>
    <contour>
      <point x="253" y="371"/>
      <point x="253" y="328"/>
      <point x="296" y="297" type="curve"/>
      <point x="242" y="267"/>
      <point x="229" y="222"/>
      <point x="221" y="176" type="curve" smooth="yes"/>
      <point x="193" y="-1" type="line" smooth="yes"/>
      <point x="184" y="-61"/>
      <point x="162" y="-82"/>
      <point x="109" y="-82" type="curve" smooth="yes"/>
      <point x="28" y="-82" type="line" smooth="yes"/>
      <point x="8" y="-82"/>
      <point x="-7" y="-94"/>
      <point x="-11" y="-115" type="curve" smooth="yes"/>
      <point x="-15" y="-141" type="line" smooth="yes"/>
      <point x="-19" y="-164"/>
      <point x="-7" y="-178"/>
      <point x="16" y="-178" type="curve" smooth="yes"/>
      <point x="97" y="-178" type="line" smooth="yes"/>
      <point x="220" y="-178"/>
      <point x="279" y="-127"/>
      <point x="298" y="-5" type="curve" smooth="yes"/>
      <point x="326" y="172" type="line" smooth="yes"/>
      <point x="335" y="228"/>
      <point x="358" y="248"/>
      <point x="410" y="248" type="curve" smooth="yes"/>
      <point x="490" y="248" type="line" smooth="yes"/>
      <point x="510" y="248"/>
      <point x="525" y="260"/>
      <point x="529" y="281" type="curve" smooth="yes"/>
      <point x="533" y="307" type="line"/>
      <point x="536" y="331"/>
      <point x="524" y="344"/>
      <point x="502" y="344" type="curve" smooth="yes"/>
      <point x="422" y="344" type="line" smooth="yes"/>
      <point x="371" y="344"/>
      <point x="357" y="363"/>
      <point x="365" y="417" type="curve" smooth="yes"/>
      <point x="393" y="593" type="line" smooth="yes"/>
      <point x="413" y="717"/>
      <point x="368" y="770"/>
      <point x="244" y="770" type="curve" smooth="yes"/>
      <point x="163" y="770" type="line" smooth="yes"/>
      <point x="143" y="770"/>
      <point x="128" y="758"/>
      <point x="124" y="737" type="curve" smooth="yes"/>
      <point x="120" y="711" type="line" smooth="yes"/>
      <point x="116" y="688"/>
      <point x="128" y="674"/>
      <point x="151" y="674" type="curve" smooth="yes"/>
      <point x="232" y="674" type="line" smooth="yes"/>
      <point x="283" y="674"/>
      <point x="298" y="654"/>
      <point x="288" y="597" type="curve" smooth="yes"/>
      <point x="260" y="421" type="line" smooth="yes"/>
    </contour>
  </outline>
</glyph>
<glyph name="asciitilde" format="1">
  <advance width="575"/>
  <unicode hex="007E"/>
  <outline>
    <contour>
      <point x="497" y="328" type="line"/>
      <point x="476" y="328"/>
      <point x="458" y="315"/>
      <point x="455" y="296" type="curve"/>
      <point x="448" y="256"/>
      <point x="431" y="236"/>
      <point x="408" y="236" type="curve"/>
      <point x="387" y="236"/>
      <point x="359" y="256"/>
      <point x="327" y="294" type="curve"/>
      <point x="281" y="349"/>
      <point x="229" y="381"/>
      <point x="183" y="381" type="curve"/>
      <point x="96" y="381"/>
      <point x="37" y="324"/>
      <point x="22" y="229" type="curve"/>
      <point x="19" y="208"/>
      <point x="31" y="193"/>
      <point x="50" y="193" type="curve"/>
      <point x="78" y="193" type="line"/>
      <point x="100" y="193"/>
      <point x="118" y="207"/>
      <point x="120" y="225" type="curve"/>
      <point x="127" y="265"/>
      <point x="144" y="284"/>
      <point x="168" y="284" type="curve"/>
      <point x="188" y="284"/>
      <point x="216" y="265"/>
      <point x="249" y="226" type="curve"/>
      <point x="295" y="171"/>
      <point x="346" y="140"/>
      <point x="393" y="140" type="curve"/>
      <point x="478" y="140"/>
      <point x="538" y="196"/>
      <point x="553" y="292" type="curve"/>
      <point x="556" y="313"/>
      <point x="545" y="328"/>
      <point x="526" y="328" type="curve"/>
    </contour>
  </outline>
</glyph>
<glyph name="cent" format="1">
  <advance width="575"/>
  <unicode hex="00A2"/>
  <outline>
    <contour>
      <point x="279" y="455" type="line"/>
      <point x="386" y="471" type="line"/>
      <point x="415" y="653" type="line"/>
      <point x="419" y="674"/>
      <point x="406" y="688"/>
      <point x="386" y="688" type="curve"/>
      <point x="351" y="688" type="line"/>
      <point x="331" y="688"/>
      <point x="314" y="674"/>
      <point x="310" y="653" type="curve"/>
    </contour>
    <contour>
      <point x="318" y="40" type="line"/>
      <point x="216" y="56" type="line"/>
      <point x="183" y="-153" type="line"/>
      <point x="179" y="-174"/>
      <point x="192" y="-188"/>
      <point x="212" y="-188" type="curve"/>
      <point x="247" y="-188" type="line"/>
      <point x="267" y="-188"/>
      <point x="284" y="-174"/>
      <point x="288" y="-153" type="curve"/>
    </contour>
    <component base="c" xOffset="-1"/>
  </outline>
</glyph>
<glyph name="currency" format="1">
  <advance width="575"/>
  <unicode hex="00A4"/>
  <outline>
    <contour>
      <point x="573" y="444" type="line" smooth="yes"/>
      <point x="591" y="459"/>
      <point x="593" y="479"/>
      <point x="578" y="494" type="curve" smooth="yes"/>
      <point x="558" y="515" type="line" smooth="yes"/>
      <point x="544" y="529"/>
      <point x="526" y="529"/>
      <point x="510" y="515" type="curve" smooth="yes"/>
      <point x="422" y="440" type="line"/>
      <point x="394" y="459"/>
      <point x="358" y="469"/>
      <point x="320" y="469" type="curve" smooth="yes"/>
      <point x="282" y="469"/>
      <point x="242" y="459"/>
      <point x="206" y="440" type="curve"/>
      <point x="146" y="513" type="line" smooth="yes"/>
      <point x="132" y="529"/>
      <point x="114" y="529"/>
      <point x="96" y="515" type="curve" smooth="yes"/>
      <point x="70" y="495" type="line" smooth="yes"/>
      <point x="52" y="481"/>
      <point x="48" y="461"/>
      <point x="61" y="446" type="curve" smooth="yes"/>
      <point x="125" y="370" type="line"/>
      <point x="101" y="337"/>
      <point x="85" y="300"/>
      <point x="79" y="262" type="curve" smooth="yes"/>
      <point x="73" y="224"/>
      <point x="78" y="186"/>
      <point x="92" y="154" type="curve"/>
      <point x="2" y="77" type="line"/>
      <point x="-15" y="61"/>
      <point x="-17" y="42"/>
      <point x="-3" y="27" type="curve" smooth="yes"/>
      <point x="17" y="6" type="line"/>
      <point x="30" y="-9"/>
      <point x="49" y="-9"/>
      <point x="67" y="6" type="curve" smooth="yes"/>
      <point x="153" y="81" type="line"/>
      <point x="183" y="61"/>
      <point x="218" y="51"/>
      <point x="256" y="51" type="curve" smooth="yes"/>
      <point x="293" y="51"/>
      <point x="333" y="62"/>
      <point x="369" y="81" type="curve"/>
      <point x="430" y="8" type="line"/>
      <point x="442" y="-8"/>
      <point x="461" y="-9"/>
      <point x="479" y="5" type="curve" smooth="yes"/>
      <point x="505" y="26" type="line"/>
      <point x="524" y="40"/>
      <point x="528" y="59"/>
      <point x="514" y="75" type="curve" smooth="yes"/>
      <point x="450" y="151" type="line"/>
      <point x="474" y="183"/>
      <point x="491" y="221"/>
      <point x="497" y="258" type="curve" smooth="yes"/>
      <point x="503" y="296"/>
      <point x="498" y="334"/>
      <point x="483" y="367" type="curve"/>
    </contour>
    <contour>
      <point x="207" y="148"/>
      <point x="165" y="197"/>
      <point x="175" y="258" type="curve" smooth="yes"/>
      <point x="185" y="322"/>
      <point x="244" y="373"/>
      <point x="307" y="373" type="curve" smooth="yes"/>
      <point x="369" y="373"/>
      <point x="410" y="323"/>
      <point x="400" y="262" type="curve" smooth="yes"/>
      <point x="390" y="198"/>
      <point x="332" y="148"/>
      <point x="269" y="148" type="curve" smooth="yes"/>
    </contour>
  </outline>
</glyph>
<glyph name="yen" format="1">
  <advance width="575"/>
  <unicode hex="00A5"/>
  <outline>
    <contour>
      <point x="569" y="720" type="line"/>
      <point x="553" y="720"/>
      <point x="536" y="712"/>
      <point x="526" y="696" type="curve"/>
      <point x="347" y="424" type="line"/>
      <point x="336" y="408"/>
      <point x="325" y="400"/>
      <point x="310" y="400" type="curve"/>
      <point x="295" y="400"/>
      <point x="286" y="408"/>
      <point x="280" y="425" type="curve"/>
      <point x="187" y="696" type="line"/>
      <point x="183" y="712"/>
      <point x="170" y="720"/>
      <point x="153" y="720" type="curve"/>
      <point x="116" y="720" type="line"/>
      <point x="92" y="720"/>
      <point x="74" y="699"/>
      <point x="82" y="676" type="curve"/>
      <point x="164" y="436" type="line"/>
      <point x="126" y="436" type="line"/>
      <point x="106" y="436"/>
      <point x="89" y="422"/>
      <point x="85" y="401" type="curve"/>
      <point x="82" y="380" type="line"/>
      <point x="79" y="360"/>
      <point x="91" y="345"/>
      <point x="111" y="345" type="curve"/>
      <point x="491" y="345" type="line"/>
      <point x="511" y="345"/>
      <point x="529" y="360"/>
      <point x="532" y="380" type="curve"/>
      <point x="535" y="401" type="line"/>
      <point x="539" y="422"/>
      <point x="526" y="436"/>
      <point x="506" y="436" type="curve"/>
      <point x="467" y="436" type="line"/>
      <point x="625" y="677" type="line"/>
      <point x="639" y="698"/>
      <point x="631" y="720"/>
      <point x="605" y="720" type="curve"/>
    </contour>
    <contour>
      <point x="104" y="295" type="line"/>
      <point x="84" y="295"/>
      <point x="66" y="281"/>
      <point x="63" y="260" type="curve"/>
      <point x="60" y="239" type="line"/>
      <point x="57" y="219"/>
      <point x="69" y="204"/>
      <point x="89" y="204" type="curve"/>
      <point x="226" y="204" type="line"/>
      <point x="199" y="35" type="line"/>
      <point x="196" y="15"/>
      <point x="209" y="0"/>
      <point x="229" y="0" type="curve"/>
      <point x="264" y="0" type="line"/>
      <point x="284" y="0"/>
      <point x="301" y="15"/>
      <point x="304" y="35" type="curve"/>
      <point x="331" y="204" type="line"/>
      <point x="469" y="204" type="line"/>
      <point x="489" y="204"/>
      <point x="507" y="219"/>
      <point x="510" y="239" type="curve"/>
      <point x="513" y="260" type="line"/>
      <point x="516" y="281"/>
      <point x="504" y="295"/>
      <point x="484" y="295" type="curve"/>
    </contour>
  </outline>
</glyph>
<glyph name="section" format="1">
  <advance width="575"/>
  <unicode hex="00A7"/>
  <outline>
    <contour>
      <point x="448" y="233"/>
      <point x="481" y="271"/>
      <point x="489" y="321" type="curve" smooth="yes"/>
      <point x="501" y="396"/>
      <point x="456" y="439"/>
      <point x="336" y="479" type="curve"/>
      <point x="274" y="497"/>
      <point x="244" y="530"/>
      <point x="250" y="568" type="curve" smooth="yes"/>
      <point x="255" y="601"/>
      <point x="291" y="622"/>
      <point x="357" y="624" type="curve" smooth="yes"/>
      <point x="376" y="624"/>
      <point x="412" y="622"/>
      <point x="453" y="615" type="curve" smooth="yes"/>
      <point x="473" y="611"/>
      <point x="491" y="622"/>
      <point x="499" y="640" type="curve" smooth="yes"/>
      <point x="510" y="666" type="line" smooth="yes"/>
      <point x="519" y="687"/>
      <point x="509" y="705"/>
      <point x="490" y="709" type="curve" smooth="yes"/>
      <point x="443" y="718"/>
      <point x="398" y="720"/>
      <point x="372" y="720" type="curve" smooth="yes"/>
      <point x="244" y="720"/>
      <point x="160" y="664"/>
      <point x="144" y="564" type="curve" smooth="yes"/>
      <point x="136" y="511"/>
      <point x="155" y="465"/>
      <point x="200" y="430" type="curve"/>
      <point x="146" y="407"/>
      <point x="113" y="370"/>
      <point x="106" y="320" type="curve" smooth="yes"/>
      <point x="94" y="245"/>
      <point x="138" y="201"/>
      <point x="259" y="162" type="curve" smooth="yes"/>
      <point x="323" y="142"/>
      <point x="351" y="112"/>
      <point x="344" y="73" type="curve" smooth="yes"/>
      <point x="339" y="40"/>
      <point x="300" y="18"/>
      <point x="229" y="17" type="curve" smooth="yes"/>
      <point x="209" y="17"/>
      <point x="157" y="18"/>
      <point x="117" y="26" type="curve"/>
      <point x="97" y="29"/>
      <point x="78" y="20"/>
      <point x="70" y="-1" type="curve" smooth="yes"/>
      <point x="60" y="-27" type="line" smooth="yes"/>
      <point x="52" y="-46"/>
      <point x="60" y="-65"/>
      <point x="80" y="-69" type="curve" smooth="yes"/>
      <point x="127" y="-78"/>
      <point x="187" y="-80"/>
      <point x="213" y="-80" type="curve" smooth="yes"/>
      <point x="347" y="-80"/>
      <point x="434" y="-24"/>
      <point x="450" y="76" type="curve" smooth="yes"/>
      <point x="458" y="130"/>
      <point x="439" y="176"/>
      <point x="394" y="211" type="curve"/>
    </contour>
    <contour>
      <point x="281" y="387"/>
      <point x="288" y="385"/>
      <point x="294" y="382" type="curve"/>
      <point x="365" y="361"/>
      <point x="388" y="339"/>
      <point x="381" y="306" type="curve" smooth="yes"/>
      <point x="378" y="284"/>
      <point x="356" y="265"/>
      <point x="316" y="252" type="curve"/>
      <point x="301" y="258" type="line"/>
      <point x="229" y="279"/>
      <point x="207" y="301"/>
      <point x="213" y="335" type="curve" smooth="yes"/>
      <point x="217" y="358"/>
      <point x="238" y="377"/>
      <point x="274" y="389" type="curve"/>
    </contour>
  </outline>
</glyph>
<glyph name="copyright" format="1">
  <advance width="575"/>
  <unicode hex="00A9"/>
  <outline>
    <contour>
      <point x="411" y="468" type="line" smooth="yes"/>
      <point x="424" y="479"/>
      <point x="427" y="493"/>
      <point x="415" y="503" type="curve" smooth="yes"/>
      <point x="394" y="521"/>
      <point x="365" y="532"/>
      <point x="335" y="532" type="curve" smooth="yes"/>
      <point x="332" y="531" type="line" smooth="yes"/>
      <point x="292" y="531"/>
      <point x="250" y="513"/>
      <point x="218" y="484" type="curve" smooth="yes"/>
      <point x="186" y="455"/>
      <point x="164" y="415"/>
      <point x="158" y="375" type="curve" smooth="yes"/>
      <point x="151" y="335"/>
      <point x="161" y="296"/>
      <point x="184" y="267" type="curve" smooth="yes"/>
      <point x="206" y="237"/>
      <point x="242" y="220"/>
      <point x="282" y="219" type="curve" smooth="yes"/>
      <point x="285" y="219" type="line" smooth="yes"/>
      <point x="315" y="219"/>
      <point x="348" y="229"/>
      <point x="375" y="247" type="curve" smooth="yes"/>
      <point x="390" y="257"/>
      <point x="391" y="271"/>
      <point x="381" y="282" type="curve" smooth="yes"/>
      <point x="372" y="291" type="line" smooth="yes"/>
      <point x="363" y="302"/>
      <point x="353" y="301"/>
      <point x="338" y="293" type="curve" smooth="yes"/>
      <point x="325" y="286"/>
      <point x="309" y="281"/>
      <point x="294" y="281" type="curve" smooth="yes"/>
      <point x="293" y="281" type="line" smooth="yes"/>
      <point x="270" y="282"/>
      <point x="248" y="293"/>
      <point x="235" y="310" type="curve" smooth="yes"/>
      <point x="222" y="328"/>
      <point x="217" y="352"/>
      <point x="221" y="375" type="curve" smooth="yes"/>
      <point x="225" y="399"/>
      <point x="237" y="423"/>
      <point x="255" y="440" type="curve" smooth="yes"/>
      <point x="274" y="458"/>
      <point x="300" y="469"/>
      <point x="323" y="469" type="curve" smooth="yes"/>
      <point x="324" y="469" type="line" smooth="yes"/>
      <point x="339" y="469"/>
      <point x="353" y="465"/>
      <point x="364" y="458" type="curve" smooth="yes"/>
      <point x="377" y="450"/>
      <point x="386" y="448"/>
      <point x="399" y="459" type="curve" smooth="yes"/>
    </contour>
    <contour>
      <point x="35" y="307"/>
      <point x="52" y="238"/>
      <point x="92" y="190" type="curve" smooth="yes"/>
      <point x="134" y="141"/>
      <point x="197" y="113"/>
      <point x="266" y="113" type="curve" smooth="yes"/>
      <point x="334" y="113"/>
      <point x="408" y="141"/>
      <point x="463" y="190" type="curve" smooth="yes"/>
      <point x="520" y="238"/>
      <point x="559" y="307"/>
      <point x="570" y="375" type="curve" smooth="yes"/>
      <point x="581" y="444"/>
      <point x="563" y="512"/>
      <point x="522" y="561" type="curve" smooth="yes"/>
      <point x="482" y="609"/>
      <point x="417" y="637"/>
      <point x="349" y="637" type="curve" smooth="yes"/>
      <point x="280" y="637"/>
      <point x="208" y="609"/>
      <point x="151" y="561" type="curve" smooth="yes"/>
      <point x="95" y="512"/>
      <point x="57" y="444"/>
      <point x="46" y="375" type="curve" smooth="yes"/>
    </contour>
    <contour>
      <point x="499" y="323"/>
      <point x="469" y="271"/>
      <point x="426" y="234" type="curve" smooth="yes"/>
      <point x="384" y="197"/>
      <point x="328" y="176"/>
      <point x="276" y="176" type="curve" smooth="yes"/>
      <point x="224" y="176"/>
      <point x="176" y="197"/>
      <point x="144" y="234" type="curve" smooth="yes"/>
      <point x="113" y="271"/>
      <point x="100" y="323"/>
      <point x="108" y="375" type="curve" smooth="yes"/>
      <point x="116" y="427"/>
      <point x="146" y="479"/>
      <point x="189" y="516" type="curve" smooth="yes"/>
      <point x="232" y="553"/>
      <point x="287" y="575"/>
      <point x="339" y="575" type="curve" smooth="yes"/>
      <point x="391" y="575"/>
      <point x="440" y="553"/>
      <point x="471" y="516" type="curve" smooth="yes"/>
      <point x="502" y="479"/>
      <point x="515" y="427"/>
      <point x="507" y="375" type="curve" smooth="yes"/>
    </contour>
  </outline>
</glyph>
<glyph name="ordfeminine" format="2">
	<advance width="575"/>
	<unicode hex="00AA"/>
	<outline>
		<contour>
			<point x="456" y="723" type="curve" smooth="yes"/>
			<point x="415" y="729"/>
			<point x="377" y="730"/>
			<point x="358" y="730" type="curve" smooth="yes"/>
			<point x="229" y="730"/>
			<point x="155" y="645"/>
			<point x="155" y="499" type="curve" smooth="yes"/>
			<point x="155" y="401"/>
			<point x="191" y="350"/>
			<point x="261" y="350" type="curve" smooth="yes"/>
			<point x="292" y="350"/>
			<point x="321" y="362"/>
			<point x="348" y="386" type="curve"/>
			<point x="349" y="393" type="line"/>
			<point x="349" y="392" type="line"/>
			<point x="346" y="372"/>
			<point x="359" y="357"/>
			<point x="380" y="357" type="curve" smooth="yes"/>
			<point x="405" y="357" type="line" smooth="yes"/>
			<point x="423" y="357"/>
			<point x="436" y="371"/>
			<point x="439" y="392" type="curve" smooth="yes"/>
			<point x="485" y="684" type="line" smooth="yes"/>
			<point x="488" y="705"/>
			<point x="476" y="720"/>
		</contour>
		<contour>
			<point x="389" y="645" type="curve"/>
			<point x="364" y="482" type="line"/>
			<point x="335" y="452"/>
			<point x="304" y="434"/>
			<point x="281" y="434" type="curve" smooth="yes"/>
			<point x="256" y="434"/>
			<point x="245" y="453"/>
			<point x="245" y="509" type="curve" smooth="yes"/>
			<point x="245" y="599"/>
			<point x="281" y="646"/>
			<point x="350" y="646" type="curve" smooth="yes"/>
			<point x="359" y="646"/>
			<point x="372" y="645"/>
		</contour>
	</outline>
</glyph>
<glyph name="guillemotleft" format="2">
	<advance width="575"/>
	<unicode hex="00AB"/>
	<outline>
		<contour>
			<point x="279" y="80" type="curve" smooth="yes"/>
			<point x="128" y="260" type="line"/>
			<point x="337" y="440" type="line"/>
			<point x="354" y="456"/>
			<point x="357" y="476"/>
			<point x="343" y="490" type="curve" smooth="yes"/>
			<point x="324" y="511" type="line" smooth="yes"/>
			<point x="310" y="525"/>
			<point x="292" y="525"/>
			<point x="273" y="509" type="curve" smooth="yes"/>
			<point x="70" y="333" type="line" smooth="yes"/>
			<point x="38" y="306"/>
			<point x="24" y="285"/>
			<point x="20" y="260" type="curve" smooth="yes"/>
			<point x="15" y="229"/>
			<point x="31" y="207"/>
			<point x="47" y="188" type="curve" smooth="yes"/>
			<point x="195" y="11" type="line"/>
			<point x="208" y="-4"/>
			<point x="225" y="-4"/>
			<point x="243" y="9" type="curve"/>
			<point x="271" y="31" type="line" smooth="yes"/>
			<point x="289" y="45"/>
			<point x="292" y="65"/>
		</contour>
		<contour>
			<point x="515" y="80" type="curve"/>
			<point x="364" y="260" type="line"/>
			<point x="573" y="440" type="line" smooth="yes"/>
			<point x="591" y="456"/>
			<point x="594" y="476"/>
			<point x="579" y="491" type="curve" smooth="yes"/>
			<point x="560" y="511" type="line" smooth="yes"/>
			<point x="546" y="525"/>
			<point x="527" y="525"/>
			<point x="510" y="509" type="curve"/>
			<point x="306" y="333" type="line" smooth="yes"/>
			<point x="274" y="306"/>
			<point x="260" y="285"/>
			<point x="256" y="260" type="curve" smooth="yes"/>
			<point x="251" y="229"/>
			<point x="267" y="207"/>
			<point x="283" y="188" type="curve" smooth="yes"/>
			<point x="432" y="11" type="line" smooth="yes"/>
			<point x="443" y="-4"/>
			<point x="461" y="-4"/>
			<point x="479" y="9" type="curve"/>
			<point x="507" y="31" type="line"/>
			<point x="526" y="45"/>
			<point x="530" y="65"/>
		</contour>
	</outline>
</glyph>
<glyph name="logicalnot" format="1">
  <advance width="575"/>
  <unicode hex="00AC"/>
  <outline>
    <contour>
      <point x="136" y="424" type="line" smooth="yes"/>
      <point x="116" y="424"/>
      <point x="101" y="412"/>
      <point x="97" y="391" type="curve"/>
      <point x="93" y="363" type="line"/>
      <point x="89" y="342"/>
      <point x="101" y="327"/>
      <point x="124" y="327" type="curve" smooth="yes"/>
      <point x="407" y="327" type="line"/>
      <point x="379" y="152" type="line" smooth="yes"/>
      <point x="376" y="129"/>
      <point x="388" y="115"/>
      <point x="410" y="115" type="curve" smooth="yes"/>
      <point x="445" y="115" type="line" smooth="yes"/>
      <point x="467" y="115"/>
      <point x="481" y="127"/>
      <point x="484" y="149" type="curve" smooth="yes"/>
      <point x="522" y="387" type="line" smooth="yes"/>
      <point x="526" y="409"/>
      <point x="514" y="424"/>
      <point x="491" y="424" type="curve" smooth="yes"/>
    </contour>
  </outline>
</glyph>
<glyph name="degree" format="1">
  <advance width="575"/>
  <unicode hex="00B0"/>
  <outline>
    <contour>
      <point x="240" y="730"/>
      <point x="137" y="629"/>
      <point x="137" y="508" type="curve" smooth="yes"/>
      <point x="137" y="412"/>
      <point x="206" y="346"/>
      <point x="306" y="346" type="curve" smooth="yes"/>
      <point x="426" y="346"/>
      <point x="527" y="449"/>
      <point x="527" y="570" type="curve" smooth="yes"/>
      <point x="527" y="664"/>
      <point x="460" y="730"/>
      <point x="364" y="730" type="curve" smooth="yes"/>
    </contour>
    <contour>
      <point x="272" y="443"/>
      <point x="243" y="473"/>
      <point x="243" y="519" type="curve" smooth="yes"/>
      <point x="243" y="581"/>
      <point x="291" y="633"/>
      <point x="349" y="633" type="curve" smooth="yes"/>
      <point x="392" y="633"/>
      <point x="421" y="603"/>
      <point x="421" y="558" type="curve" smooth="yes"/>
      <point x="421" y="496"/>
      <point x="372" y="443"/>
      <point x="315" y="443" type="curve" smooth="yes"/>
    </contour>
  </outline>
</glyph>
<glyph name="paragraph" format="1">
  <advance width="575"/>
  <unicode hex="00B6"/>
  <outline>
    <contour>
      <point x="323" y="720" type="line" smooth="yes"/>
      <point x="192" y="720"/>
      <point x="111" y="650"/>
      <point x="90" y="521" type="curve" smooth="yes"/>
      <point x="87" y="504"/>
      <point x="86" y="489"/>
      <point x="86" y="474" type="curve" smooth="yes"/>
      <point x="86" y="378"/>
      <point x="142" y="325"/>
      <point x="250" y="322" type="curve"/>
      <point x="189" y="-65" type="line" smooth="yes"/>
      <point x="185" y="-86"/>
      <point x="197" y="-100"/>
      <point x="218" y="-100" type="curve" smooth="yes"/>
      <point x="253" y="-100" type="line" smooth="yes"/>
      <point x="275" y="-100"/>
      <point x="290" y="-87"/>
      <point x="294" y="-65" type="curve" smooth="yes"/>
      <point x="412" y="685" type="line" smooth="yes"/>
      <point x="416" y="707"/>
      <point x="405" y="720"/>
      <point x="383" y="720" type="curve" smooth="yes"/>
    </contour>
    <contour>
      <point x="533" y="720" type="line" smooth="yes"/>
      <point x="512" y="720"/>
      <point x="496" y="706"/>
      <point x="492" y="685" type="curve" smooth="yes"/>
      <point x="374" y="-65" type="line" smooth="yes"/>
      <point x="370" y="-86"/>
      <point x="382" y="-100"/>
      <point x="403" y="-100" type="curve" smooth="yes"/>
      <point x="438" y="-100" type="line" smooth="yes"/>
      <point x="460" y="-100"/>
      <point x="475" y="-87"/>
      <point x="479" y="-65" type="curve" smooth="yes"/>
      <point x="597" y="685" type="line" smooth="yes"/>
      <point x="601" y="707"/>
      <point x="590" y="720"/>
      <point x="568" y="720" type="curve" smooth="yes"/>
    </contour>
  </outline>
</glyph>
<glyph name="periodcentered" format="1">
  <advance width="575"/>
  <unicode hex="00B7"/>
  <outline>
    <contour>
      <point x="345" y="284" type="line"/>
      <point x="349" y="304"/>
      <point x="337" y="319"/>
      <point x="316" y="319" type="curve"/>
      <point x="281" y="319" type="line"/>
      <point x="261" y="319"/>
      <point x="244" y="304"/>
      <point x="240" y="283" type="curve"/>
      <point x="233" y="237" type="line"/>
      <point x="230" y="217"/>
      <point x="242" y="202"/>
      <point x="262" y="202" type="curve"/>
      <point x="297" y="202" type="line"/>
      <point x="319" y="202"/>
      <point x="335" y="217"/>
      <point x="338" y="237" type="curve"/>
    </contour>
  </outline>
</glyph>
<glyph name="ordmasculine" format="1">
  <advance width="575"/>
  <unicode hex="00BA"/>
  <outline>
    <contour>
      <point x="273" y="731"/>
      <point x="193" y="630"/>
      <point x="193" y="499" type="curve" smooth="yes"/>
      <point x="193" y="406"/>
      <point x="242" y="349"/>
      <point x="324" y="349" type="curve" smooth="yes"/>
      <point x="427" y="349"/>
      <point x="504" y="451"/>
      <point x="504" y="583" type="curve" smooth="yes"/>
      <point x="504" y="676"/>
      <point x="458" y="731"/>
      <point x="378" y="731" type="curve" smooth="yes"/>
    </contour>
    <contour>
      <point x="300" y="433"/>
      <point x="284" y="458"/>
      <point x="284" y="507" type="curve" smooth="yes"/>
      <point x="284" y="583"/>
      <point x="322" y="647"/>
      <point x="368" y="647" type="curve" smooth="yes"/>
      <point x="398" y="647"/>
      <point x="414" y="623"/>
      <point x="414" y="573" type="curve" smooth="yes"/>
      <point x="414" y="497"/>
      <point x="376" y="433"/>
      <point x="330" y="433" type="curve" smooth="yes"/>
    </contour>
  </outline>
</glyph>
<glyph name="AE" format="1">
  <advance width="575"/>
  <unicode hex="00C6"/>
  <outline>
    <contour>
      <point x="357" y="97" type="line"/>
      <point x="393" y="326" type="line"/>
      <point x="485" y="326" type="line"/>
      <point x="506" y="326"/>
      <point x="523" y="340"/>
      <point x="526" y="361" type="curve"/>
      <point x="530" y="388" type="line"/>
      <point x="534" y="409"/>
      <point x="522" y="423"/>
      <point x="501" y="423" type="curve"/>
      <point x="409" y="423" type="line"/>
      <point x="441" y="624" type="line"/>
      <point x="540" y="624" type="line"/>
      <point x="562" y="624"/>
      <point x="577" y="637"/>
      <point x="580" y="659" type="curve"/>
      <point x="584" y="685" type="line"/>
      <point x="588" y="707"/>
      <point x="577" y="720"/>
      <point x="555" y="720" type="curve"/>
      <point x="361" y="720" type="line"/>
      <point x="287" y="720"/>
      <point x="238" y="692"/>
      <point x="214" y="634" type="curve"/>
      <point x="-28" y="40" type="line"/>
      <point x="-36" y="17"/>
      <point x="-26" y="0"/>
      <point x="-2" y="0" type="curve"/>
      <point x="33" y="0" type="line"/>
      <point x="53" y="0"/>
      <point x="69" y="11"/>
      <point x="76" y="30" type="curve"/>
      <point x="133" y="170" type="line"/>
      <point x="264" y="170" type="line"/>
      <point x="242" y="35" type="line"/>
      <point x="239" y="14"/>
      <point x="251" y="0"/>
      <point x="272" y="0" type="curve"/>
      <point x="452" y="0" type="line"/>
      <point x="474" y="0"/>
      <point x="489" y="13"/>
      <point x="492" y="35" type="curve"/>
      <point x="497" y="62" type="line"/>
      <point x="500" y="84"/>
      <point x="489" y="97"/>
      <point x="467" y="97" type="curve"/>
    </contour>
    <contour>
      <point x="279" y="266" type="line"/>
      <point x="172" y="266" type="line"/>
      <point x="315" y="615" type="line"/>
      <point x="319" y="625"/>
      <point x="327" y="631"/>
      <point x="337" y="633" type="curve"/>
    </contour>
  </outline>
</glyph>
<glyph name="multiply" format="2">
	<advance width="575"/>
	<unicode hex="00D7"/>
	<outline>
		<contour>
			<point x="527" y="500" type="curve"/>
			<point x="503" y="518" type="line" smooth="yes"/>
			<point x="488" y="530"/>
			<point x="469" y="527"/>
			<point x="454" y="511" type="curve" smooth="yes"/>
			<point x="302" y="346" type="line"/>
			<point x="203" y="509" type="line"/>
			<point x="193" y="527"/>
			<point x="175" y="530"/>
			<point x="155" y="519" type="curve"/>
			<point x="126" y="500" type="line" smooth="yes"/>
			<point x="106" y="487"/>
			<point x="101" y="469"/>
			<point x="111" y="452" type="curve" smooth="yes"/>
			<point x="226" y="264" type="line"/>
			<point x="27" y="51" type="line" smooth="yes"/>
			<point x="10" y="33"/>
			<point x="11" y="14"/>
			<point x="29" y="1" type="curve"/>
			<point x="52" y="-18" type="line" smooth="yes"/>
			<point x="67" y="-30"/>
			<point x="86" y="-27"/>
			<point x="101" y="-11" type="curve" smooth="yes"/>
			<point x="277" y="180" type="line"/>
			<point x="393" y="-9" type="line"/>
			<point x="403" y="-27"/>
			<point x="420" y="-30"/>
			<point x="441" y="-19" type="curve"/>
			<point x="441" y="-18" type="line"/>
			<point x="470" y="1" type="line" smooth="yes"/>
			<point x="489" y="13"/>
			<point x="494" y="32"/>
			<point x="484" y="49" type="curve" smooth="yes"/>
			<point x="353" y="261" type="line"/>
			<point x="528" y="450" type="line" smooth="yes"/>
			<point x="544" y="467"/>
			<point x="544" y="486"/>
		</contour>
	</outline>
</glyph>
<glyph name="germandbls" format="1">
  <advance width="575"/>
  <unicode hex="00DF"/>
  <outline>
    <contour>
      <point x="236" y="502" type="line" smooth="yes"/>
      <point x="248" y="583"/>
      <point x="288" y="624"/>
      <point x="353" y="624" type="curve" smooth="yes"/>
      <point x="405" y="624"/>
      <point x="430" y="603"/>
      <point x="430" y="562" type="curve" smooth="yes"/>
      <point x="430" y="531"/>
      <point x="415" y="516"/>
      <point x="389" y="484" type="curve" smooth="yes"/>
      <point x="361" y="450"/>
      <point x="324" y="408"/>
      <point x="324" y="359" type="curve" smooth="yes"/>
      <point x="324" y="320"/>
      <point x="351" y="299"/>
      <point x="374" y="281" type="curve"/>
      <point x="396" y="262"/>
      <point x="415" y="247"/>
      <point x="415" y="219" type="curve" smooth="yes"/>
      <point x="415" y="150"/>
      <point x="357" y="104"/>
      <point x="261" y="98" type="curve" smooth="yes"/>
      <point x="261" y="98" type="line" smooth="yes"/>
      <point x="239" y="95"/>
      <point x="226" y="83"/>
      <point x="223" y="63" type="curve" smooth="yes"/>
      <point x="219" y="38" type="line" smooth="yes"/>
      <point x="215" y="14"/>
      <point x="227" y="0"/>
      <point x="252" y="1" type="curve" smooth="yes"/>
      <point x="411" y="9"/>
      <point x="516" y="98"/>
      <point x="516" y="226" type="curve" smooth="yes"/>
      <point x="516" y="278"/>
      <point x="484" y="308"/>
      <point x="460" y="331" type="curve" smooth="yes"/>
      <point x="443" y="348"/>
      <point x="431" y="359"/>
      <point x="431" y="375" type="curve" smooth="yes"/>
      <point x="431" y="391"/>
      <point x="448" y="411"/>
      <point x="464" y="431" type="curve" smooth="yes"/>
      <point x="501" y="476"/>
      <point x="532" y="520"/>
      <point x="532" y="585" type="curve" smooth="yes"/>
      <point x="532" y="672"/>
      <point x="473" y="720"/>
      <point x="365" y="720" type="curve" smooth="yes"/>
      <point x="234" y="720"/>
      <point x="153" y="645"/>
      <point x="131" y="506" type="curve" smooth="yes"/>
      <point x="56" y="37" type="line" smooth="yes"/>
      <point x="53" y="14"/>
      <point x="65" y="0"/>
      <point x="87" y="0" type="curve" smooth="yes"/>
      <point x="122" y="0" type="line" smooth="yes"/>
      <point x="144" y="0"/>
      <point x="158" y="12"/>
      <point x="161" y="34" type="curve" smooth="yes"/>
    </contour>
    <contour>
      <point x="341" y="520" type="move" name="top"/>
    </contour>
    <contour>
      <point x="259" y="0" type="move" name="bottom"/>
    </contour>
  </outline>
</glyph>
<glyph name="ae" format="1">
  <advance width="575"/>
  <unicode hex="00E6"/>
  <outline>
    <contour>
      <point x="145" y="450" type="line"/>
      <point x="147" y="432"/>
      <point x="162" y="421"/>
      <point x="183" y="425" type="curve"/>
      <point x="210" y="429"/>
      <point x="236" y="431"/>
      <point x="257" y="433" type="curve"/>
      <point x="239" y="317" type="line"/>
      <point x="127" y="307"/>
      <point x="54" y="255"/>
      <point x="39" y="159" type="curve"/>
      <point x="24" y="52"/>
      <point x="78" y="-10"/>
      <point x="247" y="-10" type="curve"/>
      <point x="319" y="-9"/>
      <point x="332" y="-9"/>
      <point x="389" y="1" type="curve"/>
      <point x="411" y="5"/>
      <point x="425" y="23"/>
      <point x="424" y="43" type="curve"/>
      <point x="422" y="69" type="line"/>
      <point x="420" y="89"/>
      <point x="405" y="100"/>
      <point x="384" y="96" type="curve"/>
      <point x="355" y="92"/>
      <point x="330" y="89"/>
      <point x="308" y="88" type="curve"/>
      <point x="329" y="222" type="line"/>
      <point x="453" y="222" type="line"/>
      <point x="473" y="222"/>
      <point x="490" y="237"/>
      <point x="494" y="257" type="curve"/>
      <point x="497" y="280" type="line"/>
      <point x="520" y="425"/>
      <point x="466" y="530"/>
      <point x="295" y="530" type="curve"/>
      <point x="259" y="530"/>
      <point x="215" y="526"/>
      <point x="176" y="519" type="curve"/>
      <point x="155" y="515"/>
      <point x="141" y="498"/>
      <point x="143" y="478" type="curve"/>
    </contour>
    <contour>
      <point x="344" y="319" type="line"/>
      <point x="359" y="411" type="line"/>
      <point x="392" y="395"/>
      <point x="400" y="358"/>
      <point x="397" y="319" type="curve"/>
    </contour>
    <contour>
      <point x="203" y="89" type="line"/>
      <point x="162" y="96"/>
      <point x="138" y="118"/>
      <point x="143" y="150" type="curve"/>
      <point x="150" y="190"/>
      <point x="177" y="211"/>
      <point x="224" y="219" type="curve"/>
    </contour>
  </outline>
</glyph>
<glyph name="eth" format="2">
	<advance width="575"/>
	<unicode hex="00F0"/>
	<outline>
		<contour>
			<point x="606" y="611" type="curve" smooth="yes"/>
			<point x="601" y="636" type="line" smooth="yes"/>
			<point x="596" y="657"/>
			<point x="580" y="665"/>
			<point x="559" y="657" type="curve" smooth="yes"/>
			<point x="497" y="636" type="line"/>
			<point x="461" y="690"/>
			<point x="409" y="722"/>
			<point x="345" y="729" type="curve"/>
			<point x="323" y="730"/>
			<point x="306" y="717"/>
			<point x="303" y="695" type="curve" smooth="yes"/>
			<point x="297" y="666" type="line" smooth="yes"/>
			<point x="294" y="645"/>
			<point x="304" y="632"/>
			<point x="325" y="631" type="curve"/>
			<point x="324" y="631" type="line"/>
			<point x="351" y="628"/>
			<point x="374" y="617"/>
			<point x="393" y="600" type="curve"/>
			<point x="317" y="574" type="line" smooth="yes"/>
			<point x="296" y="568"/>
			<point x="286" y="550"/>
			<point x="290" y="528" type="curve"/>
			<point x="294" y="505" type="line"/>
			<point x="294" y="504" type="line" smooth="yes"/>
			<point x="299" y="484"/>
			<point x="315" y="476"/>
			<point x="336" y="484" type="curve"/>
			<point x="435" y="517" type="line"/>
			<point x="442" y="487"/>
			<point x="445" y="452"/>
			<point x="443" y="412" type="curve"/>
			<point x="405" y="437"/>
			<point x="365" y="449"/>
			<point x="320" y="449" type="curve" smooth="yes"/>
			<point x="175" y="449"/>
			<point x="59" y="323"/>
			<point x="59" y="175" type="curve" smooth="yes"/>
			<point x="59" y="64"/>
			<point x="133" y="-10"/>
			<point x="249" y="-10" type="curve" smooth="yes"/>
			<point x="456" y="-10"/>
			<point x="549" y="195"/>
			<point x="549" y="424" type="curve" smooth="yes"/>
			<point x="549" y="470"/>
			<point x="544" y="513"/>
			<point x="534" y="551" type="curve"/>
			<point x="578" y="567" type="line" smooth="yes"/>
			<point x="599" y="573"/>
			<point x="610" y="591"/>
		</contour>
		<contour>
			<point x="262" y="88" type="curve" smooth="yes"/>
			<point x="201" y="88"/>
			<point x="166" y="124"/>
			<point x="166" y="188" type="curve" smooth="yes"/>
			<point x="166" y="272"/>
			<point x="221" y="351"/>
			<point x="308" y="351" type="curve" smooth="yes"/>
			<point x="336" y="351"/>
			<point x="382" y="349"/>
			<point x="433" y="302" type="curve"/>
			<point x="410" y="168"/>
			<point x="346" y="88"/>
		</contour>
	</outline>
</glyph>
<glyph name="divide" format="2">
	<advance width="575"/>
	<unicode hex="00F7"/>
	<outline>
		<contour>
			<point x="370" y="449" type="curve"/>
			<point x="377" y="495" type="line"/>
			<point x="380" y="515"/>
			<point x="369" y="530"/>
			<point x="348" y="530" type="curve"/>
			<point x="313" y="530" type="line"/>
			<point x="293" y="530"/>
			<point x="275" y="515"/>
			<point x="272" y="495" type="curve"/>
			<point x="265" y="449" type="line"/>
			<point x="262" y="429"/>
			<point x="274" y="414"/>
			<point x="294" y="414" type="curve"/>
			<point x="329" y="414" type="line"/>
			<point x="350" y="414"/>
			<point x="367" y="428"/>
		</contour>
		<contour>
			<point x="303" y="25" type="curve"/>
			<point x="310" y="72" type="line"/>
			<point x="313" y="92"/>
			<point x="302" y="107"/>
			<point x="281" y="107" type="curve"/>
			<point x="246" y="107" type="line"/>
			<point x="226" y="107"/>
			<point x="208" y="92"/>
			<point x="205" y="72" type="curve"/>
			<point x="198" y="25" type="line"/>
			<point x="194" y="4"/>
			<point x="207" y="-10"/>
			<point x="227" y="-10" type="curve"/>
			<point x="262" y="-10" type="line"/>
			<point x="283" y="-10"/>
			<point x="299" y="4"/>
		</contour>
		<contour>
			<point x="77" y="273" type="curve"/>
			<point x="73" y="247" type="line"/>
			<point x="70" y="227"/>
			<point x="82" y="212"/>
			<point x="102" y="212" type="curve"/>
			<point x="457" y="212" type="line"/>
			<point x="478" y="212"/>
			<point x="495" y="227"/>
			<point x="498" y="247" type="curve"/>
			<point x="502" y="274" type="line"/>
			<point x="505" y="294"/>
			<point x="494" y="309"/>
			<point x="473" y="309" type="curve"/>
			<point x="118" y="309" type="line"/>
			<point x="98" y="309"/>
			<point x="80" y="294"/>
		</contour>
	</outline>
</glyph>
<glyph name="oslash" format="1">
  <advance width="575"/>
  <unicode hex="00F8"/>
  <outline>
    <contour>
      <point x="411" y="599"/>
      <point x="401" y="594"/>
      <point x="393" y="579" type="curve" smooth="yes"/>
      <point x="103" y="-20" type="line" smooth="yes"/>
      <point x="96" y="-35"/>
      <point x="102" y="-47"/>
      <point x="117" y="-53" type="curve" smooth="yes"/>
      <point x="150" y="-66" type="line" smooth="yes"/>
      <point x="165" y="-72"/>
      <point x="175" y="-67"/>
      <point x="182" y="-52" type="curve" smooth="yes"/>
      <point x="472" y="547" type="line" smooth="yes"/>
      <point x="480" y="562"/>
      <point x="474" y="574"/>
      <point x="458" y="580" type="curve" smooth="yes"/>
      <point x="426" y="593" type="line" smooth="yes"/>
    </contour>
    <component base="o"/>
  </outline>
</glyph>
<glyph name="dcaron" format="2">
	<advance width="575"/>
	<unicode hex="010F"/>
	<outline>
		<contour>
			<point x="629" y="625" type="curve" smooth="yes"/>
			<point x="655" y="785" type="line" smooth="yes"/>
			<point x="658" y="801"/>
			<point x="650" y="810"/>
			<point x="634" y="810" type="curve" smooth="yes"/>
			<point x="599" y="810" type="line" smooth="yes"/>
			<point x="583" y="810"/>
			<point x="573" y="801"/>
			<point x="570" y="785" type="curve" smooth="yes"/>
			<point x="544" y="625" type="line" smooth="yes"/>
			<point x="541" y="609"/>
			<point x="549" y="600"/>
			<point x="565" y="600" type="curve" smooth="yes"/>
			<point x="600" y="600" type="line" smooth="yes"/>
			<point x="616" y="600"/>
			<point x="626" y="609"/>
		</contour>
		<component base="d" xOffset="-60"/>
	</outline>
</glyph>
<glyph name="dotlessi" format="1">
  <advance width="575"/>
  <unicode hex="0131"/>
  <outline>
    <contour>
      <point x="465" y="69" type="line"/>
      <point x="461" y="89"/>
      <point x="447" y="98"/>
      <point x="424" y="94" type="curve"/>
      <point x="404" y="89"/>
      <point x="383" y="87"/>
      <point x="360" y="87" type="curve" smooth="yes"/>
      <point x="327" y="88"/>
      <point x="315" y="98"/>
      <point x="315" y="126" type="curve" smooth="yes"/>
      <point x="315" y="136"/>
      <point x="316" y="146"/>
      <point x="319" y="158" type="curve"/>
      <point x="361" y="358" type="line" smooth="yes"/>
      <point x="365" y="377"/>
      <point x="367" y="395"/>
      <point x="367" y="412" type="curve" smooth="yes"/>
      <point x="367" y="490"/>
      <point x="319" y="530"/>
      <point x="227" y="530" type="curve" smooth="yes"/>
      <point x="207" y="530"/>
      <point x="175" y="529"/>
      <point x="136" y="520" type="curve" smooth="yes"/>
      <point x="116" y="515"/>
      <point x="104" y="502"/>
      <point x="105" y="484" type="curve"/>
      <point x="110" y="451" type="line"/>
      <point x="114" y="431"/>
      <point x="128" y="422"/>
      <point x="151" y="426" type="curve"/>
      <point x="171" y="431"/>
      <point x="192" y="433"/>
      <point x="215" y="433" type="curve" smooth="yes"/>
      <point x="248" y="432"/>
      <point x="260" y="422"/>
      <point x="260" y="394" type="curve" smooth="yes"/>
      <point x="260" y="384"/>
      <point x="259" y="374"/>
      <point x="256" y="362" type="curve"/>
      <point x="214" y="162" type="line" smooth="yes"/>
      <point x="210" y="143"/>
      <point x="208" y="125"/>
      <point x="208" y="108" type="curve" smooth="yes"/>
      <point x="208" y="30"/>
      <point x="256" y="-10"/>
      <point x="348" y="-10" type="curve" smooth="yes"/>
      <point x="368" y="-10"/>
      <point x="400" y="-9"/>
      <point x="439" y="0" type="curve" smooth="yes"/>
      <point x="459" y="5"/>
      <point x="471" y="18"/>
      <point x="470" y="36" type="curve"/>
    </contour>
    <contour>
      <point x="499" y="10" type="move" name="ogonek"/>
    </contour>
    <contour>
      <point x="259" y="0" type="move" name="bottom"/>
    </contour>
    <contour>
      <point x="341" y="570" type="move" name="top"/>
    </contour>
  </outline>
</glyph>
<glyph name="IJ" format="1">
  <advance width="575"/>
  <unicode hex="0132"/>
  <outline>
    <contour>
      <point x="164" y="720" type="line"/>
      <point x="145" y="720"/>
      <point x="127" y="706"/>
      <point x="124" y="685" type="curve"/>
      <point x="120" y="659" type="line"/>
      <point x="117" y="639"/>
      <point x="129" y="624"/>
      <point x="149" y="624" type="curve"/>
      <point x="164" y="624" type="line"/>
      <point x="81" y="97" type="line"/>
      <point x="56" y="97" type="line"/>
      <point x="36" y="97"/>
      <point x="18" y="82"/>
      <point x="15" y="62" type="curve"/>
      <point x="11" y="35" type="line"/>
      <point x="8" y="15"/>
      <point x="20" y="0"/>
      <point x="40" y="0" type="curve"/>
      <point x="195" y="0" type="line"/>
      <point x="217" y="0"/>
      <point x="233" y="15"/>
      <point x="236" y="35" type="curve"/>
      <point x="240" y="62" type="line"/>
      <point x="243" y="82"/>
      <point x="232" y="97"/>
      <point x="211" y="97" type="curve"/>
      <point x="186" y="97" type="line"/>
      <point x="269" y="624" type="line"/>
      <point x="284" y="624" type="line"/>
      <point x="304" y="624"/>
      <point x="321" y="638"/>
      <point x="325" y="659" type="curve"/>
      <point x="329" y="685" type="line"/>
      <point x="332" y="706"/>
      <point x="319" y="720"/>
      <point x="299" y="720" type="curve"/>
    </contour>
    <contour>
      <point x="426" y="720" type="line"/>
      <point x="406" y="720"/>
      <point x="389" y="705"/>
      <point x="386" y="685" type="curve"/>
      <point x="382" y="659" type="line"/>
      <point x="378" y="638"/>
      <point x="391" y="624"/>
      <point x="411" y="624" type="curve"/>
      <point x="454" y="624" type="line"/>
      <point x="377" y="135" type="line"/>
      <point x="372" y="103"/>
      <point x="351" y="97"/>
      <point x="316" y="97" type="curve"/>
      <point x="296" y="97"/>
      <point x="278" y="82"/>
      <point x="275" y="62" type="curve"/>
      <point x="271" y="35" type="line"/>
      <point x="268" y="15"/>
      <point x="281" y="1"/>
      <point x="302" y="1" type="curve"/>
      <point x="400" y="1"/>
      <point x="465" y="27"/>
      <point x="482" y="135" type="curve"/>
      <point x="569" y="685" type="line"/>
      <point x="572" y="706"/>
      <point x="561" y="720"/>
      <point x="539" y="720" type="curve"/>
    </contour>
  </outline>
</glyph>
<glyph name="lcaron" format="1">
  <advance width="575"/>
  <unicode hex="013E"/>
  <outline>
    <contour>
      <point x="465" y="69" type="line"/>
      <point x="461" y="89"/>
      <point x="447" y="98"/>
      <point x="424" y="94" type="curve" smooth="yes"/>
      <point x="424" y="94" type="line" smooth="yes"/>
      <point x="404" y="89"/>
      <point x="383" y="87"/>
      <point x="360" y="87" type="curve" smooth="yes"/>
      <point x="316" y="88"/>
      <point x="302" y="99"/>
      <point x="302" y="132" type="curve" smooth="yes"/>
      <point x="302" y="141"/>
      <point x="302" y="149"/>
      <point x="304" y="158" type="curve"/>
      <point x="373" y="564" type="line" smooth="yes"/>
      <point x="376" y="579"/>
      <point x="377" y="594"/>
      <point x="377" y="611" type="curve" smooth="yes"/>
      <point x="377" y="696"/>
      <point x="328" y="736"/>
      <point x="225" y="736" type="curve" smooth="yes"/>
      <point x="205" y="736"/>
      <point x="173" y="735"/>
      <point x="133" y="726" type="curve" smooth="yes"/>
      <point x="111" y="721"/>
      <point x="99" y="704"/>
      <point x="103" y="683" type="curve"/>
      <point x="107" y="657" type="line"/>
      <point x="112" y="637"/>
      <point x="126" y="628"/>
      <point x="148" y="632" type="curve"/>
      <point x="168" y="637"/>
      <point x="190" y="639"/>
      <point x="213" y="639" type="curve" smooth="yes"/>
      <point x="256" y="639"/>
      <point x="271" y="627"/>
      <point x="271" y="595" type="curve" smooth="yes"/>
      <point x="271" y="587"/>
      <point x="270" y="579"/>
      <point x="268" y="568" type="curve" smooth="yes"/>
      <point x="199" y="162" type="line" smooth="yes"/>
      <point x="196" y="145"/>
      <point x="195" y="131"/>
      <point x="195" y="117" type="curve" smooth="yes"/>
      <point x="195" y="31"/>
      <point x="245" y="-10"/>
      <point x="348" y="-10" type="curve" smooth="yes"/>
      <point x="368" y="-10"/>
      <point x="400" y="-9"/>
      <point x="439" y="0" type="curve" smooth="yes"/>
      <point x="459" y="5"/>
      <point x="471" y="18"/>
      <point x="470" y="36" type="curve"/>
    </contour>
    <component base="caron" xOffset="-10" yOffset="199"/>
  </outline>
</glyph>
<glyph name="lslash" format="1">
  <advance width="575"/>
  <unicode hex="0142"/>
  <outline>
    <contour>
      <point x="141" y="332" type="line" smooth="yes"/>
      <point x="128" y="323"/>
      <point x="121" y="306"/>
      <point x="130" y="294" type="curve" smooth="yes"/>
      <point x="147" y="271" type="line" smooth="yes"/>
      <point x="154" y="262"/>
      <point x="168" y="259"/>
      <point x="180" y="267" type="curve" smooth="yes"/>
      <point x="447" y="446" type="line" smooth="yes"/>
      <point x="461" y="455"/>
      <point x="465" y="471"/>
      <point x="457" y="484" type="curve" smooth="yes"/>
      <point x="442" y="507" type="line" smooth="yes"/>
      <point x="436" y="517"/>
      <point x="421" y="520"/>
      <point x="409" y="512" type="curve" smooth="yes"/>
    </contour>
    <component base="l"/>
  </outline>
</glyph>
<glyph name="OE" format="1">
  <advance width="575"/>
  <unicode hex="0152"/>
  <outline>
    <contour>
      <point x="359" y="97" type="line"/>
      <point x="395" y="326" type="line"/>
      <point x="487" y="326" type="line"/>
      <point x="507" y="326"/>
      <point x="524" y="341"/>
      <point x="528" y="361" type="curve"/>
      <point x="532" y="388" type="line"/>
      <point x="535" y="408"/>
      <point x="523" y="423"/>
      <point x="502" y="423" type="curve"/>
      <point x="410" y="423" type="line"/>
      <point x="442" y="624" type="line"/>
      <point x="541" y="624" type="line"/>
      <point x="561" y="624"/>
      <point x="578" y="638"/>
      <point x="582" y="659" type="curve"/>
      <point x="586" y="685" type="line"/>
      <point x="589" y="706"/>
      <point x="576" y="720"/>
      <point x="556" y="720" type="curve"/>
      <point x="362" y="720" type="line"/>
      <point x="215" y="720"/>
      <point x="131" y="607"/>
      <point x="108" y="457" type="curve"/>
      <point x="77" y="265"/>
      <point x="71" y="233"/>
      <point x="71" y="194" type="curve" smooth="yes"/>
      <point x="71" y="81"/>
      <point x="123" y="0"/>
      <point x="248" y="0" type="curve"/>
      <point x="453" y="0" type="line"/>
      <point x="475" y="0"/>
      <point x="491" y="15"/>
      <point x="494" y="35" type="curve"/>
      <point x="498" y="62" type="line"/>
      <point x="501" y="82"/>
      <point x="490" y="97"/>
      <point x="469" y="97" type="curve"/>
    </contour>
    <contour>
      <point x="254" y="97" type="line"/>
      <point x="196" y="102"/>
      <point x="177" y="145"/>
      <point x="177" y="203" type="curve" smooth="yes"/>
      <point x="177" y="238"/>
      <point x="181" y="256"/>
      <point x="213" y="457" type="curve"/>
      <point x="227" y="544"/>
      <point x="260" y="618"/>
      <point x="337" y="624" type="curve"/>
    </contour>
  </outline>
</glyph>
<glyph name="oe" format="2">
	<advance width="575"/>
	<unicode hex="0153"/>
	<outline>
		<contour>
			<point x="468" y="42" type="curve"/>
			<point x="466" y="68" type="line" smooth="yes"/>
			<point x="465" y="90"/>
			<point x="450" y="100"/>
			<point x="427" y="96" type="curve" smooth="yes"/>
			<point x="396" y="91"/>
			<point x="367" y="87"/>
			<point x="362" y="87" type="curve" smooth="yes"/>
			<point x="340" y="87"/>
			<point x="333" y="136"/>
			<point x="345" y="222" type="curve"/>
			<point x="481" y="222" type="line" smooth="yes"/>
			<point x="501" y="222"/>
			<point x="516" y="234"/>
			<point x="520" y="255" type="curve" smooth="yes"/>
			<point x="528" y="304"/>
			<point x="531" y="338"/>
			<point x="531" y="373" type="curve" smooth="yes"/>
			<point x="531" y="475"/>
			<point x="494" y="530"/>
			<point x="424" y="530" type="curve" smooth="yes"/>
			<point x="387" y="530"/>
			<point x="357" y="512"/>
			<point x="332" y="476" type="curve"/>
			<point x="318" y="513"/>
			<point x="293" y="532"/>
			<point x="257" y="532" type="curve" smooth="yes"/>
			<point x="124" y="532"/>
			<point x="65" y="308"/>
			<point x="65" y="151" type="curve" smooth="yes"/>
			<point x="65" y="46"/>
			<point x="101" y="-12"/>
			<point x="169" y="-12" type="curve" smooth="yes"/>
			<point x="208" y="-12"/>
			<point x="240" y="8"/>
			<point x="267" y="51" type="curve"/>
			<point x="282" y="10"/>
			<point x="308" y="-10"/>
			<point x="350" y="-10" type="curve" smooth="yes"/>
			<point x="362" y="-10"/>
			<point x="388" y="-7"/>
			<point x="436" y="1" type="curve" smooth="yes"/>
			<point x="458" y="5"/>
			<point x="471" y="21"/>
		</contour>
		<contour>
			<point x="183" y="85" type="curve" smooth="yes"/>
			<point x="175" y="85"/>
			<point x="169" y="106"/>
			<point x="169" y="143" type="curve" smooth="yes"/>
			<point x="169" y="264"/>
			<point x="212" y="435"/>
			<point x="242" y="435" type="curve" smooth="yes"/>
			<point x="250" y="435"/>
			<point x="256" y="415"/>
			<point x="256" y="378" type="curve" smooth="yes"/>
			<point x="256" y="256"/>
			<point x="213" y="85"/>
		</contour>
		<contour>
			<point x="424" y="319" type="curve"/>
			<point x="361" y="319" type="line"/>
			<point x="379" y="393"/>
			<point x="398" y="434"/>
			<point x="412" y="434" type="curve" smooth="yes"/>
			<point x="425" y="434"/>
			<point x="431" y="390"/>
		</contour>
	</outline>
</glyph>
<glyph name="tbar" format="1">
  <advance width="575"/>
  <unicode hex="0167"/>
  <outline>
    <contour>
      <point x="457" y="82" type="line"/>
      <point x="451" y="102"/>
      <point x="435" y="109"/>
      <point x="414" y="101" type="curve" smooth="yes"/>
      <point x="388" y="92"/>
      <point x="366" y="88"/>
      <point x="341" y="88" type="curve" smooth="yes"/>
      <point x="292" y="88"/>
      <point x="269" y="110"/>
      <point x="269" y="164" type="curve" smooth="yes"/>
      <point x="269" y="175"/>
      <point x="270" y="191"/>
      <point x="275" y="224" type="curve"/>
      <point x="429" y="224" type="line" smooth="yes"/>
      <point x="450" y="224"/>
      <point x="467" y="238"/>
      <point x="470" y="259" type="curve" smooth="yes"/>
      <point x="474" y="285" type="line" smooth="yes"/>
      <point x="477" y="307"/>
      <point x="467" y="320"/>
      <point x="445" y="320" type="curve" smooth="yes"/>
      <point x="291" y="320" type="line"/>
      <point x="307" y="424" type="line"/>
      <point x="461" y="424" type="line" smooth="yes"/>
      <point x="482" y="424"/>
      <point x="498" y="438"/>
      <point x="502" y="459" type="curve" smooth="yes"/>
      <point x="506" y="485" type="line" smooth="yes"/>
      <point x="509" y="507"/>
      <point x="498" y="520"/>
      <point x="476" y="520" type="curve" smooth="yes"/>
      <point x="322" y="520" type="line"/>
      <point x="342" y="645" type="line" smooth="yes"/>
      <point x="345" y="666"/>
      <point x="334" y="680"/>
      <point x="313" y="680" type="curve" smooth="yes"/>
      <point x="278" y="680" type="line" smooth="yes"/>
      <point x="257" y="680"/>
      <point x="240" y="666"/>
      <point x="237" y="645" type="curve" smooth="yes"/>
      <point x="217" y="520" type="line"/>
      <point x="151" y="520" type="line" smooth="yes"/>
      <point x="129" y="520"/>
      <point x="114" y="507"/>
      <point x="111" y="485" type="curve" smooth="yes"/>
      <point x="107" y="459" type="line" smooth="yes"/>
      <point x="103" y="438"/>
      <point x="115" y="424"/>
      <point x="136" y="424" type="curve" smooth="yes"/>
      <point x="202" y="424" type="line"/>
      <point x="186" y="320" type="line"/>
      <point x="120" y="320" type="line" smooth="yes"/>
      <point x="98" y="320"/>
      <point x="82" y="307"/>
      <point x="79" y="285" type="curve" smooth="yes"/>
      <point x="75" y="259" type="line" smooth="yes"/>
      <point x="72" y="238"/>
      <point x="83" y="224"/>
      <point x="104" y="224" type="curve" smooth="yes"/>
      <point x="170" y="224" type="line"/>
      <point x="166" y="190"/>
      <point x="164" y="171"/>
      <point x="164" y="155" type="curve" smooth="yes"/>
      <point x="164" y="49"/>
      <point x="220" y="-10"/>
      <point x="325" y="-10" type="curve" smooth="yes"/>
      <point x="359" y="-10"/>
      <point x="398" y="-3"/>
      <point x="437" y="11" type="curve"/>
      <point x="459" y="17"/>
      <point x="469" y="35"/>
      <point x="464" y="56" type="curve" smooth="yes"/>
    </contour>
  </outline>
</glyph>
<glyph name="florin" format="1">
  <advance width="575"/>
  <unicode hex="0192"/>
  <outline>
    <contour>
      <point x="182" y="520" type="line"/>
      <point x="94" y="520" type="line" smooth="yes"/>
      <point x="74" y="520"/>
      <point x="59" y="506"/>
      <point x="55" y="487" type="curve" smooth="yes"/>
      <point x="50" y="461" type="line" smooth="yes"/>
      <point x="46" y="439"/>
      <point x="61" y="424"/>
      <point x="81" y="424" type="curve" smooth="yes"/>
      <point x="164" y="424" type="line"/>
      <point x="78" y="-63" type="line"/>
      <point x="76" y="-85"/>
      <point x="88" y="-100"/>
      <point x="109" y="-100" type="curve" smooth="yes"/>
      <point x="144" y="-100" type="line" smooth="yes"/>
      <point x="163" y="-100"/>
      <point x="180" y="-88"/>
      <point x="183" y="-66" type="curve"/>
      <point x="269" y="424" type="line"/>
      <point x="425" y="424" type="line" smooth="yes"/>
      <point x="446" y="424"/>
      <point x="461" y="438"/>
      <point x="465" y="457" type="curve" smooth="yes"/>
      <point x="469" y="483" type="line" smooth="yes"/>
      <point x="473" y="504"/>
      <point x="460" y="520"/>
      <point x="439" y="520" type="curve" smooth="yes"/>
      <point x="287" y="520" type="line"/>
      <point x="302" y="607" type="line" smooth="yes"/>
      <point x="313" y="667"/>
      <point x="334" y="684"/>
      <point x="388" y="684" type="curve" smooth="yes"/>
      <point x="409" y="684"/>
      <point x="446" y="682"/>
      <point x="490" y="674" type="curve"/>
      <point x="509" y="672"/>
      <point x="527" y="681"/>
      <point x="534" y="699" type="curve" smooth="yes"/>
      <point x="545" y="725" type="line" smooth="yes"/>
      <point x="554" y="746"/>
      <point x="545" y="765"/>
      <point x="524" y="769" type="curve" smooth="yes"/>
      <point x="474" y="778"/>
      <point x="429" y="780"/>
      <point x="401" y="780" type="curve" smooth="yes"/>
      <point x="282" y="780"/>
      <point x="218" y="732"/>
      <point x="197" y="611" type="curve" smooth="yes"/>
    </contour>
  </outline>
</glyph>
<glyph name="dotlessj" format="1">
  <advance width="575"/>
  <unicode hex="0237"/>
  <outline>
    <contour>
      <point x="320" y="532"/>
      <point x="288" y="529"/>
      <point x="244" y="522" type="curve" smooth="yes"/>
      <point x="223" y="518"/>
      <point x="211" y="504"/>
      <point x="211" y="483" type="curve"/>
      <point x="212" y="455" type="line"/>
      <point x="211" y="433"/>
      <point x="226" y="421"/>
      <point x="250" y="425" type="curve" smooth="yes"/>
      <point x="283" y="431"/>
      <point x="310" y="435"/>
      <point x="333" y="435" type="curve" smooth="yes"/>
      <point x="387" y="435"/>
      <point x="407" y="415"/>
      <point x="407" y="361" type="curve" smooth="yes"/>
      <point x="407" y="347"/>
      <point x="405" y="330"/>
      <point x="402" y="312" type="curve" smooth="yes"/>
      <point x="373" y="132" type="line" smooth="yes"/>
      <point x="353" y="1"/>
      <point x="295" y="-62"/>
      <point x="194" y="-62" type="curve" smooth="yes"/>
      <point x="155" y="-62"/>
      <point x="122" y="-55"/>
      <point x="81" y="-40" type="curve"/>
      <point x="62" y="-32"/>
      <point x="45" y="-39"/>
      <point x="34" y="-58" type="curve" smooth="yes"/>
      <point x="20" y="-82" type="line"/>
      <point x="9" y="-103"/>
      <point x="14" y="-121"/>
      <point x="33" y="-129" type="curve"/>
      <point x="78" y="-150"/>
      <point x="129" y="-160"/>
      <point x="182" y="-160" type="curve" smooth="yes"/>
      <point x="343" y="-160"/>
      <point x="450" y="-55"/>
      <point x="479" y="128" type="curve" smooth="yes"/>
      <point x="508" y="308" type="line" smooth="yes"/>
      <point x="512" y="333"/>
      <point x="514" y="354"/>
      <point x="514" y="375" type="curve" smooth="yes"/>
      <point x="514" y="481"/>
      <point x="460" y="532"/>
      <point x="348" y="532" type="curve" smooth="yes"/>
    </contour>
  </outline>
</glyph>
<glyph name="breve" format="1">
  <advance width="575"/>
  <unicode hex="02D8"/>
  <outline>
    <contour>
      <point x="525" y="696" type="line" smooth="yes"/>
      <point x="509" y="699"/>
      <point x="499" y="692"/>
      <point x="492" y="676" type="curve" smooth="yes"/>
      <point x="469" y="626"/>
      <point x="427" y="598"/>
      <point x="374" y="598" type="curve" smooth="yes"/>
      <point x="320" y="598"/>
      <point x="288" y="626"/>
      <point x="280" y="676" type="curve" smooth="yes"/>
      <point x="278" y="692"/>
      <point x="270" y="699"/>
      <point x="255" y="696" type="curve" smooth="yes"/>
      <point x="226" y="691" type="line" smooth="yes"/>
      <point x="209" y="688"/>
      <point x="200" y="678"/>
      <point x="201" y="662" type="curve" smooth="yes"/>
      <point x="211" y="583"/>
      <point x="269" y="539"/>
      <point x="365" y="538" type="curve" smooth="yes"/>
      <point x="461" y="539"/>
      <point x="532" y="583"/>
      <point x="566" y="662" type="curve" smooth="yes"/>
      <point x="574" y="678"/>
      <point x="567" y="688"/>
      <point x="552" y="691" type="curve" smooth="yes"/>
    </contour>
    <contour>
      <point x="328" y="500" type="move" name="_top"/>
    </contour>
  </outline>
</glyph>
<glyph name="dotaccent" format="1">
  <advance width="575"/>
  <unicode hex="02D9"/>
  <outline>
    <contour>
      <point x="413" y="675" type="line" smooth="yes"/>
      <point x="415" y="691"/>
      <point x="409" y="700"/>
      <point x="392" y="700" type="curve" smooth="yes"/>
      <point x="317" y="700" type="line" smooth="yes"/>
      <point x="301" y="700"/>
      <point x="290" y="691"/>
      <point x="288" y="675" type="curve" smooth="yes"/>
      <point x="277" y="608" type="line" smooth="yes"/>
      <point x="275" y="592"/>
      <point x="282" y="583"/>
      <point x="298" y="583" type="curve" smooth="yes"/>
      <point x="373" y="583" type="line" smooth="yes"/>
      <point x="390" y="583"/>
      <point x="400" y="592"/>
      <point x="402" y="608" type="curve" smooth="yes"/>
    </contour>
    <contour>
      <point x="363" y="500" type="move" name="_top"/>
    </contour>
  </outline>
</glyph>
<glyph name="ogonek" format="2">
	<advance width="575"/>
	<unicode hex="02DB"/>
	<outline>
		<contour>
			<point x="283" y="34" type="curve" smooth="yes"/>
			<point x="273" y="37"/>
			<point x="264" y="36"/>
			<point x="251" y="28" type="curve" smooth="yes"/>
			<point x="191" y="-13"/>
			<point x="183" y="-53"/>
			<point x="178" y="-83" type="curve" smooth="yes"/>
			<point x="171" y="-131"/>
			<point x="187" y="-177"/>
			<point x="216" y="-212" type="curve" smooth="yes"/>
			<point x="226" y="-224"/>
			<point x="239" y="-223"/>
			<point x="251" y="-211" type="curve" smooth="yes"/>
			<point x="276" y="-188" type="line" smooth="yes"/>
			<point x="289" y="-176"/>
			<point x="289" y="-165"/>
			<point x="281" y="-152" type="curve" smooth="yes"/>
			<point x="267" y="-131"/>
			<point x="260" y="-105"/>
			<point x="268" y="-53" type="curve" smooth="yes"/>
			<point x="271" y="-37"/>
			<point x="279" y="-14"/>
			<point x="286" y="6" type="curve" smooth="yes"/>
			<point x="293" y="21"/>
			<point x="291" y="30"/>
		</contour>
	</outline>
</glyph>
<glyph name="tilde" format="2">
	<advance width="575"/>
	<unicode hex="02DC"/>
	<anchor x="328" y="500" name="_top"/>
	<outline>
		<contour>
			<point x="192" y="594" type="curve" smooth="yes"/>
			<point x="204" y="585" type="line" smooth="yes"/>
			<point x="215" y="577"/>
			<point x="228" y="579"/>
			<point x="240" y="591" type="curve" smooth="yes"/>
			<point x="258" y="607"/>
			<point x="275" y="616"/>
			<point x="291" y="616" type="curve" smooth="yes"/>
			<point x="309" y="616"/>
			<point x="332" y="608"/>
			<point x="353" y="593" type="curve" smooth="yes"/>
			<point x="386" y="570"/>
			<point x="417" y="557"/>
			<point x="440" y="557" type="curve" smooth="yes"/>
			<point x="478" y="557"/>
			<point x="521" y="581"/>
			<point x="563" y="626" type="curve" smooth="yes"/>
			<point x="576" y="639"/>
			<point x="576" y="651"/>
			<point x="563" y="661" type="curve" smooth="yes"/>
			<point x="552" y="670" type="line" smooth="yes"/>
			<point x="540" y="678"/>
			<point x="527" y="676"/>
			<point x="516" y="664" type="curve"/>
			<point x="498" y="647"/>
			<point x="478" y="638"/>
			<point x="459" y="638" type="curve" smooth="yes"/>
			<point x="442" y="638"/>
			<point x="423" y="646"/>
			<point x="402" y="661" type="curve" smooth="yes"/>
			<point x="370" y="685"/>
			<point x="339" y="698"/>
			<point x="315" y="698" type="curve" smooth="yes"/>
			<point x="276" y="698"/>
			<point x="233" y="673"/>
			<point x="192" y="629" type="curve" smooth="yes"/>
			<point x="180" y="615"/>
			<point x="180" y="603"/>
		</contour>
	</outline>
</glyph>
<glyph name="dotbelowcomb" format="2">
	<advance width="0"/>
	<unicode hex="0323"/>
	<outline>
		<contour>
			<point x="146" y="-81" type="curve" smooth="yes"/>
			<point x="132" y="-169" type="line" smooth="yes"/>
			<point x="129" y="-190"/>
			<point x="140" y="-204"/>
			<point x="162" y="-204" type="curve" smooth="yes"/>
			<point x="267" y="-204" type="line" smooth="yes"/>
			<point x="288" y="-204"/>
			<point x="304" y="-191"/>
			<point x="307" y="-169" type="curve" smooth="yes"/>
			<point x="321" y="-81" type="line" smooth="yes"/>
			<point x="324" y="-59"/>
			<point x="314" y="-46"/>
			<point x="292" y="-46" type="curve" smooth="yes"/>
			<point x="187" y="-46" type="line" smooth="yes"/>
			<point x="165" y="-46"/>
			<point x="149" y="-60"/>
		</contour>
	</outline>
</glyph>
<glyph name="Gamma" format="2">
	<advance width="575"/>
	<unicode hex="0393"/>
	<outline>
		<contour>
			<point x="553" y="720" type="curve" smooth="yes"/>
			<point x="168" y="720" type="line" smooth="yes"/>
			<point x="146" y="720"/>
			<point x="131" y="707"/>
			<point x="127" y="685" type="curve" smooth="yes"/>
			<point x="24" y="35" type="line" smooth="yes"/>
			<point x="21" y="14"/>
			<point x="33" y="0"/>
			<point x="54" y="0" type="curve" smooth="yes"/>
			<point x="89" y="0" type="line" smooth="yes"/>
			<point x="111" y="0"/>
			<point x="126" y="13"/>
			<point x="129" y="35" type="curve" smooth="yes"/>
			<point x="223" y="624" type="line"/>
			<point x="538" y="624" type="line" smooth="yes"/>
			<point x="560" y="624"/>
			<point x="575" y="637"/>
			<point x="578" y="659" type="curve" smooth="yes"/>
			<point x="582" y="685" type="line" smooth="yes"/>
			<point x="586" y="707"/>
			<point x="575" y="720"/>
		</contour>
	</outline>
</glyph>
<glyph name="uni0394" format="2">
	<advance width="575"/>
	<unicode hex="0394"/>
	<outline>
		<contour>
			<point x="533" y="41" type="curve"/>
			<point x="449" y="634" type="line" smooth="yes"/>
			<point x="441" y="694"/>
			<point x="407" y="732"/>
			<point x="362" y="732" type="curve" smooth="yes"/>
			<point x="317" y="732"/>
			<point x="272" y="694"/>
			<point x="244" y="634" type="curve" smooth="yes"/>
			<point x="-28" y="41" type="line"/>
			<point x="-37" y="18"/>
			<point x="-27" y="0"/>
			<point x="-2" y="0" type="curve" smooth="yes"/>
			<point x="496" y="0" type="line" smooth="yes"/>
			<point x="520" y="0"/>
			<point x="536" y="18"/>
		</contour>
		<contour>
			<point x="103" y="95" type="line"/>
			<point x="344" y="612" type="line"/>
			<point x="420" y="95" type="line"/>
		</contour>
	</outline>
</glyph>
<glyph name="Theta" format="2">
	<advance width="575"/>
	<unicode hex="0398"/>
	<outline>
		<contour>
			<point x="266" y="374" type="curve" smooth="yes"/>
			<point x="261" y="347" type="line" smooth="yes"/>
			<point x="259" y="331"/>
			<point x="266" y="322"/>
			<point x="282" y="322" type="curve" smooth="yes"/>
			<point x="311" y="322" type="line" smooth="yes"/>
			<point x="327" y="322"/>
			<point x="338" y="331"/>
			<point x="340" y="347" type="curve" smooth="yes"/>
			<point x="345" y="374" type="line" smooth="yes"/>
			<point x="347" y="390"/>
			<point x="340" y="399"/>
			<point x="324" y="399" type="curve" smooth="yes"/>
			<point x="295" y="399" type="line" smooth="yes"/>
			<point x="279" y="399"/>
			<point x="268" y="390"/>
		</contour>
		<component base="O"/>
	</outline>
</glyph>
<glyph name="Lambda" format="2">
	<advance width="575"/>
	<unicode hex="039B"/>
	<outline>
		<contour>
			<point x="533" y="41" type="curve"/>
			<point x="479" y="633" type="line"/>
			<point x="474" y="695"/>
			<point x="431" y="730"/>
			<point x="362" y="730" type="curve" smooth="yes"/>
			<point x="293" y="730"/>
			<point x="240" y="696"/>
			<point x="214" y="634" type="curve" smooth="yes"/>
			<point x="-28" y="40" type="line" smooth="yes"/>
			<point x="-36" y="17"/>
			<point x="-26" y="0"/>
			<point x="-2" y="0" type="curve" smooth="yes"/>
			<point x="33" y="0" type="line" smooth="yes"/>
			<point x="53" y="0"/>
			<point x="69" y="11"/>
			<point x="76" y="30" type="curve"/>
			<point x="315" y="615" type="line" smooth="yes"/>
			<point x="320" y="627"/>
			<point x="331" y="634"/>
			<point x="347" y="634" type="curve" smooth="yes"/>
			<point x="363" y="634"/>
			<point x="372" y="627"/>
			<point x="373" y="615" type="curve" smooth="yes"/>
			<point x="427" y="30" type="line" smooth="yes"/>
			<point x="428" y="10"/>
			<point x="441" y="0"/>
			<point x="460" y="0" type="curve" smooth="yes"/>
			<point x="496" y="0" type="line" smooth="yes"/>
			<point x="520" y="0"/>
			<point x="536" y="18"/>
		</contour>
	</outline>
</glyph>
<glyph name="Xi" format="1">
  <advance width="575"/>
  <unicode hex="039E"/>
  <outline>
    <contour>
      <point x="527" y="624" type="line" smooth="yes"/>
      <point x="549" y="624"/>
      <point x="564" y="637"/>
      <point x="567" y="659" type="curve" smooth="yes"/>
      <point x="571" y="685" type="line" smooth="yes"/>
      <point x="575" y="707"/>
      <point x="564" y="720"/>
      <point x="542" y="720" type="curve" smooth="yes"/>
      <point x="179" y="720" type="line" smooth="yes"/>
      <point x="157" y="720"/>
      <point x="142" y="707"/>
      <point x="138" y="685" type="curve" smooth="yes"/>
      <point x="134" y="659" type="line" smooth="yes"/>
      <point x="131" y="637"/>
      <point x="142" y="624"/>
      <point x="164" y="624" type="curve" smooth="yes"/>
    </contour>
    <contour>
      <point x="153" y="423" type="line" smooth="yes"/>
      <point x="132" y="423"/>
      <point x="116" y="409"/>
      <point x="112" y="388" type="curve" smooth="yes"/>
      <point x="108" y="361" type="line" smooth="yes"/>
      <point x="105" y="340"/>
      <point x="116" y="326"/>
      <point x="137" y="326" type="curve" smooth="yes"/>
      <point x="458" y="326" type="line" smooth="yes"/>
      <point x="479" y="326"/>
      <point x="496" y="340"/>
      <point x="499" y="361" type="curve" smooth="yes"/>
      <point x="503" y="388" type="line" smooth="yes"/>
      <point x="507" y="409"/>
      <point x="495" y="423"/>
      <point x="474" y="423" type="curve" smooth="yes"/>
    </contour>
    <contour>
      <point x="58" y="97" type="line" smooth="yes"/>
      <point x="37" y="97"/>
      <point x="21" y="83"/>
      <point x="18" y="62" type="curve" smooth="yes"/>
      <point x="13" y="35" type="line" smooth="yes"/>
      <point x="10" y="14"/>
      <point x="22" y="0"/>
      <point x="43" y="0" type="curve" smooth="yes"/>
      <point x="450" y="0" type="line" smooth="yes"/>
      <point x="471" y="0"/>
      <point x="487" y="14"/>
      <point x="490" y="35" type="curve" smooth="yes"/>
      <point x="495" y="62" type="line" smooth="yes"/>
      <point x="498" y="83"/>
      <point x="486" y="97"/>
      <point x="465" y="97" type="curve" smooth="yes"/>
    </contour>
  </outline>
</glyph>
<glyph name="Pi" format="1">
  <advance width="575"/>
  <unicode hex="03A0"/>
  <outline>
    <contour>
      <point x="183" y="720" type="line" smooth="yes"/>
      <point x="161" y="720"/>
      <point x="146" y="707"/>
      <point x="142" y="685" type="curve" smooth="yes"/>
      <point x="39" y="35" type="line" smooth="yes"/>
      <point x="36" y="14"/>
      <point x="48" y="0"/>
      <point x="69" y="0" type="curve" smooth="yes"/>
      <point x="104" y="0" type="line" smooth="yes"/>
      <point x="126" y="0"/>
      <point x="141" y="13"/>
      <point x="144" y="35" type="curve" smooth="yes"/>
      <point x="238" y="624" type="line"/>
      <point x="453" y="624" type="line"/>
      <point x="359" y="35" type="line" smooth="yes"/>
      <point x="356" y="14"/>
      <point x="368" y="0"/>
      <point x="389" y="0" type="curve" smooth="yes"/>
      <point x="424" y="0" type="line" smooth="yes"/>
      <point x="446" y="0"/>
      <point x="461" y="13"/>
      <point x="464" y="35" type="curve" smooth="yes"/>
      <point x="567" y="685" type="line" smooth="yes"/>
      <point x="571" y="707"/>
      <point x="560" y="720"/>
      <point x="538" y="720" type="curve" smooth="yes"/>
    </contour>
  </outline>
</glyph>
<glyph name="Phi" format="1">
  <advance width="575"/>
  <unicode hex="03A6"/>
  <outline>
    <contour>
      <point x="608" y="624"/>
      <point x="624" y="638"/>
      <point x="627" y="659" type="curve" smooth="yes"/>
      <point x="631" y="685" type="line" smooth="yes"/>
      <point x="635" y="707"/>
      <point x="624" y="720"/>
      <point x="602" y="720" type="curve" smooth="yes"/>
      <point x="120" y="720" type="line" smooth="yes"/>
      <point x="98" y="720"/>
      <point x="83" y="707"/>
      <point x="79" y="685" type="curve" smooth="yes"/>
      <point x="75" y="659" type="line" smooth="yes"/>
      <point x="72" y="637"/>
      <point x="83" y="624"/>
      <point x="104" y="624" type="curve" smooth="yes"/>
      <point x="293" y="624" type="line"/>
      <point x="284" y="568" type="line"/>
      <point x="156" y="551"/>
      <point x="69" y="473"/>
      <point x="51" y="360" type="curve" smooth="yes"/>
      <point x="33" y="243"/>
      <point x="99" y="166"/>
      <point x="218" y="151" type="curve"/>
      <point x="209" y="96" type="line"/>
      <point x="20" y="96" type="line" smooth="yes"/>
      <point x="-1" y="96"/>
      <point x="-16" y="83"/>
      <point x="-20" y="61" type="curve" smooth="yes"/>
      <point x="-24" y="35" type="line" smooth="yes"/>
      <point x="-27" y="13"/>
      <point x="-16" y="0"/>
      <point x="6" y="0" type="curve" smooth="yes"/>
      <point x="488" y="0" type="line" smooth="yes"/>
      <point x="510" y="0"/>
      <point x="525" y="13"/>
      <point x="528" y="35" type="curve" smooth="yes"/>
      <point x="532" y="61" type="line" smooth="yes"/>
      <point x="536" y="82"/>
      <point x="524" y="96"/>
      <point x="503" y="96" type="curve" smooth="yes"/>
      <point x="314" y="96" type="line"/>
      <point x="323" y="151" type="line"/>
      <point x="460" y="170"/>
      <point x="559" y="264"/>
      <point x="559" y="397" type="curve" smooth="yes"/>
      <point x="559" y="492"/>
      <point x="497" y="555"/>
      <point x="389" y="569" type="curve"/>
      <point x="398" y="624" type="line"/>
      <point x="587" y="624" type="line" smooth="yes"/>
    </contour>
    <contour>
      <point x="165" y="416"/>
      <point x="205" y="455"/>
      <point x="268" y="470" type="curve"/>
      <point x="233" y="250" type="line"/>
      <point x="180" y="263"/>
      <point x="147" y="298"/>
      <point x="156" y="360" type="curve" smooth="yes"/>
    </contour>
    <contour>
      <point x="409" y="267"/>
      <point x="338" y="250" type="curve"/>
      <point x="373" y="470" type="line"/>
      <point x="424" y="458"/>
      <point x="453" y="425"/>
      <point x="453" y="379" type="curve" smooth="yes"/>
      <point x="453" y="317"/>
    </contour>
  </outline>
</glyph>
<glyph name="Psi" format="1">
  <advance width="575"/>
  <unicode hex="03A8"/>
  <outline>
    <contour>
      <point x="511" y="710" type="line" smooth="yes"/>
      <point x="490" y="710"/>
      <point x="474" y="696"/>
      <point x="471" y="675" type="curve" smooth="yes"/>
      <point x="432" y="433" type="line" smooth="yes"/>
      <point x="423" y="374"/>
      <point x="386" y="325"/>
      <point x="339" y="318" type="curve"/>
      <point x="396" y="675" type="line" smooth="yes"/>
      <point x="399" y="697"/>
      <point x="388" y="710"/>
      <point x="366" y="710" type="curve" smooth="yes"/>
      <point x="351" y="710" type="line" smooth="yes"/>
      <point x="330" y="710"/>
      <point x="314" y="696"/>
      <point x="311" y="675" type="curve" smooth="yes"/>
      <point x="254" y="318" type="line"/>
      <point x="219" y="322"/>
      <point x="195" y="360"/>
      <point x="195" y="409" type="curve" smooth="yes"/>
      <point x="195" y="417"/>
      <point x="196" y="425"/>
      <point x="197" y="433" type="curve" smooth="yes"/>
      <point x="236" y="675" type="line" smooth="yes"/>
      <point x="239" y="697"/>
      <point x="228" y="710"/>
      <point x="206" y="710" type="curve" smooth="yes"/>
      <point x="181" y="710" type="line" smooth="yes"/>
      <point x="160" y="710"/>
      <point x="144" y="696"/>
      <point x="141" y="675" type="curve" smooth="yes"/>
      <point x="102" y="433" type="line" smooth="yes"/>
      <point x="99" y="414"/>
      <point x="98" y="397"/>
      <point x="98" y="381" type="curve" smooth="yes"/>
      <point x="98" y="291"/>
      <point x="143" y="242"/>
      <point x="231" y="234" type="curve"/>
      <point x="198" y="25" type="line" smooth="yes"/>
      <point x="194" y="4"/>
      <point x="206" y="-10"/>
      <point x="227" y="-10" type="curve" smooth="yes"/>
      <point x="262" y="-10" type="line" smooth="yes"/>
      <point x="284" y="-10"/>
      <point x="299" y="3"/>
      <point x="303" y="25" type="curve" smooth="yes"/>
      <point x="336" y="234" type="line"/>
      <point x="442" y="243"/>
      <point x="508" y="308"/>
      <point x="527" y="433" type="curve" smooth="yes"/>
      <point x="566" y="675" type="line" smooth="yes"/>
      <point x="569" y="697"/>
      <point x="558" y="710"/>
      <point x="536" y="710" type="curve" smooth="yes"/>
    </contour>
  </outline>
</glyph>
<glyph name="uni03A9" format="2">
	<advance width="575"/>
	<unicode hex="03A9"/>
	<outline>
		<contour>
			<point x="462" y="96" type="curve" smooth="yes"/>
			<point x="373" y="96" type="line"/>
			<point x="377" y="124" type="line"/>
			<point x="451" y="165"/>
			<point x="497" y="243"/>
			<point x="515" y="353" type="curve" smooth="yes"/>
			<point x="533" y="467" type="line" smooth="yes"/>
			<point x="537" y="492"/>
			<point x="539" y="516"/>
			<point x="539" y="538" type="curve" smooth="yes"/>
			<point x="539" y="662"/>
			<point x="477" y="730"/>
			<point x="362" y="730" type="curve" smooth="yes"/>
			<point x="226" y="730"/>
			<point x="135" y="635"/>
			<point x="109" y="467" type="curve" smooth="yes"/>
			<point x="91" y="353" type="line" smooth="yes"/>
			<point x="73" y="243"/>
			<point x="95" y="165"/>
			<point x="155" y="124" type="curve"/>
			<point x="151" y="96" type="line"/>
			<point x="62" y="96" type="line" smooth="yes"/>
			<point x="41" y="96"/>
			<point x="25" y="82"/>
			<point x="21" y="61" type="curve" smooth="yes"/>
			<point x="17" y="35" type="line" smooth="yes"/>
			<point x="14" y="13"/>
			<point x="25" y="0"/>
			<point x="47" y="0" type="curve" smooth="yes"/>
			<point x="196" y="0" type="line" smooth="yes"/>
			<point x="218" y="0"/>
			<point x="233" y="13"/>
			<point x="236" y="35" type="curve" smooth="yes"/>
			<point x="256" y="157" type="line" smooth="yes"/>
			<point x="259" y="175"/>
			<point x="251" y="187"/>
			<point x="235" y="195" type="curve" smooth="yes"/>
			<point x="196" y="214"/>
			<point x="182" y="267"/>
			<point x="196" y="353" type="curve" smooth="yes"/>
			<point x="214" y="467" type="line" smooth="yes"/>
			<point x="232" y="579"/>
			<point x="276" y="634"/>
			<point x="347" y="634" type="curve" smooth="yes"/>
			<point x="404" y="634"/>
			<point x="433" y="599"/>
			<point x="433" y="527" type="curve" smooth="yes"/>
			<point x="433" y="509"/>
			<point x="432" y="489"/>
			<point x="428" y="467" type="curve" smooth="yes"/>
			<point x="410" y="353" type="line" smooth="yes"/>
			<point x="396" y="267"/>
			<point x="366" y="214"/>
			<point x="321" y="195" type="curve" smooth="yes"/>
			<point x="301" y="187"/>
			<point x="291" y="175"/>
			<point x="288" y="157" type="curve" smooth="yes"/>
			<point x="268" y="35" type="line" smooth="yes"/>
			<point x="265" y="13"/>
			<point x="276" y="0"/>
			<point x="298" y="0" type="curve" smooth="yes"/>
			<point x="447" y="0" type="line" smooth="yes"/>
			<point x="469" y="0"/>
			<point x="484" y="13"/>
			<point x="487" y="35" type="curve" smooth="yes"/>
			<point x="491" y="61" type="line" smooth="yes"/>
			<point x="495" y="82"/>
			<point x="483" y="96"/>
		</contour>
	</outline>
</glyph>
<glyph name="alpha" format="2">
	<advance width="575"/>
	<unicode hex="03B1"/>
	<outline>
		<contour>
			<point x="547" y="520" type="curve" smooth="yes"/>
			<point x="520" y="520" type="line" smooth="yes"/>
			<point x="500" y="520"/>
			<point x="488" y="511"/>
			<point x="479" y="490" type="curve" smooth="yes"/>
			<point x="476" y="481"/>
			<point x="470" y="454"/>
			<point x="458" y="417" type="curve"/>
			<point x="422" y="492"/>
			<point x="367" y="530"/>
			<point x="295" y="530" type="curve" smooth="yes"/>
			<point x="121" y="530"/>
			<point x="29" y="370"/>
			<point x="29" y="186" type="curve" smooth="yes"/>
			<point x="29" y="60"/>
			<point x="91" y="-10"/>
			<point x="209" y="-10" type="curve" smooth="yes"/>
			<point x="281" y="-10"/>
			<point x="348" y="28"/>
			<point x="408" y="103" type="curve"/>
			<point x="408" y="66"/>
			<point x="406" y="39"/>
			<point x="407" y="30" type="curve" smooth="yes"/>
			<point x="408" y="9"/>
			<point x="418" y="0"/>
			<point x="438" y="0" type="curve" smooth="yes"/>
			<point x="465" y="0" type="line" smooth="yes"/>
			<point x="491" y="0"/>
			<point x="505" y="15"/>
			<point x="504" y="41" type="curve" smooth="yes"/>
			<point x="504" y="56"/>
			<point x="511" y="155"/>
			<point x="494" y="260" type="curve"/>
			<point x="545" y="365"/>
			<point x="568" y="464"/>
			<point x="574" y="479" type="curve" smooth="yes"/>
			<point x="583" y="505"/>
			<point x="573" y="520"/>
		</contour>
		<contour>
			<point x="225" y="87" type="curve" smooth="yes"/>
			<point x="167" y="87"/>
			<point x="135" y="130"/>
			<point x="135" y="206" type="curve" smooth="yes"/>
			<point x="135" y="310"/>
			<point x="182" y="433"/>
			<point x="279" y="433" type="curve" smooth="yes"/>
			<point x="351" y="433"/>
			<point x="384" y="353"/>
			<point x="410" y="260" type="curve"/>
			<point x="354" y="167"/>
			<point x="297" y="87"/>
		</contour>
	</outline>
</glyph>
<glyph name="beta" format="1">
  <advance width="575"/>
  <unicode hex="03B2"/>
  <outline>
    <contour>
      <point x="234" y="720"/>
      <point x="153" y="645"/>
      <point x="131" y="506" type="curve" smooth="yes"/>
      <point x="25" y="-163" type="line" smooth="yes"/>
      <point x="21" y="-185"/>
      <point x="33" y="-200"/>
      <point x="56" y="-200" type="curve" smooth="yes"/>
      <point x="91" y="-200" type="line" smooth="yes"/>
      <point x="112" y="-200"/>
      <point x="126" y="-188"/>
      <point x="130" y="-167" type="curve" smooth="yes"/>
      <point x="158" y="11" type="line"/>
      <point x="318" y="-58"/>
      <point x="516" y="58"/>
      <point x="516" y="226" type="curve" smooth="yes"/>
      <point x="516" y="278"/>
      <point x="484" y="308"/>
      <point x="460" y="331" type="curve" smooth="yes"/>
      <point x="443" y="348"/>
      <point x="431" y="359"/>
      <point x="431" y="375" type="curve" smooth="yes"/>
      <point x="431" y="391"/>
      <point x="448" y="411"/>
      <point x="464" y="431" type="curve" smooth="yes"/>
      <point x="501" y="476"/>
      <point x="532" y="520"/>
      <point x="532" y="585" type="curve" smooth="yes"/>
      <point x="532" y="672"/>
      <point x="473" y="720"/>
      <point x="365" y="720" type="curve" smooth="yes"/>
    </contour>
    <contour>
      <point x="405" y="624"/>
      <point x="430" y="603"/>
      <point x="430" y="562" type="curve" smooth="yes"/>
      <point x="430" y="531"/>
      <point x="415" y="516"/>
      <point x="389" y="484" type="curve" smooth="yes"/>
      <point x="361" y="450"/>
      <point x="324" y="408"/>
      <point x="324" y="359" type="curve" smooth="yes"/>
      <point x="324" y="320"/>
      <point x="351" y="299"/>
      <point x="374" y="281" type="curve"/>
      <point x="396" y="262"/>
      <point x="415" y="247"/>
      <point x="415" y="219" type="curve" smooth="yes"/>
      <point x="415" y="105"/>
      <point x="294" y="47"/>
      <point x="172" y="102" type="curve"/>
      <point x="236" y="502" type="line" smooth="yes"/>
      <point x="248" y="583"/>
      <point x="288" y="624"/>
      <point x="353" y="624" type="curve" smooth="yes"/>
    </contour>
  </outline>
</glyph>
<glyph name="gamma" format="1">
  <advance width="575"/>
  <unicode hex="03B3"/>
  <outline>
    <contour>
      <point x="104" y="520"/>
      <point x="88" y="504"/>
      <point x="91" y="481" type="curve"/>
      <point x="136" y="-12" type="line" smooth="yes"/>
      <point x="143" y="-92"/>
      <point x="145" y="-167"/>
      <point x="142" y="-215" type="curve"/>
      <point x="139" y="-237"/>
      <point x="151" y="-250"/>
      <point x="173" y="-250" type="curve" smooth="yes"/>
      <point x="201" y="-250" type="line" smooth="yes"/>
      <point x="221" y="-250"/>
      <point x="236" y="-238"/>
      <point x="240" y="-217" type="curve"/>
      <point x="240" y="-216" type="line"/>
      <point x="247" y="-146"/>
      <point x="248" y="-72"/>
      <point x="243" y="-10" type="curve"/>
      <point x="245" y="-10" type="line" smooth="yes"/>
      <point x="313" y="-10"/>
      <point x="366" y="24"/>
      <point x="391" y="86" type="curve" smooth="yes"/>
      <point x="551" y="478" type="line" smooth="yes"/>
      <point x="561" y="503"/>
      <point x="550" y="520"/>
      <point x="525" y="520" type="curve" smooth="yes"/>
      <point x="489" y="520" type="line" smooth="yes"/>
      <point x="470" y="520"/>
      <point x="455" y="510"/>
      <point x="449" y="492" type="curve"/>
      <point x="291" y="107" type="line" smooth="yes"/>
      <point x="285" y="91"/>
      <point x="273" y="83"/>
      <point x="256" y="83" type="curve" smooth="yes"/>
      <point x="234" y="83" type="line"/>
      <point x="197" y="490" type="line"/>
      <point x="194" y="510"/>
      <point x="183" y="520"/>
      <point x="163" y="520" type="curve" smooth="yes"/>
      <point x="127" y="520" type="line" smooth="yes"/>
    </contour>
  </outline>
</glyph>
<glyph name="delta" format="2">
	<advance width="575"/>
	<unicode hex="03B4"/>
	<outline>
		<contour>
			<point x="255" y="82" type="curve" smooth="yes"/>
			<point x="191" y="82"/>
			<point x="154" y="125"/>
			<point x="154" y="202" type="curve" smooth="yes"/>
			<point x="154" y="315"/>
			<point x="217" y="393"/>
			<point x="308" y="393" type="curve" smooth="yes"/>
			<point x="338" y="393"/>
			<point x="370" y="390"/>
			<point x="405" y="383" type="curve"/>
			<point x="413" y="355"/>
			<point x="417" y="326"/>
			<point x="417" y="298" type="curve" smooth="yes"/>
			<point x="417" y="166"/>
			<point x="354" y="82"/>
		</contour>
		<contour>
			<point x="352" y="623" type="curve"/>
			<point x="536" y="623" type="line" smooth="yes"/>
			<point x="557" y="623"/>
			<point x="572" y="636"/>
			<point x="575" y="657" type="curve" smooth="yes"/>
			<point x="579" y="684" type="line"/>
			<point x="583" y="705"/>
			<point x="571" y="720"/>
			<point x="548" y="720" type="curve" smooth="yes"/>
			<point x="238" y="720" type="line" smooth="yes"/>
			<point x="218" y="720"/>
			<point x="203" y="708"/>
			<point x="199" y="687" type="curve" smooth="yes"/>
			<point x="194" y="655" type="line" smooth="yes"/>
			<point x="192" y="637"/>
			<point x="198" y="623"/>
			<point x="213" y="615" type="curve"/>
			<point x="269" y="582"/>
			<point x="316" y="539"/>
			<point x="352" y="490" type="curve"/>
			<point x="342" y="491"/>
			<point x="332" y="491"/>
			<point x="320" y="491" type="curve" smooth="yes"/>
			<point x="159" y="491"/>
			<point x="48" y="367"/>
			<point x="48" y="188" type="curve" smooth="yes"/>
			<point x="48" y="61"/>
			<point x="120" y="-15"/>
			<point x="243" y="-15" type="curve" smooth="yes"/>
			<point x="411" y="-15"/>
			<point x="522" y="110"/>
			<point x="522" y="296" type="curve" smooth="yes"/>
			<point x="522" y="414"/>
			<point x="459" y="534"/>
		</contour>
	</outline>
</glyph>
<glyph name="epsilon" format="2">
	<advance width="575"/>
	<unicode hex="03B5"/>
	<outline>
		<contour>
			<point x="473" y="37" type="curve"/>
			<point x="470" y="64" type="line" smooth="yes"/>
			<point x="467" y="85"/>
			<point x="453" y="95"/>
			<point x="432" y="92" type="curve" smooth="yes"/>
			<point x="431" y="92" type="line" smooth="yes"/>
			<point x="406" y="87"/>
			<point x="365" y="84"/>
			<point x="312" y="83" type="curve" smooth="yes"/>
			<point x="212" y="83"/>
			<point x="160" y="101"/>
			<point x="160" y="130" type="curve" smooth="yes"/>
			<point x="160" y="172"/>
			<point x="242" y="210"/>
			<point x="336" y="210" type="curve" smooth="yes"/>
			<point x="356" y="210"/>
			<point x="371" y="222"/>
			<point x="375" y="243" type="curve"/>
			<point x="379" y="271" type="line" smooth="yes"/>
			<point x="382" y="293"/>
			<point x="370" y="307"/>
			<point x="348" y="307" type="curve" smooth="yes"/>
			<point x="267" y="307"/>
			<point x="209" y="335"/>
			<point x="209" y="373" type="curve" smooth="yes"/>
			<point x="209" y="411"/>
			<point x="269" y="434"/>
			<point x="371" y="434" type="curve" smooth="yes"/>
			<point x="423" y="433"/>
			<point x="464" y="430"/>
			<point x="487" y="425" type="curve"/>
			<point x="488" y="425" type="line"/>
			<point x="507" y="422"/>
			<point x="522" y="431"/>
			<point x="531" y="450" type="curve"/>
			<point x="542" y="477" type="line" smooth="yes"/>
			<point x="551" y="500"/>
			<point x="541" y="518"/>
			<point x="519" y="521" type="curve"/>
			<point x="484" y="527"/>
			<point x="435" y="530"/>
			<point x="383" y="530" type="curve" smooth="yes"/>
			<point x="212" y="530"/>
			<point x="102" y="465"/>
			<point x="102" y="360" type="curve" smooth="yes"/>
			<point x="102" y="313"/>
			<point x="129" y="279"/>
			<point x="182" y="259" type="curve"/>
			<point x="99" y="233"/>
			<point x="54" y="184"/>
			<point x="54" y="116" type="curve" smooth="yes"/>
			<point x="54" y="30"/>
			<point x="139" y="-13"/>
			<point x="300" y="-13" type="curve" smooth="yes"/>
			<point x="352" y="-13"/>
			<point x="402" y="-10"/>
			<point x="440" y="-4" type="curve"/>
			<point x="460" y="-1"/>
			<point x="473" y="14"/>
		</contour>
	</outline>
</glyph>
